G04 #@! TF.GenerationSoftware,KiCad,Pcbnew,(5.1.9)-1*
G04 #@! TF.CreationDate,2021-05-25T00:15:51+02:00*
G04 #@! TF.ProjectId,HF,48462e6b-6963-4616-945f-706362585858,rev?*
G04 #@! TF.SameCoordinates,Original*
G04 #@! TF.FileFunction,Legend,Bot*
G04 #@! TF.FilePolarity,Positive*
%FSLAX46Y46*%
G04 Gerber Fmt 4.6, Leading zero omitted, Abs format (unit mm)*
G04 Created by KiCad (PCBNEW (5.1.9)-1) date 2021-05-25 00:15:51*
%MOMM*%
%LPD*%
G01*
G04 APERTURE LIST*
%ADD10C,0.220000*%
%ADD11C,0.010000*%
%ADD12C,0.120000*%
%ADD13C,2.400000*%
%ADD14O,3.600000X2.100000*%
%ADD15O,2.400000X2.400000*%
%ADD16C,2.010000*%
G04 APERTURE END LIST*
D10*
X70531428Y-76448571D02*
X70531428Y-74948571D01*
X70031428Y-76020000D01*
X69531428Y-74948571D01*
X69531428Y-76448571D01*
X68817142Y-76448571D02*
X68817142Y-74948571D01*
X68102857Y-76448571D02*
X68102857Y-74948571D01*
X67245714Y-76448571D01*
X67245714Y-74948571D01*
X66531428Y-76448571D02*
X66531428Y-74948571D01*
X65888571Y-76377142D02*
X65674285Y-76448571D01*
X65317142Y-76448571D01*
X65174285Y-76377142D01*
X65102857Y-76305714D01*
X65031428Y-76162857D01*
X65031428Y-76020000D01*
X65102857Y-75877142D01*
X65174285Y-75805714D01*
X65317142Y-75734285D01*
X65602857Y-75662857D01*
X65745714Y-75591428D01*
X65817142Y-75520000D01*
X65888571Y-75377142D01*
X65888571Y-75234285D01*
X65817142Y-75091428D01*
X65745714Y-75020000D01*
X65602857Y-74948571D01*
X65245714Y-74948571D01*
X65031428Y-75020000D01*
X64102857Y-74948571D02*
X63817142Y-74948571D01*
X63674285Y-75020000D01*
X63531428Y-75162857D01*
X63460000Y-75448571D01*
X63460000Y-75948571D01*
X63531428Y-76234285D01*
X63674285Y-76377142D01*
X63817142Y-76448571D01*
X64102857Y-76448571D01*
X64245714Y-76377142D01*
X64388571Y-76234285D01*
X64460000Y-75948571D01*
X64460000Y-75448571D01*
X64388571Y-75162857D01*
X64245714Y-75020000D01*
X64102857Y-74948571D01*
X62817142Y-74948571D02*
X62817142Y-76162857D01*
X62745714Y-76305714D01*
X62674285Y-76377142D01*
X62531428Y-76448571D01*
X62245714Y-76448571D01*
X62102857Y-76377142D01*
X62031428Y-76305714D01*
X61960000Y-76162857D01*
X61960000Y-74948571D01*
X61245714Y-76448571D02*
X61245714Y-74948571D01*
X60388571Y-76448571D01*
X60388571Y-74948571D01*
X59674285Y-76448571D02*
X59674285Y-74948571D01*
X59317142Y-74948571D01*
X59102857Y-75020000D01*
X58960000Y-75162857D01*
X58888571Y-75305714D01*
X58817142Y-75591428D01*
X58817142Y-75805714D01*
X58888571Y-76091428D01*
X58960000Y-76234285D01*
X59102857Y-76377142D01*
X59317142Y-76448571D01*
X59674285Y-76448571D01*
X57031428Y-76448571D02*
X57031428Y-74948571D01*
X57031428Y-75662857D02*
X56174285Y-75662857D01*
X56174285Y-76448571D02*
X56174285Y-74948571D01*
X54960000Y-75662857D02*
X55460000Y-75662857D01*
X55460000Y-76448571D02*
X55460000Y-74948571D01*
X54745714Y-74948571D01*
D11*
G36*
X106775014Y-35277821D02*
G01*
X106377542Y-35345518D01*
X106161666Y-35399634D01*
X105796852Y-35522712D01*
X105450352Y-35681627D01*
X105124504Y-35873923D01*
X104821645Y-36097144D01*
X104544114Y-36348832D01*
X104294249Y-36626531D01*
X104074388Y-36927784D01*
X103886869Y-37250135D01*
X103734030Y-37591126D01*
X103618209Y-37948302D01*
X103578793Y-38113636D01*
X103553196Y-38261808D01*
X103534569Y-38426284D01*
X103523274Y-38596479D01*
X103519677Y-38761807D01*
X103524138Y-38911683D01*
X103537023Y-39035522D01*
X103545646Y-39079852D01*
X103610396Y-39270142D01*
X103710762Y-39456305D01*
X103840229Y-39630082D01*
X103992283Y-39783212D01*
X104160409Y-39907437D01*
X104229140Y-39946377D01*
X104455681Y-40041327D01*
X104687695Y-40096409D01*
X104920882Y-40112704D01*
X105150943Y-40091291D01*
X105373576Y-40033248D01*
X105584483Y-39939654D01*
X105779362Y-39811590D01*
X105953915Y-39650134D01*
X106088327Y-39479762D01*
X106179675Y-39316615D01*
X106243728Y-39134833D01*
X106283045Y-38926580D01*
X106289945Y-38862740D01*
X106308043Y-38704622D01*
X106331383Y-38578941D01*
X106362995Y-38475859D01*
X106405912Y-38385535D01*
X106463167Y-38298130D01*
X106464504Y-38296311D01*
X106594076Y-38154808D01*
X106748879Y-38043967D01*
X106922688Y-37966117D01*
X107109281Y-37923583D01*
X107302437Y-37918695D01*
X107426691Y-37936411D01*
X107621389Y-37996871D01*
X107791203Y-38089475D01*
X107933432Y-38211596D01*
X108045373Y-38360605D01*
X108124325Y-38533875D01*
X108153728Y-38643442D01*
X108165349Y-38715154D01*
X108170007Y-38791557D01*
X108167771Y-38884234D01*
X108158710Y-39004769D01*
X108156043Y-39033685D01*
X108103525Y-39386116D01*
X108014074Y-39718154D01*
X107887159Y-40030885D01*
X107722247Y-40325400D01*
X107518808Y-40602785D01*
X107276309Y-40864128D01*
X107248392Y-40890842D01*
X107016213Y-41091917D01*
X106775254Y-41261864D01*
X106516701Y-41405847D01*
X106231739Y-41529028D01*
X106048022Y-41593917D01*
X105948244Y-41627833D01*
X105861613Y-41659421D01*
X105796970Y-41685310D01*
X105763156Y-41702129D01*
X105762044Y-41702984D01*
X105733492Y-41739079D01*
X105704566Y-41793311D01*
X105702262Y-41798690D01*
X105686684Y-41886973D01*
X105708683Y-41974033D01*
X105764893Y-42047884D01*
X105774470Y-42055836D01*
X105826184Y-42084082D01*
X105891704Y-42094910D01*
X105976877Y-42087799D01*
X106087545Y-42062225D01*
X106229554Y-42017664D01*
X106239677Y-42014212D01*
X106554749Y-41893158D01*
X106840353Y-41754190D01*
X107107729Y-41591000D01*
X107368118Y-41397284D01*
X107429000Y-41347079D01*
X107701651Y-41091489D01*
X107942526Y-40809893D01*
X108149565Y-40505304D01*
X108320706Y-40180735D01*
X108447971Y-39857210D01*
X108504734Y-39677384D01*
X108546320Y-39521345D01*
X108575387Y-39374486D01*
X108594594Y-39222203D01*
X108606599Y-39049888D01*
X108610215Y-38965834D01*
X108614353Y-38799202D01*
X108611813Y-38664803D01*
X108600953Y-38552834D01*
X108580132Y-38453494D01*
X108547709Y-38356983D01*
X108502041Y-38253500D01*
X108485087Y-38218773D01*
X108368954Y-38030885D01*
X108219119Y-37862421D01*
X108041489Y-37717864D01*
X107841970Y-37601698D01*
X107626469Y-37518405D01*
X107529602Y-37493647D01*
X107296265Y-37463927D01*
X107063794Y-37473711D01*
X106837212Y-37520763D01*
X106621539Y-37602846D01*
X106421795Y-37717726D01*
X106243003Y-37863165D01*
X106090181Y-38036928D01*
X106001344Y-38174226D01*
X105947023Y-38289904D01*
X105900005Y-38425354D01*
X105864837Y-38564339D01*
X105846067Y-38690626D01*
X105844166Y-38735344D01*
X105824568Y-38927233D01*
X105768608Y-39103934D01*
X105680540Y-39262198D01*
X105564618Y-39398777D01*
X105425094Y-39510422D01*
X105266223Y-39593885D01*
X105092257Y-39645916D01*
X104907450Y-39663266D01*
X104716056Y-39642689D01*
X104670296Y-39631923D01*
X104475770Y-39561815D01*
X104310126Y-39461692D01*
X104175095Y-39334016D01*
X104072408Y-39181254D01*
X104003795Y-39005869D01*
X103970988Y-38810326D01*
X103971935Y-38637750D01*
X104018637Y-38272902D01*
X104101211Y-37930017D01*
X104220440Y-37607374D01*
X104377108Y-37303252D01*
X104571998Y-37015931D01*
X104805895Y-36743688D01*
X104859196Y-36689120D01*
X104956864Y-36594905D01*
X105061571Y-36500062D01*
X105162259Y-36414241D01*
X105247870Y-36347092D01*
X105266294Y-36333883D01*
X105589661Y-36133384D01*
X105928604Y-35971224D01*
X106280085Y-35847849D01*
X106641066Y-35763701D01*
X107008508Y-35719226D01*
X107379373Y-35714869D01*
X107750624Y-35751072D01*
X108119221Y-35828281D01*
X108317527Y-35887656D01*
X108659583Y-36021620D01*
X108978649Y-36187579D01*
X109272711Y-36383254D01*
X109539756Y-36606367D01*
X109777768Y-36854638D01*
X109984734Y-37125788D01*
X110158639Y-37417537D01*
X110297469Y-37727608D01*
X110399211Y-38053721D01*
X110448668Y-38299084D01*
X110463968Y-38436296D01*
X110473021Y-38604008D01*
X110476022Y-38790879D01*
X110473170Y-38985569D01*
X110464659Y-39176737D01*
X110450687Y-39353044D01*
X110431449Y-39503147D01*
X110427399Y-39526750D01*
X110394624Y-39687938D01*
X110351641Y-39869092D01*
X110302746Y-40053793D01*
X110252233Y-40225620D01*
X110215022Y-40338587D01*
X110187207Y-40423074D01*
X110174154Y-40481315D01*
X110174122Y-40526049D01*
X110183954Y-40565798D01*
X110229725Y-40647474D01*
X110297927Y-40700912D01*
X110378853Y-40723426D01*
X110462796Y-40712329D01*
X110540051Y-40664937D01*
X110540559Y-40664459D01*
X110588298Y-40600274D01*
X110637670Y-40499165D01*
X110687365Y-40366438D01*
X110736070Y-40207401D01*
X110782473Y-40027359D01*
X110825263Y-39831620D01*
X110863129Y-39625489D01*
X110894759Y-39414275D01*
X110918841Y-39203282D01*
X110927764Y-39097869D01*
X110938343Y-38697014D01*
X110909725Y-38311847D01*
X110841996Y-37942613D01*
X110735243Y-37589560D01*
X110589553Y-37252937D01*
X110405013Y-36932989D01*
X110181709Y-36629964D01*
X109983481Y-36408401D01*
X109691341Y-36136462D01*
X109376973Y-35899481D01*
X109043007Y-35698155D01*
X108692074Y-35533176D01*
X108326807Y-35405241D01*
X107949836Y-35315043D01*
X107563792Y-35263278D01*
X107171308Y-35250639D01*
X106775014Y-35277821D01*
G37*
X106775014Y-35277821D02*
X106377542Y-35345518D01*
X106161666Y-35399634D01*
X105796852Y-35522712D01*
X105450352Y-35681627D01*
X105124504Y-35873923D01*
X104821645Y-36097144D01*
X104544114Y-36348832D01*
X104294249Y-36626531D01*
X104074388Y-36927784D01*
X103886869Y-37250135D01*
X103734030Y-37591126D01*
X103618209Y-37948302D01*
X103578793Y-38113636D01*
X103553196Y-38261808D01*
X103534569Y-38426284D01*
X103523274Y-38596479D01*
X103519677Y-38761807D01*
X103524138Y-38911683D01*
X103537023Y-39035522D01*
X103545646Y-39079852D01*
X103610396Y-39270142D01*
X103710762Y-39456305D01*
X103840229Y-39630082D01*
X103992283Y-39783212D01*
X104160409Y-39907437D01*
X104229140Y-39946377D01*
X104455681Y-40041327D01*
X104687695Y-40096409D01*
X104920882Y-40112704D01*
X105150943Y-40091291D01*
X105373576Y-40033248D01*
X105584483Y-39939654D01*
X105779362Y-39811590D01*
X105953915Y-39650134D01*
X106088327Y-39479762D01*
X106179675Y-39316615D01*
X106243728Y-39134833D01*
X106283045Y-38926580D01*
X106289945Y-38862740D01*
X106308043Y-38704622D01*
X106331383Y-38578941D01*
X106362995Y-38475859D01*
X106405912Y-38385535D01*
X106463167Y-38298130D01*
X106464504Y-38296311D01*
X106594076Y-38154808D01*
X106748879Y-38043967D01*
X106922688Y-37966117D01*
X107109281Y-37923583D01*
X107302437Y-37918695D01*
X107426691Y-37936411D01*
X107621389Y-37996871D01*
X107791203Y-38089475D01*
X107933432Y-38211596D01*
X108045373Y-38360605D01*
X108124325Y-38533875D01*
X108153728Y-38643442D01*
X108165349Y-38715154D01*
X108170007Y-38791557D01*
X108167771Y-38884234D01*
X108158710Y-39004769D01*
X108156043Y-39033685D01*
X108103525Y-39386116D01*
X108014074Y-39718154D01*
X107887159Y-40030885D01*
X107722247Y-40325400D01*
X107518808Y-40602785D01*
X107276309Y-40864128D01*
X107248392Y-40890842D01*
X107016213Y-41091917D01*
X106775254Y-41261864D01*
X106516701Y-41405847D01*
X106231739Y-41529028D01*
X106048022Y-41593917D01*
X105948244Y-41627833D01*
X105861613Y-41659421D01*
X105796970Y-41685310D01*
X105763156Y-41702129D01*
X105762044Y-41702984D01*
X105733492Y-41739079D01*
X105704566Y-41793311D01*
X105702262Y-41798690D01*
X105686684Y-41886973D01*
X105708683Y-41974033D01*
X105764893Y-42047884D01*
X105774470Y-42055836D01*
X105826184Y-42084082D01*
X105891704Y-42094910D01*
X105976877Y-42087799D01*
X106087545Y-42062225D01*
X106229554Y-42017664D01*
X106239677Y-42014212D01*
X106554749Y-41893158D01*
X106840353Y-41754190D01*
X107107729Y-41591000D01*
X107368118Y-41397284D01*
X107429000Y-41347079D01*
X107701651Y-41091489D01*
X107942526Y-40809893D01*
X108149565Y-40505304D01*
X108320706Y-40180735D01*
X108447971Y-39857210D01*
X108504734Y-39677384D01*
X108546320Y-39521345D01*
X108575387Y-39374486D01*
X108594594Y-39222203D01*
X108606599Y-39049888D01*
X108610215Y-38965834D01*
X108614353Y-38799202D01*
X108611813Y-38664803D01*
X108600953Y-38552834D01*
X108580132Y-38453494D01*
X108547709Y-38356983D01*
X108502041Y-38253500D01*
X108485087Y-38218773D01*
X108368954Y-38030885D01*
X108219119Y-37862421D01*
X108041489Y-37717864D01*
X107841970Y-37601698D01*
X107626469Y-37518405D01*
X107529602Y-37493647D01*
X107296265Y-37463927D01*
X107063794Y-37473711D01*
X106837212Y-37520763D01*
X106621539Y-37602846D01*
X106421795Y-37717726D01*
X106243003Y-37863165D01*
X106090181Y-38036928D01*
X106001344Y-38174226D01*
X105947023Y-38289904D01*
X105900005Y-38425354D01*
X105864837Y-38564339D01*
X105846067Y-38690626D01*
X105844166Y-38735344D01*
X105824568Y-38927233D01*
X105768608Y-39103934D01*
X105680540Y-39262198D01*
X105564618Y-39398777D01*
X105425094Y-39510422D01*
X105266223Y-39593885D01*
X105092257Y-39645916D01*
X104907450Y-39663266D01*
X104716056Y-39642689D01*
X104670296Y-39631923D01*
X104475770Y-39561815D01*
X104310126Y-39461692D01*
X104175095Y-39334016D01*
X104072408Y-39181254D01*
X104003795Y-39005869D01*
X103970988Y-38810326D01*
X103971935Y-38637750D01*
X104018637Y-38272902D01*
X104101211Y-37930017D01*
X104220440Y-37607374D01*
X104377108Y-37303252D01*
X104571998Y-37015931D01*
X104805895Y-36743688D01*
X104859196Y-36689120D01*
X104956864Y-36594905D01*
X105061571Y-36500062D01*
X105162259Y-36414241D01*
X105247870Y-36347092D01*
X105266294Y-36333883D01*
X105589661Y-36133384D01*
X105928604Y-35971224D01*
X106280085Y-35847849D01*
X106641066Y-35763701D01*
X107008508Y-35719226D01*
X107379373Y-35714869D01*
X107750624Y-35751072D01*
X108119221Y-35828281D01*
X108317527Y-35887656D01*
X108659583Y-36021620D01*
X108978649Y-36187579D01*
X109272711Y-36383254D01*
X109539756Y-36606367D01*
X109777768Y-36854638D01*
X109984734Y-37125788D01*
X110158639Y-37417537D01*
X110297469Y-37727608D01*
X110399211Y-38053721D01*
X110448668Y-38299084D01*
X110463968Y-38436296D01*
X110473021Y-38604008D01*
X110476022Y-38790879D01*
X110473170Y-38985569D01*
X110464659Y-39176737D01*
X110450687Y-39353044D01*
X110431449Y-39503147D01*
X110427399Y-39526750D01*
X110394624Y-39687938D01*
X110351641Y-39869092D01*
X110302746Y-40053793D01*
X110252233Y-40225620D01*
X110215022Y-40338587D01*
X110187207Y-40423074D01*
X110174154Y-40481315D01*
X110174122Y-40526049D01*
X110183954Y-40565798D01*
X110229725Y-40647474D01*
X110297927Y-40700912D01*
X110378853Y-40723426D01*
X110462796Y-40712329D01*
X110540051Y-40664937D01*
X110540559Y-40664459D01*
X110588298Y-40600274D01*
X110637670Y-40499165D01*
X110687365Y-40366438D01*
X110736070Y-40207401D01*
X110782473Y-40027359D01*
X110825263Y-39831620D01*
X110863129Y-39625489D01*
X110894759Y-39414275D01*
X110918841Y-39203282D01*
X110927764Y-39097869D01*
X110938343Y-38697014D01*
X110909725Y-38311847D01*
X110841996Y-37942613D01*
X110735243Y-37589560D01*
X110589553Y-37252937D01*
X110405013Y-36932989D01*
X110181709Y-36629964D01*
X109983481Y-36408401D01*
X109691341Y-36136462D01*
X109376973Y-35899481D01*
X109043007Y-35698155D01*
X108692074Y-35533176D01*
X108326807Y-35405241D01*
X107949836Y-35315043D01*
X107563792Y-35263278D01*
X107171308Y-35250639D01*
X106775014Y-35277821D01*
G36*
X106989326Y-36370255D02*
G01*
X106829660Y-36384851D01*
X106769363Y-36393900D01*
X106452788Y-36469414D01*
X106149712Y-36582073D01*
X105864539Y-36729431D01*
X105601672Y-36909042D01*
X105365518Y-37118460D01*
X105260379Y-37231801D01*
X105063510Y-37487917D01*
X104906580Y-37757345D01*
X104788758Y-38041995D01*
X104709215Y-38343779D01*
X104674392Y-38580398D01*
X104664315Y-38686324D01*
X104659821Y-38759858D01*
X104661338Y-38810626D01*
X104669296Y-38848253D01*
X104684124Y-38882366D01*
X104688207Y-38890087D01*
X104749263Y-38965573D01*
X104827477Y-39007705D01*
X104913497Y-39014960D01*
X104997971Y-38985817D01*
X105045955Y-38948315D01*
X105075732Y-38915649D01*
X105095583Y-38882217D01*
X105108571Y-38837583D01*
X105117760Y-38771312D01*
X105126009Y-38675617D01*
X105137211Y-38565972D01*
X105153124Y-38453783D01*
X105170936Y-38357924D01*
X105177535Y-38330025D01*
X105266415Y-38068104D01*
X105391003Y-37824433D01*
X105547776Y-37601354D01*
X105733211Y-37401210D01*
X105943785Y-37226343D01*
X106175973Y-37079098D01*
X106426254Y-36961815D01*
X106691104Y-36876838D01*
X106967000Y-36826510D01*
X107250419Y-36813172D01*
X107439767Y-36825758D01*
X107743663Y-36878004D01*
X108023432Y-36964283D01*
X108281762Y-37085872D01*
X108521342Y-37244050D01*
X108744861Y-37440091D01*
X108755270Y-37450514D01*
X108942402Y-37664493D01*
X109090342Y-37891081D01*
X109200166Y-38132955D01*
X109272951Y-38392796D01*
X109309775Y-38673284D01*
X109315087Y-38843233D01*
X109295520Y-39230938D01*
X109237693Y-39604831D01*
X109141035Y-39966251D01*
X109004971Y-40316539D01*
X108828931Y-40657036D01*
X108612342Y-40989083D01*
X108354631Y-41314020D01*
X108177040Y-41509262D01*
X108090717Y-41605903D01*
X108035650Y-41684745D01*
X108008819Y-41752836D01*
X108007204Y-41817224D01*
X108022095Y-41870949D01*
X108062867Y-41929241D01*
X108128580Y-41979082D01*
X108201950Y-42009001D01*
X108236000Y-42012907D01*
X108294278Y-42002030D01*
X108346105Y-41981094D01*
X108387087Y-41949865D01*
X108448845Y-41891482D01*
X108525939Y-41812031D01*
X108612928Y-41717597D01*
X108704374Y-41614265D01*
X108794837Y-41508123D01*
X108878877Y-41405254D01*
X108951054Y-41311746D01*
X108979600Y-41272380D01*
X109194932Y-40940080D01*
X109378079Y-40600221D01*
X109525902Y-40259139D01*
X109619043Y-39981302D01*
X109671751Y-39770102D01*
X109714953Y-39538793D01*
X109747592Y-39298104D01*
X109768610Y-39058764D01*
X109776949Y-38831503D01*
X109771550Y-38627048D01*
X109762333Y-38528132D01*
X109703651Y-38220448D01*
X109606864Y-37927318D01*
X109474463Y-37651280D01*
X109308936Y-37394875D01*
X109112771Y-37160641D01*
X108888459Y-36951119D01*
X108638487Y-36768848D01*
X108365346Y-36616368D01*
X108071523Y-36496218D01*
X107759507Y-36410938D01*
X107670637Y-36393900D01*
X107524443Y-36375685D01*
X107351983Y-36365672D01*
X107168523Y-36363862D01*
X106989326Y-36370255D01*
G37*
X106989326Y-36370255D02*
X106829660Y-36384851D01*
X106769363Y-36393900D01*
X106452788Y-36469414D01*
X106149712Y-36582073D01*
X105864539Y-36729431D01*
X105601672Y-36909042D01*
X105365518Y-37118460D01*
X105260379Y-37231801D01*
X105063510Y-37487917D01*
X104906580Y-37757345D01*
X104788758Y-38041995D01*
X104709215Y-38343779D01*
X104674392Y-38580398D01*
X104664315Y-38686324D01*
X104659821Y-38759858D01*
X104661338Y-38810626D01*
X104669296Y-38848253D01*
X104684124Y-38882366D01*
X104688207Y-38890087D01*
X104749263Y-38965573D01*
X104827477Y-39007705D01*
X104913497Y-39014960D01*
X104997971Y-38985817D01*
X105045955Y-38948315D01*
X105075732Y-38915649D01*
X105095583Y-38882217D01*
X105108571Y-38837583D01*
X105117760Y-38771312D01*
X105126009Y-38675617D01*
X105137211Y-38565972D01*
X105153124Y-38453783D01*
X105170936Y-38357924D01*
X105177535Y-38330025D01*
X105266415Y-38068104D01*
X105391003Y-37824433D01*
X105547776Y-37601354D01*
X105733211Y-37401210D01*
X105943785Y-37226343D01*
X106175973Y-37079098D01*
X106426254Y-36961815D01*
X106691104Y-36876838D01*
X106967000Y-36826510D01*
X107250419Y-36813172D01*
X107439767Y-36825758D01*
X107743663Y-36878004D01*
X108023432Y-36964283D01*
X108281762Y-37085872D01*
X108521342Y-37244050D01*
X108744861Y-37440091D01*
X108755270Y-37450514D01*
X108942402Y-37664493D01*
X109090342Y-37891081D01*
X109200166Y-38132955D01*
X109272951Y-38392796D01*
X109309775Y-38673284D01*
X109315087Y-38843233D01*
X109295520Y-39230938D01*
X109237693Y-39604831D01*
X109141035Y-39966251D01*
X109004971Y-40316539D01*
X108828931Y-40657036D01*
X108612342Y-40989083D01*
X108354631Y-41314020D01*
X108177040Y-41509262D01*
X108090717Y-41605903D01*
X108035650Y-41684745D01*
X108008819Y-41752836D01*
X108007204Y-41817224D01*
X108022095Y-41870949D01*
X108062867Y-41929241D01*
X108128580Y-41979082D01*
X108201950Y-42009001D01*
X108236000Y-42012907D01*
X108294278Y-42002030D01*
X108346105Y-41981094D01*
X108387087Y-41949865D01*
X108448845Y-41891482D01*
X108525939Y-41812031D01*
X108612928Y-41717597D01*
X108704374Y-41614265D01*
X108794837Y-41508123D01*
X108878877Y-41405254D01*
X108951054Y-41311746D01*
X108979600Y-41272380D01*
X109194932Y-40940080D01*
X109378079Y-40600221D01*
X109525902Y-40259139D01*
X109619043Y-39981302D01*
X109671751Y-39770102D01*
X109714953Y-39538793D01*
X109747592Y-39298104D01*
X109768610Y-39058764D01*
X109776949Y-38831503D01*
X109771550Y-38627048D01*
X109762333Y-38528132D01*
X109703651Y-38220448D01*
X109606864Y-37927318D01*
X109474463Y-37651280D01*
X109308936Y-37394875D01*
X109112771Y-37160641D01*
X108888459Y-36951119D01*
X108638487Y-36768848D01*
X108365346Y-36616368D01*
X108071523Y-36496218D01*
X107759507Y-36410938D01*
X107670637Y-36393900D01*
X107524443Y-36375685D01*
X107351983Y-36365672D01*
X107168523Y-36363862D01*
X106989326Y-36370255D01*
G36*
X107150480Y-38588613D02*
G01*
X107120757Y-38604978D01*
X107064827Y-38657324D01*
X107028832Y-38736551D01*
X107011070Y-38847529D01*
X107008451Y-38926078D01*
X106998395Y-39044506D01*
X106970765Y-39186799D01*
X106929066Y-39340110D01*
X106876800Y-39491591D01*
X106817471Y-39628394D01*
X106816261Y-39630842D01*
X106679419Y-39862344D01*
X106510136Y-40074199D01*
X106313736Y-40261952D01*
X106095544Y-40421152D01*
X105860885Y-40547344D01*
X105615085Y-40636074D01*
X105613935Y-40636389D01*
X105332273Y-40692792D01*
X105036938Y-40712747D01*
X104772217Y-40699557D01*
X104645043Y-40686675D01*
X104552337Y-40678933D01*
X104486542Y-40676388D01*
X104440098Y-40679094D01*
X104405448Y-40687106D01*
X104375033Y-40700482D01*
X104371213Y-40702501D01*
X104324703Y-40744846D01*
X104283894Y-40810178D01*
X104259510Y-40879449D01*
X104256746Y-40905782D01*
X104272604Y-40965453D01*
X104311841Y-41030661D01*
X104362266Y-41083996D01*
X104395735Y-41104231D01*
X104489266Y-41129810D01*
X104615780Y-41149846D01*
X104766214Y-41163711D01*
X104931505Y-41170780D01*
X105102588Y-41170424D01*
X105251500Y-41163419D01*
X105556438Y-41121434D01*
X105848728Y-41041255D01*
X106125621Y-40925655D01*
X106384366Y-40777404D01*
X106622215Y-40599274D01*
X106836417Y-40394035D01*
X107024222Y-40164460D01*
X107182882Y-39913320D01*
X107309647Y-39643385D01*
X107401766Y-39357428D01*
X107456490Y-39058220D01*
X107467631Y-38929807D01*
X107480263Y-38713864D01*
X107405165Y-38638765D01*
X107324523Y-38580129D01*
X107240445Y-38563508D01*
X107150480Y-38588613D01*
G37*
X107150480Y-38588613D02*
X107120757Y-38604978D01*
X107064827Y-38657324D01*
X107028832Y-38736551D01*
X107011070Y-38847529D01*
X107008451Y-38926078D01*
X106998395Y-39044506D01*
X106970765Y-39186799D01*
X106929066Y-39340110D01*
X106876800Y-39491591D01*
X106817471Y-39628394D01*
X106816261Y-39630842D01*
X106679419Y-39862344D01*
X106510136Y-40074199D01*
X106313736Y-40261952D01*
X106095544Y-40421152D01*
X105860885Y-40547344D01*
X105615085Y-40636074D01*
X105613935Y-40636389D01*
X105332273Y-40692792D01*
X105036938Y-40712747D01*
X104772217Y-40699557D01*
X104645043Y-40686675D01*
X104552337Y-40678933D01*
X104486542Y-40676388D01*
X104440098Y-40679094D01*
X104405448Y-40687106D01*
X104375033Y-40700482D01*
X104371213Y-40702501D01*
X104324703Y-40744846D01*
X104283894Y-40810178D01*
X104259510Y-40879449D01*
X104256746Y-40905782D01*
X104272604Y-40965453D01*
X104311841Y-41030661D01*
X104362266Y-41083996D01*
X104395735Y-41104231D01*
X104489266Y-41129810D01*
X104615780Y-41149846D01*
X104766214Y-41163711D01*
X104931505Y-41170780D01*
X105102588Y-41170424D01*
X105251500Y-41163419D01*
X105556438Y-41121434D01*
X105848728Y-41041255D01*
X106125621Y-40925655D01*
X106384366Y-40777404D01*
X106622215Y-40599274D01*
X106836417Y-40394035D01*
X107024222Y-40164460D01*
X107182882Y-39913320D01*
X107309647Y-39643385D01*
X107401766Y-39357428D01*
X107456490Y-39058220D01*
X107467631Y-38929807D01*
X107480263Y-38713864D01*
X107405165Y-38638765D01*
X107324523Y-38580129D01*
X107240445Y-38563508D01*
X107150480Y-38588613D01*
G36*
X106864003Y-34190221D02*
G01*
X106679068Y-34202372D01*
X106585000Y-34212641D01*
X106115429Y-34293251D01*
X105668953Y-34409254D01*
X105245236Y-34560785D01*
X104843943Y-34747978D01*
X104464741Y-34970967D01*
X104168812Y-35181573D01*
X104032104Y-35292494D01*
X103893165Y-35415026D01*
X103755789Y-35544933D01*
X103623765Y-35677983D01*
X103500887Y-35809940D01*
X103390946Y-35936570D01*
X103297733Y-36053640D01*
X103225040Y-36156914D01*
X103176660Y-36242158D01*
X103156383Y-36305139D01*
X103156000Y-36312595D01*
X103174521Y-36396352D01*
X103222782Y-36472958D01*
X103282307Y-36520725D01*
X103350921Y-36547999D01*
X103413263Y-36551738D01*
X103474924Y-36529024D01*
X103541493Y-36476935D01*
X103618561Y-36392551D01*
X103682573Y-36311623D01*
X103811697Y-36153953D01*
X103964482Y-35986260D01*
X104128738Y-35821033D01*
X104292273Y-35670763D01*
X104380468Y-35596609D01*
X104712628Y-35355173D01*
X105067207Y-35147792D01*
X105440963Y-34974850D01*
X105830656Y-34836732D01*
X106233042Y-34733821D01*
X106644883Y-34666503D01*
X107062935Y-34635161D01*
X107483958Y-34640179D01*
X107904711Y-34681943D01*
X108321952Y-34760837D01*
X108732440Y-34877245D01*
X109132934Y-35031550D01*
X109135583Y-35032716D01*
X109467995Y-35199533D01*
X109792343Y-35401981D01*
X110101103Y-35634197D01*
X110386751Y-35890316D01*
X110641761Y-36164475D01*
X110733666Y-36278089D01*
X110813042Y-36379863D01*
X110872483Y-36452791D01*
X110917744Y-36501676D01*
X110954579Y-36531319D01*
X110988743Y-36546523D01*
X111025990Y-36552091D01*
X111062879Y-36552834D01*
X111131913Y-36547585D01*
X111180442Y-36526038D01*
X111222591Y-36487095D01*
X111261904Y-36435433D01*
X111282248Y-36381166D01*
X111281946Y-36320445D01*
X111259323Y-36249423D01*
X111212704Y-36164252D01*
X111140413Y-36061084D01*
X111040776Y-35936072D01*
X110922003Y-35796719D01*
X110618768Y-35479861D01*
X110289119Y-35195983D01*
X109933442Y-34945296D01*
X109552126Y-34728013D01*
X109145556Y-34544344D01*
X108714119Y-34394500D01*
X108258201Y-34278692D01*
X108077250Y-34243409D01*
X107916898Y-34220650D01*
X107725352Y-34203151D01*
X107513450Y-34191135D01*
X107292033Y-34184826D01*
X107071937Y-34184447D01*
X106864003Y-34190221D01*
G37*
X106864003Y-34190221D02*
X106679068Y-34202372D01*
X106585000Y-34212641D01*
X106115429Y-34293251D01*
X105668953Y-34409254D01*
X105245236Y-34560785D01*
X104843943Y-34747978D01*
X104464741Y-34970967D01*
X104168812Y-35181573D01*
X104032104Y-35292494D01*
X103893165Y-35415026D01*
X103755789Y-35544933D01*
X103623765Y-35677983D01*
X103500887Y-35809940D01*
X103390946Y-35936570D01*
X103297733Y-36053640D01*
X103225040Y-36156914D01*
X103176660Y-36242158D01*
X103156383Y-36305139D01*
X103156000Y-36312595D01*
X103174521Y-36396352D01*
X103222782Y-36472958D01*
X103282307Y-36520725D01*
X103350921Y-36547999D01*
X103413263Y-36551738D01*
X103474924Y-36529024D01*
X103541493Y-36476935D01*
X103618561Y-36392551D01*
X103682573Y-36311623D01*
X103811697Y-36153953D01*
X103964482Y-35986260D01*
X104128738Y-35821033D01*
X104292273Y-35670763D01*
X104380468Y-35596609D01*
X104712628Y-35355173D01*
X105067207Y-35147792D01*
X105440963Y-34974850D01*
X105830656Y-34836732D01*
X106233042Y-34733821D01*
X106644883Y-34666503D01*
X107062935Y-34635161D01*
X107483958Y-34640179D01*
X107904711Y-34681943D01*
X108321952Y-34760837D01*
X108732440Y-34877245D01*
X109132934Y-35031550D01*
X109135583Y-35032716D01*
X109467995Y-35199533D01*
X109792343Y-35401981D01*
X110101103Y-35634197D01*
X110386751Y-35890316D01*
X110641761Y-36164475D01*
X110733666Y-36278089D01*
X110813042Y-36379863D01*
X110872483Y-36452791D01*
X110917744Y-36501676D01*
X110954579Y-36531319D01*
X110988743Y-36546523D01*
X111025990Y-36552091D01*
X111062879Y-36552834D01*
X111131913Y-36547585D01*
X111180442Y-36526038D01*
X111222591Y-36487095D01*
X111261904Y-36435433D01*
X111282248Y-36381166D01*
X111281946Y-36320445D01*
X111259323Y-36249423D01*
X111212704Y-36164252D01*
X111140413Y-36061084D01*
X111040776Y-35936072D01*
X110922003Y-35796719D01*
X110618768Y-35479861D01*
X110289119Y-35195983D01*
X109933442Y-34945296D01*
X109552126Y-34728013D01*
X109145556Y-34544344D01*
X108714119Y-34394500D01*
X108258201Y-34278692D01*
X108077250Y-34243409D01*
X107916898Y-34220650D01*
X107725352Y-34203151D01*
X107513450Y-34191135D01*
X107292033Y-34184826D01*
X107071937Y-34184447D01*
X106864003Y-34190221D01*
G36*
X107012165Y-33094101D02*
G01*
X106860989Y-33095184D01*
X106738465Y-33097307D01*
X106637754Y-33100877D01*
X106552016Y-33106299D01*
X106474409Y-33113981D01*
X106398095Y-33124327D01*
X106316232Y-33137743D01*
X106246333Y-33150201D01*
X105856987Y-33234418D01*
X105476260Y-33345293D01*
X105092750Y-33485665D01*
X104891967Y-33568192D01*
X104728723Y-33640463D01*
X104600090Y-33704650D01*
X104503138Y-33762923D01*
X104434941Y-33817456D01*
X104392567Y-33870420D01*
X104373091Y-33923986D01*
X104373581Y-33980328D01*
X104381301Y-34013285D01*
X104424966Y-34098936D01*
X104492279Y-34157456D01*
X104574800Y-34181862D01*
X104585407Y-34182167D01*
X104632954Y-34173119D01*
X104708148Y-34148385D01*
X104800956Y-34111583D01*
X104884177Y-34074462D01*
X105002904Y-34020199D01*
X105135224Y-33961926D01*
X105261266Y-33908308D01*
X105325583Y-33881986D01*
X105742959Y-33737305D01*
X106174350Y-33630802D01*
X106615840Y-33562304D01*
X107063512Y-33531641D01*
X107513449Y-33538643D01*
X107961734Y-33583138D01*
X108404451Y-33664957D01*
X108837682Y-33783928D01*
X109257511Y-33939880D01*
X109529973Y-34065283D01*
X109660212Y-34126795D01*
X109761652Y-34165500D01*
X109840666Y-34182154D01*
X109903627Y-34177511D01*
X109956906Y-34152326D01*
X109994461Y-34120295D01*
X110046875Y-34040431D01*
X110061743Y-33949111D01*
X110038151Y-33856103D01*
X110021968Y-33827014D01*
X109982173Y-33789226D01*
X109907424Y-33741311D01*
X109803234Y-33685573D01*
X109675116Y-33624313D01*
X109528582Y-33559836D01*
X109369147Y-33494442D01*
X109202323Y-33430436D01*
X109033624Y-33370120D01*
X108868562Y-33315796D01*
X108712651Y-33269767D01*
X108644905Y-33251857D01*
X108466987Y-33208154D01*
X108309848Y-33173112D01*
X108165176Y-33145820D01*
X108024662Y-33125370D01*
X107879996Y-33110852D01*
X107722867Y-33101357D01*
X107544965Y-33095976D01*
X107337981Y-33093800D01*
X107198833Y-33093652D01*
X107012165Y-33094101D01*
G37*
X107012165Y-33094101D02*
X106860989Y-33095184D01*
X106738465Y-33097307D01*
X106637754Y-33100877D01*
X106552016Y-33106299D01*
X106474409Y-33113981D01*
X106398095Y-33124327D01*
X106316232Y-33137743D01*
X106246333Y-33150201D01*
X105856987Y-33234418D01*
X105476260Y-33345293D01*
X105092750Y-33485665D01*
X104891967Y-33568192D01*
X104728723Y-33640463D01*
X104600090Y-33704650D01*
X104503138Y-33762923D01*
X104434941Y-33817456D01*
X104392567Y-33870420D01*
X104373091Y-33923986D01*
X104373581Y-33980328D01*
X104381301Y-34013285D01*
X104424966Y-34098936D01*
X104492279Y-34157456D01*
X104574800Y-34181862D01*
X104585407Y-34182167D01*
X104632954Y-34173119D01*
X104708148Y-34148385D01*
X104800956Y-34111583D01*
X104884177Y-34074462D01*
X105002904Y-34020199D01*
X105135224Y-33961926D01*
X105261266Y-33908308D01*
X105325583Y-33881986D01*
X105742959Y-33737305D01*
X106174350Y-33630802D01*
X106615840Y-33562304D01*
X107063512Y-33531641D01*
X107513449Y-33538643D01*
X107961734Y-33583138D01*
X108404451Y-33664957D01*
X108837682Y-33783928D01*
X109257511Y-33939880D01*
X109529973Y-34065283D01*
X109660212Y-34126795D01*
X109761652Y-34165500D01*
X109840666Y-34182154D01*
X109903627Y-34177511D01*
X109956906Y-34152326D01*
X109994461Y-34120295D01*
X110046875Y-34040431D01*
X110061743Y-33949111D01*
X110038151Y-33856103D01*
X110021968Y-33827014D01*
X109982173Y-33789226D01*
X109907424Y-33741311D01*
X109803234Y-33685573D01*
X109675116Y-33624313D01*
X109528582Y-33559836D01*
X109369147Y-33494442D01*
X109202323Y-33430436D01*
X109033624Y-33370120D01*
X108868562Y-33315796D01*
X108712651Y-33269767D01*
X108644905Y-33251857D01*
X108466987Y-33208154D01*
X108309848Y-33173112D01*
X108165176Y-33145820D01*
X108024662Y-33125370D01*
X107879996Y-33110852D01*
X107722867Y-33101357D01*
X107544965Y-33095976D01*
X107337981Y-33093800D01*
X107198833Y-33093652D01*
X107012165Y-33094101D01*
D12*
X97910000Y-30010000D02*
X77690000Y-30010000D01*
X76890000Y-23000000D02*
X77490000Y-22700000D01*
X77690000Y-20530000D02*
X97910000Y-20530000D01*
X77690000Y-30010000D02*
X77690000Y-20530000D01*
X97910000Y-20530000D02*
X97910000Y-30010000D01*
X77490000Y-22700000D02*
X76890000Y-22400000D01*
X76890000Y-22400000D02*
X76890000Y-23000000D01*
D11*
G36*
X71397152Y-68234550D02*
G01*
X71085268Y-68245729D01*
X70748614Y-68275953D01*
X70401153Y-68323185D01*
X70056850Y-68385392D01*
X69729667Y-68460538D01*
X69594678Y-68497192D01*
X69478923Y-68530316D01*
X69478923Y-70070590D01*
X70329354Y-70070590D01*
X70402738Y-69921762D01*
X70556922Y-69650072D01*
X70738229Y-69407933D01*
X70823947Y-69312869D01*
X70955689Y-69184347D01*
X71076759Y-69089512D01*
X71195821Y-69022421D01*
X71307448Y-68981130D01*
X71467321Y-68951037D01*
X71608312Y-68957807D01*
X71727325Y-68999386D01*
X71821265Y-69073719D01*
X71887035Y-69178751D01*
X71921542Y-69312429D01*
X71926104Y-69391717D01*
X71919823Y-69489985D01*
X71899541Y-69582703D01*
X71862618Y-69672381D01*
X71806417Y-69761530D01*
X71728301Y-69852659D01*
X71625631Y-69948278D01*
X71495771Y-70050898D01*
X71336083Y-70163029D01*
X71143928Y-70287181D01*
X70916670Y-70425864D01*
X70713645Y-70545562D01*
X70463901Y-70693372D01*
X70250172Y-70825110D01*
X70068667Y-70943688D01*
X69915598Y-71052014D01*
X69787176Y-71152997D01*
X69679611Y-71249548D01*
X69589114Y-71344574D01*
X69511895Y-71440986D01*
X69471141Y-71499530D01*
X69387446Y-71639835D01*
X69333475Y-71768179D01*
X69304307Y-71899884D01*
X69295039Y-72047828D01*
X69295839Y-72136584D01*
X69302395Y-72203812D01*
X69318629Y-72265291D01*
X69348465Y-72336805D01*
X69386309Y-72414966D01*
X69496842Y-72597579D01*
X69644580Y-72780086D01*
X69822886Y-72957657D01*
X70025122Y-73125465D01*
X70244651Y-73278681D01*
X70474833Y-73412475D01*
X70709032Y-73522020D01*
X70940610Y-73602486D01*
X71058496Y-73631380D01*
X71174223Y-73647961D01*
X71320586Y-73657774D01*
X71484591Y-73660463D01*
X71653245Y-73655671D01*
X71738906Y-73650069D01*
X72030067Y-73622893D01*
X72322546Y-73588164D01*
X72606348Y-73547389D01*
X72871481Y-73502073D01*
X73107951Y-73453723D01*
X73220945Y-73426695D01*
X73458698Y-73366171D01*
X73464492Y-72589301D01*
X73470286Y-71812430D01*
X72637826Y-71812430D01*
X72537790Y-71984597D01*
X72380692Y-72229384D01*
X72214371Y-72440392D01*
X72040951Y-72616253D01*
X71862556Y-72755598D01*
X71681308Y-72857060D01*
X71499332Y-72919270D01*
X71318751Y-72940859D01*
X71141690Y-72920459D01*
X71102054Y-72909793D01*
X70986484Y-72853625D01*
X70893474Y-72765807D01*
X70828142Y-72655187D01*
X70795608Y-72530618D01*
X70800989Y-72400948D01*
X70802811Y-72392387D01*
X70827023Y-72308456D01*
X70862951Y-72233574D01*
X70917281Y-72157572D01*
X70996699Y-72070282D01*
X71048671Y-72018479D01*
X71114863Y-71957297D01*
X71190445Y-71894690D01*
X71279822Y-71827678D01*
X71387397Y-71753279D01*
X71517575Y-71668513D01*
X71674759Y-71570399D01*
X71863354Y-71455957D01*
X72003489Y-71372222D01*
X72223655Y-71239841D01*
X72409674Y-71124548D01*
X72566418Y-71022887D01*
X72698761Y-70931404D01*
X72811575Y-70846641D01*
X72909733Y-70765145D01*
X72998108Y-70683458D01*
X73053866Y-70627322D01*
X73193530Y-70470737D01*
X73296948Y-70326027D01*
X73367463Y-70185641D01*
X73408417Y-70042028D01*
X73423152Y-69887636D01*
X73421377Y-69796997D01*
X73408552Y-69668999D01*
X73382353Y-69563205D01*
X73352469Y-69488755D01*
X73242685Y-69294058D01*
X73094984Y-69100857D01*
X72915411Y-68914070D01*
X72710013Y-68738617D01*
X72484836Y-68579418D01*
X72245928Y-68441391D01*
X71999334Y-68329457D01*
X71871198Y-68283560D01*
X71801471Y-68262926D01*
X71734687Y-68248829D01*
X71659934Y-68240140D01*
X71566302Y-68235732D01*
X71442878Y-68234477D01*
X71397152Y-68234550D01*
G37*
X71397152Y-68234550D02*
X71085268Y-68245729D01*
X70748614Y-68275953D01*
X70401153Y-68323185D01*
X70056850Y-68385392D01*
X69729667Y-68460538D01*
X69594678Y-68497192D01*
X69478923Y-68530316D01*
X69478923Y-70070590D01*
X70329354Y-70070590D01*
X70402738Y-69921762D01*
X70556922Y-69650072D01*
X70738229Y-69407933D01*
X70823947Y-69312869D01*
X70955689Y-69184347D01*
X71076759Y-69089512D01*
X71195821Y-69022421D01*
X71307448Y-68981130D01*
X71467321Y-68951037D01*
X71608312Y-68957807D01*
X71727325Y-68999386D01*
X71821265Y-69073719D01*
X71887035Y-69178751D01*
X71921542Y-69312429D01*
X71926104Y-69391717D01*
X71919823Y-69489985D01*
X71899541Y-69582703D01*
X71862618Y-69672381D01*
X71806417Y-69761530D01*
X71728301Y-69852659D01*
X71625631Y-69948278D01*
X71495771Y-70050898D01*
X71336083Y-70163029D01*
X71143928Y-70287181D01*
X70916670Y-70425864D01*
X70713645Y-70545562D01*
X70463901Y-70693372D01*
X70250172Y-70825110D01*
X70068667Y-70943688D01*
X69915598Y-71052014D01*
X69787176Y-71152997D01*
X69679611Y-71249548D01*
X69589114Y-71344574D01*
X69511895Y-71440986D01*
X69471141Y-71499530D01*
X69387446Y-71639835D01*
X69333475Y-71768179D01*
X69304307Y-71899884D01*
X69295039Y-72047828D01*
X69295839Y-72136584D01*
X69302395Y-72203812D01*
X69318629Y-72265291D01*
X69348465Y-72336805D01*
X69386309Y-72414966D01*
X69496842Y-72597579D01*
X69644580Y-72780086D01*
X69822886Y-72957657D01*
X70025122Y-73125465D01*
X70244651Y-73278681D01*
X70474833Y-73412475D01*
X70709032Y-73522020D01*
X70940610Y-73602486D01*
X71058496Y-73631380D01*
X71174223Y-73647961D01*
X71320586Y-73657774D01*
X71484591Y-73660463D01*
X71653245Y-73655671D01*
X71738906Y-73650069D01*
X72030067Y-73622893D01*
X72322546Y-73588164D01*
X72606348Y-73547389D01*
X72871481Y-73502073D01*
X73107951Y-73453723D01*
X73220945Y-73426695D01*
X73458698Y-73366171D01*
X73464492Y-72589301D01*
X73470286Y-71812430D01*
X72637826Y-71812430D01*
X72537790Y-71984597D01*
X72380692Y-72229384D01*
X72214371Y-72440392D01*
X72040951Y-72616253D01*
X71862556Y-72755598D01*
X71681308Y-72857060D01*
X71499332Y-72919270D01*
X71318751Y-72940859D01*
X71141690Y-72920459D01*
X71102054Y-72909793D01*
X70986484Y-72853625D01*
X70893474Y-72765807D01*
X70828142Y-72655187D01*
X70795608Y-72530618D01*
X70800989Y-72400948D01*
X70802811Y-72392387D01*
X70827023Y-72308456D01*
X70862951Y-72233574D01*
X70917281Y-72157572D01*
X70996699Y-72070282D01*
X71048671Y-72018479D01*
X71114863Y-71957297D01*
X71190445Y-71894690D01*
X71279822Y-71827678D01*
X71387397Y-71753279D01*
X71517575Y-71668513D01*
X71674759Y-71570399D01*
X71863354Y-71455957D01*
X72003489Y-71372222D01*
X72223655Y-71239841D01*
X72409674Y-71124548D01*
X72566418Y-71022887D01*
X72698761Y-70931404D01*
X72811575Y-70846641D01*
X72909733Y-70765145D01*
X72998108Y-70683458D01*
X73053866Y-70627322D01*
X73193530Y-70470737D01*
X73296948Y-70326027D01*
X73367463Y-70185641D01*
X73408417Y-70042028D01*
X73423152Y-69887636D01*
X73421377Y-69796997D01*
X73408552Y-69668999D01*
X73382353Y-69563205D01*
X73352469Y-69488755D01*
X73242685Y-69294058D01*
X73094984Y-69100857D01*
X72915411Y-68914070D01*
X72710013Y-68738617D01*
X72484836Y-68579418D01*
X72245928Y-68441391D01*
X71999334Y-68329457D01*
X71871198Y-68283560D01*
X71801471Y-68262926D01*
X71734687Y-68248829D01*
X71659934Y-68240140D01*
X71566302Y-68235732D01*
X71442878Y-68234477D01*
X71397152Y-68234550D01*
G36*
X67053576Y-70158784D02*
G01*
X65885000Y-70158784D01*
X65885000Y-70687951D01*
X67053576Y-70687951D01*
X67053576Y-71566635D01*
X67053533Y-71786442D01*
X67053251Y-71966526D01*
X67052503Y-72111259D01*
X67051061Y-72225016D01*
X67048695Y-72312170D01*
X67045178Y-72377093D01*
X67040283Y-72424161D01*
X67033780Y-72457746D01*
X67025441Y-72482222D01*
X67015039Y-72501962D01*
X67003892Y-72519045D01*
X66935587Y-72595895D01*
X66846085Y-72649328D01*
X66726058Y-72684404D01*
X66685708Y-72691625D01*
X66502192Y-72700870D01*
X66299139Y-72673666D01*
X66131066Y-72627799D01*
X66056913Y-72605334D01*
X65998865Y-72591322D01*
X65970335Y-72588760D01*
X65954619Y-72609938D01*
X65926634Y-72661142D01*
X65891337Y-72731803D01*
X65853682Y-72811353D01*
X65818627Y-72889223D01*
X65791128Y-72954845D01*
X65776140Y-72997652D01*
X65774757Y-73005799D01*
X65791269Y-73023775D01*
X65837242Y-73064354D01*
X65907330Y-73123065D01*
X65996190Y-73195434D01*
X66098475Y-73276991D01*
X66105428Y-73282477D01*
X66223590Y-73375618D01*
X66316359Y-73446014D01*
X66393092Y-73497093D01*
X66463146Y-73532280D01*
X66535876Y-73555000D01*
X66620640Y-73568681D01*
X66726794Y-73576749D01*
X66863695Y-73582629D01*
X66932309Y-73585258D01*
X67133509Y-73588758D01*
X67300737Y-73581784D01*
X67428625Y-73566428D01*
X67662991Y-73513029D01*
X67861319Y-73435108D01*
X68025112Y-73331275D01*
X68155873Y-73200141D01*
X68255106Y-73040317D01*
X68324316Y-72850414D01*
X68353666Y-72711718D01*
X68358740Y-72658100D01*
X68363375Y-72565406D01*
X68367465Y-72438656D01*
X68370905Y-72282872D01*
X68373590Y-72103074D01*
X68375414Y-71904281D01*
X68376273Y-71691515D01*
X68376326Y-71630529D01*
X68376493Y-70687951D01*
X69082048Y-70687951D01*
X69082048Y-70277774D01*
X67578780Y-68703576D01*
X67053576Y-68703576D01*
X67053576Y-70158784D01*
G37*
X67053576Y-70158784D02*
X65885000Y-70158784D01*
X65885000Y-70687951D01*
X67053576Y-70687951D01*
X67053576Y-71566635D01*
X67053533Y-71786442D01*
X67053251Y-71966526D01*
X67052503Y-72111259D01*
X67051061Y-72225016D01*
X67048695Y-72312170D01*
X67045178Y-72377093D01*
X67040283Y-72424161D01*
X67033780Y-72457746D01*
X67025441Y-72482222D01*
X67015039Y-72501962D01*
X67003892Y-72519045D01*
X66935587Y-72595895D01*
X66846085Y-72649328D01*
X66726058Y-72684404D01*
X66685708Y-72691625D01*
X66502192Y-72700870D01*
X66299139Y-72673666D01*
X66131066Y-72627799D01*
X66056913Y-72605334D01*
X65998865Y-72591322D01*
X65970335Y-72588760D01*
X65954619Y-72609938D01*
X65926634Y-72661142D01*
X65891337Y-72731803D01*
X65853682Y-72811353D01*
X65818627Y-72889223D01*
X65791128Y-72954845D01*
X65776140Y-72997652D01*
X65774757Y-73005799D01*
X65791269Y-73023775D01*
X65837242Y-73064354D01*
X65907330Y-73123065D01*
X65996190Y-73195434D01*
X66098475Y-73276991D01*
X66105428Y-73282477D01*
X66223590Y-73375618D01*
X66316359Y-73446014D01*
X66393092Y-73497093D01*
X66463146Y-73532280D01*
X66535876Y-73555000D01*
X66620640Y-73568681D01*
X66726794Y-73576749D01*
X66863695Y-73582629D01*
X66932309Y-73585258D01*
X67133509Y-73588758D01*
X67300737Y-73581784D01*
X67428625Y-73566428D01*
X67662991Y-73513029D01*
X67861319Y-73435108D01*
X68025112Y-73331275D01*
X68155873Y-73200141D01*
X68255106Y-73040317D01*
X68324316Y-72850414D01*
X68353666Y-72711718D01*
X68358740Y-72658100D01*
X68363375Y-72565406D01*
X68367465Y-72438656D01*
X68370905Y-72282872D01*
X68373590Y-72103074D01*
X68375414Y-71904281D01*
X68376273Y-71691515D01*
X68376326Y-71630529D01*
X68376493Y-70687951D01*
X69082048Y-70687951D01*
X69082048Y-70277774D01*
X67578780Y-68703576D01*
X67053576Y-68703576D01*
X67053576Y-70158784D01*
G36*
X63196934Y-69906176D02*
G01*
X63042493Y-69923940D01*
X63037102Y-69924814D01*
X62760917Y-69987163D01*
X62516874Y-70077933D01*
X62305654Y-70196615D01*
X62127942Y-70342699D01*
X61984418Y-70515677D01*
X61875768Y-70715040D01*
X61836108Y-70820243D01*
X61826067Y-70855009D01*
X61817674Y-70895643D01*
X61810706Y-70946606D01*
X61804942Y-71012358D01*
X61800160Y-71097358D01*
X61796138Y-71206068D01*
X61792653Y-71342948D01*
X61789486Y-71512458D01*
X61786412Y-71719058D01*
X61784615Y-71855318D01*
X61772934Y-72769127D01*
X61541423Y-72862829D01*
X61441732Y-72902963D01*
X61351445Y-72938924D01*
X61281808Y-72966255D01*
X61248645Y-72978867D01*
X61187377Y-73001203D01*
X61320607Y-73266981D01*
X61453837Y-73532758D01*
X62274844Y-73526978D01*
X63095850Y-73521198D01*
X63099725Y-73260090D01*
X63102101Y-73157369D01*
X63105689Y-73071749D01*
X63110000Y-73012288D01*
X63114452Y-72988128D01*
X63134201Y-72997845D01*
X63183156Y-73031201D01*
X63256052Y-73084338D01*
X63347623Y-73153393D01*
X63452606Y-73234507D01*
X63483894Y-73259016D01*
X63616440Y-73361889D01*
X63720918Y-73439721D01*
X63802785Y-73496120D01*
X63867498Y-73534695D01*
X63920513Y-73559053D01*
X63953529Y-73569563D01*
X64095806Y-73591387D01*
X64270247Y-73592540D01*
X64470044Y-73572980D01*
X64471538Y-73572767D01*
X64701935Y-73521192D01*
X64903339Y-73437137D01*
X65074606Y-73321712D01*
X65214593Y-73176027D01*
X65322156Y-73001190D01*
X65396152Y-72798311D01*
X65426534Y-72646167D01*
X65436466Y-72442511D01*
X65406416Y-72248200D01*
X65394578Y-72216938D01*
X64157312Y-72216938D01*
X64141368Y-72315799D01*
X64091234Y-72400417D01*
X64010761Y-72460562D01*
X64003691Y-72463765D01*
X63918142Y-72486057D01*
X63805007Y-72494897D01*
X63678578Y-72490655D01*
X63553146Y-72473701D01*
X63458258Y-72449659D01*
X63357047Y-72413155D01*
X63262376Y-72373206D01*
X63182975Y-72334125D01*
X63127577Y-72300223D01*
X63104911Y-72275814D01*
X63104808Y-72275080D01*
X63102959Y-72241778D01*
X63100567Y-72181280D01*
X63099295Y-72143159D01*
X63095850Y-72032916D01*
X64101312Y-72032916D01*
X64135220Y-72114068D01*
X64157312Y-72216938D01*
X65394578Y-72216938D01*
X65335372Y-72060594D01*
X65222320Y-71877056D01*
X65066249Y-71694949D01*
X65058274Y-71686821D01*
X64877657Y-71503750D01*
X63106875Y-71503750D01*
X63106875Y-71441532D01*
X63127779Y-71313930D01*
X63186068Y-71191806D01*
X63275110Y-71083266D01*
X63388271Y-70996415D01*
X63517508Y-70939767D01*
X63657104Y-70914817D01*
X63829581Y-70911864D01*
X64035983Y-70931038D01*
X64277358Y-70972471D01*
X64554751Y-71036294D01*
X64788566Y-71099361D01*
X64892894Y-71128268D01*
X64980736Y-71151191D01*
X65044086Y-71166147D01*
X65074941Y-71171155D01*
X65076594Y-71170699D01*
X65088294Y-71147040D01*
X65112658Y-71093451D01*
X65145003Y-71020544D01*
X65180647Y-70938931D01*
X65214905Y-70859224D01*
X65233689Y-70814718D01*
X65266641Y-70735852D01*
X64832881Y-70386684D01*
X64710899Y-70289373D01*
X64597074Y-70200227D01*
X64496868Y-70123392D01*
X64415739Y-70063012D01*
X64359147Y-70023233D01*
X64335896Y-70009326D01*
X64231195Y-69974394D01*
X64091871Y-69945199D01*
X63927095Y-69922338D01*
X63746041Y-69906409D01*
X63557881Y-69898007D01*
X63371788Y-69897731D01*
X63196934Y-69906176D01*
G37*
X63196934Y-69906176D02*
X63042493Y-69923940D01*
X63037102Y-69924814D01*
X62760917Y-69987163D01*
X62516874Y-70077933D01*
X62305654Y-70196615D01*
X62127942Y-70342699D01*
X61984418Y-70515677D01*
X61875768Y-70715040D01*
X61836108Y-70820243D01*
X61826067Y-70855009D01*
X61817674Y-70895643D01*
X61810706Y-70946606D01*
X61804942Y-71012358D01*
X61800160Y-71097358D01*
X61796138Y-71206068D01*
X61792653Y-71342948D01*
X61789486Y-71512458D01*
X61786412Y-71719058D01*
X61784615Y-71855318D01*
X61772934Y-72769127D01*
X61541423Y-72862829D01*
X61441732Y-72902963D01*
X61351445Y-72938924D01*
X61281808Y-72966255D01*
X61248645Y-72978867D01*
X61187377Y-73001203D01*
X61320607Y-73266981D01*
X61453837Y-73532758D01*
X62274844Y-73526978D01*
X63095850Y-73521198D01*
X63099725Y-73260090D01*
X63102101Y-73157369D01*
X63105689Y-73071749D01*
X63110000Y-73012288D01*
X63114452Y-72988128D01*
X63134201Y-72997845D01*
X63183156Y-73031201D01*
X63256052Y-73084338D01*
X63347623Y-73153393D01*
X63452606Y-73234507D01*
X63483894Y-73259016D01*
X63616440Y-73361889D01*
X63720918Y-73439721D01*
X63802785Y-73496120D01*
X63867498Y-73534695D01*
X63920513Y-73559053D01*
X63953529Y-73569563D01*
X64095806Y-73591387D01*
X64270247Y-73592540D01*
X64470044Y-73572980D01*
X64471538Y-73572767D01*
X64701935Y-73521192D01*
X64903339Y-73437137D01*
X65074606Y-73321712D01*
X65214593Y-73176027D01*
X65322156Y-73001190D01*
X65396152Y-72798311D01*
X65426534Y-72646167D01*
X65436466Y-72442511D01*
X65406416Y-72248200D01*
X65394578Y-72216938D01*
X64157312Y-72216938D01*
X64141368Y-72315799D01*
X64091234Y-72400417D01*
X64010761Y-72460562D01*
X64003691Y-72463765D01*
X63918142Y-72486057D01*
X63805007Y-72494897D01*
X63678578Y-72490655D01*
X63553146Y-72473701D01*
X63458258Y-72449659D01*
X63357047Y-72413155D01*
X63262376Y-72373206D01*
X63182975Y-72334125D01*
X63127577Y-72300223D01*
X63104911Y-72275814D01*
X63104808Y-72275080D01*
X63102959Y-72241778D01*
X63100567Y-72181280D01*
X63099295Y-72143159D01*
X63095850Y-72032916D01*
X64101312Y-72032916D01*
X64135220Y-72114068D01*
X64157312Y-72216938D01*
X65394578Y-72216938D01*
X65335372Y-72060594D01*
X65222320Y-71877056D01*
X65066249Y-71694949D01*
X65058274Y-71686821D01*
X64877657Y-71503750D01*
X63106875Y-71503750D01*
X63106875Y-71441532D01*
X63127779Y-71313930D01*
X63186068Y-71191806D01*
X63275110Y-71083266D01*
X63388271Y-70996415D01*
X63517508Y-70939767D01*
X63657104Y-70914817D01*
X63829581Y-70911864D01*
X64035983Y-70931038D01*
X64277358Y-70972471D01*
X64554751Y-71036294D01*
X64788566Y-71099361D01*
X64892894Y-71128268D01*
X64980736Y-71151191D01*
X65044086Y-71166147D01*
X65074941Y-71171155D01*
X65076594Y-71170699D01*
X65088294Y-71147040D01*
X65112658Y-71093451D01*
X65145003Y-71020544D01*
X65180647Y-70938931D01*
X65214905Y-70859224D01*
X65233689Y-70814718D01*
X65266641Y-70735852D01*
X64832881Y-70386684D01*
X64710899Y-70289373D01*
X64597074Y-70200227D01*
X64496868Y-70123392D01*
X64415739Y-70063012D01*
X64359147Y-70023233D01*
X64335896Y-70009326D01*
X64231195Y-69974394D01*
X64091871Y-69945199D01*
X63927095Y-69922338D01*
X63746041Y-69906409D01*
X63557881Y-69898007D01*
X63371788Y-69897731D01*
X63196934Y-69906176D01*
G36*
X59390103Y-67782261D02*
G01*
X59149149Y-67788559D01*
X59143544Y-70303627D01*
X59137939Y-72818696D01*
X58867936Y-72902193D01*
X58764679Y-72934953D01*
X58676725Y-72964417D01*
X58612698Y-72987582D01*
X58581220Y-73001450D01*
X58580012Y-73002372D01*
X58582593Y-73027204D01*
X58602382Y-73083279D01*
X58636218Y-73162730D01*
X58680941Y-73257688D01*
X58689812Y-73275638D01*
X58817532Y-73532222D01*
X59926611Y-73532222D01*
X60183953Y-73532032D01*
X60400420Y-73531407D01*
X60579233Y-73530262D01*
X60723613Y-73528514D01*
X60836781Y-73526079D01*
X60921957Y-73522872D01*
X60982363Y-73518810D01*
X61021219Y-73513808D01*
X61041747Y-73507783D01*
X61046900Y-73503007D01*
X61051163Y-73469143D01*
X61053238Y-73402747D01*
X61052889Y-73315340D01*
X61051720Y-73266970D01*
X61045329Y-73060147D01*
X60462841Y-72551059D01*
X60461041Y-69215619D01*
X60759418Y-69023219D01*
X61057794Y-68830819D01*
X61051562Y-68599995D01*
X61045329Y-68369170D01*
X60604357Y-68182730D01*
X60452966Y-68118843D01*
X60295298Y-68052514D01*
X60142958Y-67988612D01*
X60007551Y-67932005D01*
X59900679Y-67887558D01*
X59897221Y-67886127D01*
X59631058Y-67775963D01*
X59390103Y-67782261D01*
G37*
X59390103Y-67782261D02*
X59149149Y-67788559D01*
X59143544Y-70303627D01*
X59137939Y-72818696D01*
X58867936Y-72902193D01*
X58764679Y-72934953D01*
X58676725Y-72964417D01*
X58612698Y-72987582D01*
X58581220Y-73001450D01*
X58580012Y-73002372D01*
X58582593Y-73027204D01*
X58602382Y-73083279D01*
X58636218Y-73162730D01*
X58680941Y-73257688D01*
X58689812Y-73275638D01*
X58817532Y-73532222D01*
X59926611Y-73532222D01*
X60183953Y-73532032D01*
X60400420Y-73531407D01*
X60579233Y-73530262D01*
X60723613Y-73528514D01*
X60836781Y-73526079D01*
X60921957Y-73522872D01*
X60982363Y-73518810D01*
X61021219Y-73513808D01*
X61041747Y-73507783D01*
X61046900Y-73503007D01*
X61051163Y-73469143D01*
X61053238Y-73402747D01*
X61052889Y-73315340D01*
X61051720Y-73266970D01*
X61045329Y-73060147D01*
X60462841Y-72551059D01*
X60461041Y-69215619D01*
X60759418Y-69023219D01*
X61057794Y-68830819D01*
X61051562Y-68599995D01*
X61045329Y-68369170D01*
X60604357Y-68182730D01*
X60452966Y-68118843D01*
X60295298Y-68052514D01*
X60142958Y-67988612D01*
X60007551Y-67932005D01*
X59900679Y-67887558D01*
X59897221Y-67886127D01*
X59631058Y-67775963D01*
X59390103Y-67782261D01*
G36*
X56361714Y-70197369D02*
G01*
X56363429Y-70434392D01*
X56988348Y-70929697D01*
X57152461Y-71060018D01*
X57284977Y-71166008D01*
X57389042Y-71250495D01*
X57467802Y-71316303D01*
X57524402Y-71366260D01*
X57561990Y-71403191D01*
X57583710Y-71429923D01*
X57592710Y-71449282D01*
X57592134Y-71464094D01*
X57589664Y-71469888D01*
X57573165Y-71499187D01*
X57537749Y-71560733D01*
X57486796Y-71648732D01*
X57423688Y-71757388D01*
X57351808Y-71880907D01*
X57274536Y-72013493D01*
X57195256Y-72149351D01*
X57117348Y-72282687D01*
X57044195Y-72407704D01*
X56979178Y-72518607D01*
X56925679Y-72609602D01*
X56887080Y-72674894D01*
X56866763Y-72708687D01*
X56866528Y-72709063D01*
X56836439Y-72731979D01*
X56771107Y-72765866D01*
X56677095Y-72807673D01*
X56560967Y-72854350D01*
X56522427Y-72868985D01*
X56411719Y-72911344D01*
X56316222Y-72949516D01*
X56243340Y-72980414D01*
X56200477Y-73000948D01*
X56192417Y-73006644D01*
X56197724Y-73032035D01*
X56220302Y-73088303D01*
X56256638Y-73167431D01*
X56303218Y-73261404D01*
X56309179Y-73273005D01*
X56437170Y-73521198D01*
X57190205Y-73526997D01*
X57943241Y-73532796D01*
X58241688Y-72986806D01*
X58331820Y-72822051D01*
X58426584Y-72649075D01*
X58520528Y-72477808D01*
X58608205Y-72318180D01*
X58684163Y-72180121D01*
X58728861Y-72099062D01*
X58917588Y-71757309D01*
X58856980Y-71706939D01*
X58823857Y-71680525D01*
X58760887Y-71631335D01*
X58673252Y-71563378D01*
X58566136Y-71480662D01*
X58444720Y-71387197D01*
X58314187Y-71286992D01*
X58304666Y-71279693D01*
X57812960Y-70902818D01*
X58029058Y-70799995D01*
X58150749Y-70742656D01*
X58288914Y-70678417D01*
X58419919Y-70618245D01*
X58462622Y-70598855D01*
X58552267Y-70556520D01*
X58625907Y-70518341D01*
X58674757Y-70489084D01*
X58690037Y-70475434D01*
X58684451Y-70447112D01*
X58661971Y-70388138D01*
X58626123Y-70306945D01*
X58580433Y-70211966D01*
X58577117Y-70205338D01*
X58454249Y-69960347D01*
X56360000Y-69960347D01*
X56361714Y-70197369D01*
G37*
X56361714Y-70197369D02*
X56363429Y-70434392D01*
X56988348Y-70929697D01*
X57152461Y-71060018D01*
X57284977Y-71166008D01*
X57389042Y-71250495D01*
X57467802Y-71316303D01*
X57524402Y-71366260D01*
X57561990Y-71403191D01*
X57583710Y-71429923D01*
X57592710Y-71449282D01*
X57592134Y-71464094D01*
X57589664Y-71469888D01*
X57573165Y-71499187D01*
X57537749Y-71560733D01*
X57486796Y-71648732D01*
X57423688Y-71757388D01*
X57351808Y-71880907D01*
X57274536Y-72013493D01*
X57195256Y-72149351D01*
X57117348Y-72282687D01*
X57044195Y-72407704D01*
X56979178Y-72518607D01*
X56925679Y-72609602D01*
X56887080Y-72674894D01*
X56866763Y-72708687D01*
X56866528Y-72709063D01*
X56836439Y-72731979D01*
X56771107Y-72765866D01*
X56677095Y-72807673D01*
X56560967Y-72854350D01*
X56522427Y-72868985D01*
X56411719Y-72911344D01*
X56316222Y-72949516D01*
X56243340Y-72980414D01*
X56200477Y-73000948D01*
X56192417Y-73006644D01*
X56197724Y-73032035D01*
X56220302Y-73088303D01*
X56256638Y-73167431D01*
X56303218Y-73261404D01*
X56309179Y-73273005D01*
X56437170Y-73521198D01*
X57190205Y-73526997D01*
X57943241Y-73532796D01*
X58241688Y-72986806D01*
X58331820Y-72822051D01*
X58426584Y-72649075D01*
X58520528Y-72477808D01*
X58608205Y-72318180D01*
X58684163Y-72180121D01*
X58728861Y-72099062D01*
X58917588Y-71757309D01*
X58856980Y-71706939D01*
X58823857Y-71680525D01*
X58760887Y-71631335D01*
X58673252Y-71563378D01*
X58566136Y-71480662D01*
X58444720Y-71387197D01*
X58314187Y-71286992D01*
X58304666Y-71279693D01*
X57812960Y-70902818D01*
X58029058Y-70799995D01*
X58150749Y-70742656D01*
X58288914Y-70678417D01*
X58419919Y-70618245D01*
X58462622Y-70598855D01*
X58552267Y-70556520D01*
X58625907Y-70518341D01*
X58674757Y-70489084D01*
X58690037Y-70475434D01*
X58684451Y-70447112D01*
X58661971Y-70388138D01*
X58626123Y-70306945D01*
X58580433Y-70211966D01*
X58577117Y-70205338D01*
X58454249Y-69960347D01*
X56360000Y-69960347D01*
X56361714Y-70197369D01*
G36*
X55092751Y-69965568D02*
G01*
X54365096Y-69971371D01*
X53923876Y-70560635D01*
X53818461Y-70701006D01*
X53721419Y-70829436D01*
X53635897Y-70941820D01*
X53565044Y-71034052D01*
X53512008Y-71102027D01*
X53479939Y-71141641D01*
X53471632Y-71150299D01*
X53452388Y-71136218D01*
X53407314Y-71097338D01*
X53342612Y-71039170D01*
X53264481Y-70967222D01*
X53242042Y-70946293D01*
X53023477Y-70741886D01*
X53302676Y-70612015D01*
X53403236Y-70564760D01*
X53487707Y-70524153D01*
X53548903Y-70493719D01*
X53579640Y-70476984D01*
X53581875Y-70475047D01*
X53572616Y-70453788D01*
X53547305Y-70400734D01*
X53509637Y-70323516D01*
X53463307Y-70229769D01*
X53455539Y-70214149D01*
X53329203Y-69960347D01*
X51751840Y-69960347D01*
X51751840Y-70418455D01*
X51966814Y-70603827D01*
X52042465Y-70669058D01*
X52144423Y-70756968D01*
X52265595Y-70861443D01*
X52398888Y-70976366D01*
X52537210Y-71095623D01*
X52659950Y-71201444D01*
X52783176Y-71307946D01*
X52895346Y-71405394D01*
X52992148Y-71490005D01*
X53069272Y-71557992D01*
X53122408Y-71605570D01*
X53147245Y-71628955D01*
X53148429Y-71630381D01*
X53138268Y-71651576D01*
X53104364Y-71702790D01*
X53050126Y-71779301D01*
X52978966Y-71876383D01*
X52894295Y-71989313D01*
X52802049Y-72110090D01*
X52445354Y-72573107D01*
X52082104Y-72777042D01*
X51967149Y-72841359D01*
X51865121Y-72898025D01*
X51782351Y-72943557D01*
X51725174Y-72974472D01*
X51699920Y-72987286D01*
X51699761Y-72987342D01*
X51702091Y-73008134D01*
X51721696Y-73060770D01*
X51755514Y-73137964D01*
X51800481Y-73232433D01*
X51815643Y-73262964D01*
X51950617Y-73532222D01*
X53381512Y-73532222D01*
X53813981Y-72925885D01*
X53916877Y-72782229D01*
X54011901Y-72650722D01*
X54095990Y-72535518D01*
X54166079Y-72440766D01*
X54219103Y-72370618D01*
X54251999Y-72329225D01*
X54261595Y-72319548D01*
X54281711Y-72333317D01*
X54327184Y-72370385D01*
X54390734Y-72424400D01*
X54465082Y-72489007D01*
X54542947Y-72557851D01*
X54617050Y-72624579D01*
X54680112Y-72682835D01*
X54705029Y-72706609D01*
X54712963Y-72721128D01*
X54703770Y-72738224D01*
X54672346Y-72761251D01*
X54613587Y-72793563D01*
X54522389Y-72838515D01*
X54456982Y-72869639D01*
X54356380Y-72917952D01*
X54271830Y-72960012D01*
X54210491Y-72992146D01*
X54179525Y-73010677D01*
X54177187Y-73013249D01*
X54186473Y-73036170D01*
X54211854Y-73090696D01*
X54249618Y-73169034D01*
X54296053Y-73263392D01*
X54303523Y-73278420D01*
X54429859Y-73532222D01*
X56007222Y-73532222D01*
X56007222Y-73072108D01*
X55615859Y-72733035D01*
X55479448Y-72614928D01*
X55330625Y-72486207D01*
X55180528Y-72356496D01*
X55040296Y-72235422D01*
X54921066Y-72132607D01*
X54910215Y-72123260D01*
X54595935Y-71852558D01*
X54637988Y-71793909D01*
X54662465Y-71761050D01*
X54709845Y-71698571D01*
X54776087Y-71611758D01*
X54857150Y-71505898D01*
X54948991Y-71386277D01*
X55041732Y-71265762D01*
X55403422Y-70796264D01*
X55732883Y-70641047D01*
X55843136Y-70588902D01*
X55938527Y-70543402D01*
X56012301Y-70507799D01*
X56057697Y-70485350D01*
X56068996Y-70479182D01*
X56062237Y-70458148D01*
X56039026Y-70405322D01*
X56002834Y-70328254D01*
X55957132Y-70234491D01*
X55948028Y-70216149D01*
X55820407Y-69959765D01*
X55092751Y-69965568D01*
G37*
X55092751Y-69965568D02*
X54365096Y-69971371D01*
X53923876Y-70560635D01*
X53818461Y-70701006D01*
X53721419Y-70829436D01*
X53635897Y-70941820D01*
X53565044Y-71034052D01*
X53512008Y-71102027D01*
X53479939Y-71141641D01*
X53471632Y-71150299D01*
X53452388Y-71136218D01*
X53407314Y-71097338D01*
X53342612Y-71039170D01*
X53264481Y-70967222D01*
X53242042Y-70946293D01*
X53023477Y-70741886D01*
X53302676Y-70612015D01*
X53403236Y-70564760D01*
X53487707Y-70524153D01*
X53548903Y-70493719D01*
X53579640Y-70476984D01*
X53581875Y-70475047D01*
X53572616Y-70453788D01*
X53547305Y-70400734D01*
X53509637Y-70323516D01*
X53463307Y-70229769D01*
X53455539Y-70214149D01*
X53329203Y-69960347D01*
X51751840Y-69960347D01*
X51751840Y-70418455D01*
X51966814Y-70603827D01*
X52042465Y-70669058D01*
X52144423Y-70756968D01*
X52265595Y-70861443D01*
X52398888Y-70976366D01*
X52537210Y-71095623D01*
X52659950Y-71201444D01*
X52783176Y-71307946D01*
X52895346Y-71405394D01*
X52992148Y-71490005D01*
X53069272Y-71557992D01*
X53122408Y-71605570D01*
X53147245Y-71628955D01*
X53148429Y-71630381D01*
X53138268Y-71651576D01*
X53104364Y-71702790D01*
X53050126Y-71779301D01*
X52978966Y-71876383D01*
X52894295Y-71989313D01*
X52802049Y-72110090D01*
X52445354Y-72573107D01*
X52082104Y-72777042D01*
X51967149Y-72841359D01*
X51865121Y-72898025D01*
X51782351Y-72943557D01*
X51725174Y-72974472D01*
X51699920Y-72987286D01*
X51699761Y-72987342D01*
X51702091Y-73008134D01*
X51721696Y-73060770D01*
X51755514Y-73137964D01*
X51800481Y-73232433D01*
X51815643Y-73262964D01*
X51950617Y-73532222D01*
X53381512Y-73532222D01*
X53813981Y-72925885D01*
X53916877Y-72782229D01*
X54011901Y-72650722D01*
X54095990Y-72535518D01*
X54166079Y-72440766D01*
X54219103Y-72370618D01*
X54251999Y-72329225D01*
X54261595Y-72319548D01*
X54281711Y-72333317D01*
X54327184Y-72370385D01*
X54390734Y-72424400D01*
X54465082Y-72489007D01*
X54542947Y-72557851D01*
X54617050Y-72624579D01*
X54680112Y-72682835D01*
X54705029Y-72706609D01*
X54712963Y-72721128D01*
X54703770Y-72738224D01*
X54672346Y-72761251D01*
X54613587Y-72793563D01*
X54522389Y-72838515D01*
X54456982Y-72869639D01*
X54356380Y-72917952D01*
X54271830Y-72960012D01*
X54210491Y-72992146D01*
X54179525Y-73010677D01*
X54177187Y-73013249D01*
X54186473Y-73036170D01*
X54211854Y-73090696D01*
X54249618Y-73169034D01*
X54296053Y-73263392D01*
X54303523Y-73278420D01*
X54429859Y-73532222D01*
X56007222Y-73532222D01*
X56007222Y-73072108D01*
X55615859Y-72733035D01*
X55479448Y-72614928D01*
X55330625Y-72486207D01*
X55180528Y-72356496D01*
X55040296Y-72235422D01*
X54921066Y-72132607D01*
X54910215Y-72123260D01*
X54595935Y-71852558D01*
X54637988Y-71793909D01*
X54662465Y-71761050D01*
X54709845Y-71698571D01*
X54776087Y-71611758D01*
X54857150Y-71505898D01*
X54948991Y-71386277D01*
X55041732Y-71265762D01*
X55403422Y-70796264D01*
X55732883Y-70641047D01*
X55843136Y-70588902D01*
X55938527Y-70543402D01*
X56012301Y-70507799D01*
X56057697Y-70485350D01*
X56068996Y-70479182D01*
X56062237Y-70458148D01*
X56039026Y-70405322D01*
X56002834Y-70328254D01*
X55957132Y-70234491D01*
X55948028Y-70216149D01*
X55820407Y-69959765D01*
X55092751Y-69965568D01*
%LPC*%
D13*
X81500000Y-70600000D03*
X81500000Y-46600000D03*
G36*
G01*
X78249900Y-21650000D02*
X81350100Y-21650000D01*
G75*
G02*
X81600000Y-21899900I0J-249900D01*
G01*
X81600000Y-23500100D01*
G75*
G02*
X81350100Y-23750000I-249900J0D01*
G01*
X78249900Y-23750000D01*
G75*
G02*
X78000000Y-23500100I0J249900D01*
G01*
X78000000Y-21899900D01*
G75*
G02*
X78249900Y-21650000I249900J0D01*
G01*
G37*
D14*
X84880000Y-27780000D03*
X84880000Y-22700000D03*
X79800000Y-27780000D03*
D13*
X28500000Y-25800000D03*
D15*
X74220000Y-25800000D03*
D16*
X23620000Y-40560000D03*
X24820000Y-35460000D03*
X24820000Y-33260000D03*
X28170000Y-40560000D03*
X29370000Y-35460000D03*
X29370000Y-33260000D03*
D15*
X63600000Y-37600000D03*
D13*
X91100000Y-37600000D03*
D15*
X32900000Y-37600000D03*
D13*
X60400000Y-37600000D03*
X95970000Y-37590000D03*
X118470000Y-37590000D03*
G36*
G01*
X33611200Y-56500000D02*
X33611200Y-61000000D01*
G75*
G02*
X32861200Y-61750000I-750000J0D01*
G01*
X31361200Y-61750000D01*
G75*
G02*
X30611200Y-61000000I0J750000D01*
G01*
X30611200Y-56500000D01*
G75*
G02*
X31361200Y-55750000I750000J0D01*
G01*
X32861200Y-55750000D01*
G75*
G02*
X33611200Y-56500000I0J-750000D01*
G01*
G37*
G36*
G01*
X40000000Y-56567000D02*
X35500000Y-56567000D01*
G75*
G02*
X34750000Y-55817000I0J750000D01*
G01*
X34750000Y-54317000D01*
G75*
G02*
X35500000Y-53567000I750000J0D01*
G01*
X40000000Y-53567000D01*
G75*
G02*
X40750000Y-54317000I0J-750000D01*
G01*
X40750000Y-55817000D01*
G75*
G02*
X40000000Y-56567000I-750000J0D01*
G01*
G37*
G36*
G01*
X44914200Y-56500000D02*
X44914200Y-61000000D01*
G75*
G02*
X44164200Y-61750000I-750000J0D01*
G01*
X42664200Y-61750000D01*
G75*
G02*
X41914200Y-61000000I0J750000D01*
G01*
X41914200Y-56500000D01*
G75*
G02*
X42664200Y-55750000I750000J0D01*
G01*
X44164200Y-55750000D01*
G75*
G02*
X44914200Y-56500000I0J-750000D01*
G01*
G37*
G36*
G01*
X35500000Y-60933000D02*
X40000000Y-60933000D01*
G75*
G02*
X40750000Y-61683000I0J-750000D01*
G01*
X40750000Y-63183000D01*
G75*
G02*
X40000000Y-63933000I-750000J0D01*
G01*
X35500000Y-63933000D01*
G75*
G02*
X34750000Y-63183000I0J750000D01*
G01*
X34750000Y-61683000D01*
G75*
G02*
X35500000Y-60933000I750000J0D01*
G01*
G37*
G36*
G01*
X105020000Y-60946000D02*
X109520000Y-60946000D01*
G75*
G02*
X110270000Y-61696000I0J-750000D01*
G01*
X110270000Y-63196000D01*
G75*
G02*
X109520000Y-63946000I-750000J0D01*
G01*
X105020000Y-63946000D01*
G75*
G02*
X104270000Y-63196000I0J750000D01*
G01*
X104270000Y-61696000D01*
G75*
G02*
X105020000Y-60946000I750000J0D01*
G01*
G37*
G36*
G01*
X114434200Y-56513000D02*
X114434200Y-61013000D01*
G75*
G02*
X113684200Y-61763000I-750000J0D01*
G01*
X112184200Y-61763000D01*
G75*
G02*
X111434200Y-61013000I0J750000D01*
G01*
X111434200Y-56513000D01*
G75*
G02*
X112184200Y-55763000I750000J0D01*
G01*
X113684200Y-55763000D01*
G75*
G02*
X114434200Y-56513000I0J-750000D01*
G01*
G37*
G36*
G01*
X109520000Y-56580000D02*
X105020000Y-56580000D01*
G75*
G02*
X104270000Y-55830000I0J750000D01*
G01*
X104270000Y-54330000D01*
G75*
G02*
X105020000Y-53580000I750000J0D01*
G01*
X109520000Y-53580000D01*
G75*
G02*
X110270000Y-54330000I0J-750000D01*
G01*
X110270000Y-55830000D01*
G75*
G02*
X109520000Y-56580000I-750000J0D01*
G01*
G37*
G36*
G01*
X103131200Y-56513000D02*
X103131200Y-61013000D01*
G75*
G02*
X102381200Y-61763000I-750000J0D01*
G01*
X100881200Y-61763000D01*
G75*
G02*
X100131200Y-61013000I0J750000D01*
G01*
X100131200Y-56513000D01*
G75*
G02*
X100881200Y-55763000I750000J0D01*
G01*
X102381200Y-55763000D01*
G75*
G02*
X103131200Y-56513000I0J-750000D01*
G01*
G37*
M02*
