G04 #@! TF.GenerationSoftware,KiCad,Pcbnew,(5.1.9)-1*
G04 #@! TF.CreationDate,2021-05-25T00:15:51+02:00*
G04 #@! TF.ProjectId,HF,48462e6b-6963-4616-945f-706362585858,rev?*
G04 #@! TF.SameCoordinates,Original*
G04 #@! TF.FileFunction,Soldermask,Top*
G04 #@! TF.FilePolarity,Negative*
%FSLAX46Y46*%
G04 Gerber Fmt 4.6, Leading zero omitted, Abs format (unit mm)*
G04 Created by KiCad (PCBNEW (5.1.9)-1) date 2021-05-25 00:15:51*
%MOMM*%
%LPD*%
G01*
G04 APERTURE LIST*
%ADD10C,2.400000*%
%ADD11O,3.600000X2.100000*%
%ADD12O,2.400000X2.400000*%
%ADD13C,2.010000*%
G04 APERTURE END LIST*
D10*
X81500000Y-70600000D03*
X81500000Y-46600000D03*
G36*
G01*
X78249900Y-21650000D02*
X81350100Y-21650000D01*
G75*
G02*
X81600000Y-21899900I0J-249900D01*
G01*
X81600000Y-23500100D01*
G75*
G02*
X81350100Y-23750000I-249900J0D01*
G01*
X78249900Y-23750000D01*
G75*
G02*
X78000000Y-23500100I0J249900D01*
G01*
X78000000Y-21899900D01*
G75*
G02*
X78249900Y-21650000I249900J0D01*
G01*
G37*
D11*
X84880000Y-27780000D03*
X84880000Y-22700000D03*
X79800000Y-27780000D03*
D10*
X28500000Y-25800000D03*
D12*
X74220000Y-25800000D03*
D13*
X23620000Y-40560000D03*
X24820000Y-35460000D03*
X24820000Y-33260000D03*
X28170000Y-40560000D03*
X29370000Y-35460000D03*
X29370000Y-33260000D03*
D12*
X63600000Y-37600000D03*
D10*
X91100000Y-37600000D03*
D12*
X32900000Y-37600000D03*
D10*
X60400000Y-37600000D03*
X95970000Y-37590000D03*
X118470000Y-37590000D03*
G36*
G01*
X33611200Y-56500000D02*
X33611200Y-61000000D01*
G75*
G02*
X32861200Y-61750000I-750000J0D01*
G01*
X31361200Y-61750000D01*
G75*
G02*
X30611200Y-61000000I0J750000D01*
G01*
X30611200Y-56500000D01*
G75*
G02*
X31361200Y-55750000I750000J0D01*
G01*
X32861200Y-55750000D01*
G75*
G02*
X33611200Y-56500000I0J-750000D01*
G01*
G37*
G36*
G01*
X40000000Y-56567000D02*
X35500000Y-56567000D01*
G75*
G02*
X34750000Y-55817000I0J750000D01*
G01*
X34750000Y-54317000D01*
G75*
G02*
X35500000Y-53567000I750000J0D01*
G01*
X40000000Y-53567000D01*
G75*
G02*
X40750000Y-54317000I0J-750000D01*
G01*
X40750000Y-55817000D01*
G75*
G02*
X40000000Y-56567000I-750000J0D01*
G01*
G37*
G36*
G01*
X44914200Y-56500000D02*
X44914200Y-61000000D01*
G75*
G02*
X44164200Y-61750000I-750000J0D01*
G01*
X42664200Y-61750000D01*
G75*
G02*
X41914200Y-61000000I0J750000D01*
G01*
X41914200Y-56500000D01*
G75*
G02*
X42664200Y-55750000I750000J0D01*
G01*
X44164200Y-55750000D01*
G75*
G02*
X44914200Y-56500000I0J-750000D01*
G01*
G37*
G36*
G01*
X35500000Y-60933000D02*
X40000000Y-60933000D01*
G75*
G02*
X40750000Y-61683000I0J-750000D01*
G01*
X40750000Y-63183000D01*
G75*
G02*
X40000000Y-63933000I-750000J0D01*
G01*
X35500000Y-63933000D01*
G75*
G02*
X34750000Y-63183000I0J750000D01*
G01*
X34750000Y-61683000D01*
G75*
G02*
X35500000Y-60933000I750000J0D01*
G01*
G37*
G36*
G01*
X105020000Y-60946000D02*
X109520000Y-60946000D01*
G75*
G02*
X110270000Y-61696000I0J-750000D01*
G01*
X110270000Y-63196000D01*
G75*
G02*
X109520000Y-63946000I-750000J0D01*
G01*
X105020000Y-63946000D01*
G75*
G02*
X104270000Y-63196000I0J750000D01*
G01*
X104270000Y-61696000D01*
G75*
G02*
X105020000Y-60946000I750000J0D01*
G01*
G37*
G36*
G01*
X114434200Y-56513000D02*
X114434200Y-61013000D01*
G75*
G02*
X113684200Y-61763000I-750000J0D01*
G01*
X112184200Y-61763000D01*
G75*
G02*
X111434200Y-61013000I0J750000D01*
G01*
X111434200Y-56513000D01*
G75*
G02*
X112184200Y-55763000I750000J0D01*
G01*
X113684200Y-55763000D01*
G75*
G02*
X114434200Y-56513000I0J-750000D01*
G01*
G37*
G36*
G01*
X109520000Y-56580000D02*
X105020000Y-56580000D01*
G75*
G02*
X104270000Y-55830000I0J750000D01*
G01*
X104270000Y-54330000D01*
G75*
G02*
X105020000Y-53580000I750000J0D01*
G01*
X109520000Y-53580000D01*
G75*
G02*
X110270000Y-54330000I0J-750000D01*
G01*
X110270000Y-55830000D01*
G75*
G02*
X109520000Y-56580000I-750000J0D01*
G01*
G37*
G36*
G01*
X103131200Y-56513000D02*
X103131200Y-61013000D01*
G75*
G02*
X102381200Y-61763000I-750000J0D01*
G01*
X100881200Y-61763000D01*
G75*
G02*
X100131200Y-61013000I0J750000D01*
G01*
X100131200Y-56513000D01*
G75*
G02*
X100881200Y-55763000I750000J0D01*
G01*
X102381200Y-55763000D01*
G75*
G02*
X103131200Y-56513000I0J-750000D01*
G01*
G37*
M02*
