%FSLAX45Y45*%
G04 Gerber Fmt 4.5, Leading zero omitted, Abs format (unit mm)*
G04 Created by KiCad (PCBNEW (5.1.9)-1) date 2021-05-25 00:15:54*
%MOMM*%
%LPD*%
G01*
G04 APERTURE LIST*
%TA.AperFunction,Profile*%
%ADD10C,0.050000*%
%TD*%
%ADD11C,0.200000*%
%ADD12C,0.300000*%
G04 APERTURE END LIST*
D10*
X11800000Y-2000000D02*
X7120000Y-2000000D01*
X3440000Y-3210000D02*
G75*
G02*
X3140000Y-2910000I0J300000D01*
G01*
X7120000Y-2910000D02*
G75*
G02*
X6820000Y-3210000I-300000J0D01*
G01*
X7120000Y-2910000D02*
X7120000Y-2000000D01*
X3440000Y-3210000D02*
X6820000Y-3210000D01*
X3140000Y-2000000D02*
X3140000Y-2910000D01*
X11800000Y-7800000D02*
X12500000Y-7100000D01*
X2700000Y-7800000D02*
X2000000Y-7100000D01*
X2000000Y-2700000D02*
X2700000Y-2000000D01*
X2000000Y-2700000D02*
X2000000Y-7100000D01*
X11800000Y-7800000D02*
X2700000Y-7800000D01*
X12500000Y-2700000D02*
X12500000Y-7100000D01*
X11800000Y-2000000D02*
X12500000Y-2700000D01*
X2700000Y-2000000D02*
X3140000Y-2000000D01*
D11*
X3161120Y-5825000D02*
X3261120Y-5925000D01*
X3261120Y-5825000D02*
X3161120Y-5925000D01*
X3251120Y-6100000D02*
X3251120Y-5650000D01*
X3171120Y-6100000D02*
X3171120Y-5650000D01*
X3251120Y-5650000D02*
G75*
G03*
X3171120Y-5650000I-40000J0D01*
G01*
X3171120Y-6100000D02*
G75*
G03*
X3251120Y-6100000I40000J0D01*
G01*
X3725000Y-5456700D02*
X3825000Y-5556700D01*
X3825000Y-5456700D02*
X3725000Y-5556700D01*
X3550000Y-5546700D02*
X4000000Y-5546700D01*
X3550000Y-5466700D02*
X4000000Y-5466700D01*
X4000000Y-5546700D02*
G75*
G03*
X4000000Y-5466700I0J40000D01*
G01*
X3550000Y-5466700D02*
G75*
G03*
X3550000Y-5546700I0J-40000D01*
G01*
X3725000Y-6193300D02*
X3825000Y-6293300D01*
X3825000Y-6193300D02*
X3725000Y-6293300D01*
X4000000Y-6203300D02*
X3550000Y-6203300D01*
X4000000Y-6283300D02*
X3550000Y-6283300D01*
X3550000Y-6203300D02*
G75*
G03*
X3550000Y-6283300I0J-40000D01*
G01*
X4000000Y-6283300D02*
G75*
G03*
X4000000Y-6203300I0J40000D01*
G01*
X4291420Y-5825000D02*
X4391420Y-5925000D01*
X4391420Y-5825000D02*
X4291420Y-5925000D01*
X4381420Y-6100000D02*
X4381420Y-5650000D01*
X4301420Y-6100000D02*
X4301420Y-5650000D01*
X4381420Y-5650000D02*
G75*
G03*
X4301420Y-5650000I-40000J0D01*
G01*
X4301420Y-6100000D02*
G75*
G03*
X4381420Y-6100000I40000J0D01*
G01*
X10113120Y-5826300D02*
X10213120Y-5926300D01*
X10213120Y-5826300D02*
X10113120Y-5926300D01*
X10203120Y-6101300D02*
X10203120Y-5651300D01*
X10123120Y-6101300D02*
X10123120Y-5651300D01*
X10203120Y-5651300D02*
G75*
G03*
X10123120Y-5651300I-40000J0D01*
G01*
X10123120Y-6101300D02*
G75*
G03*
X10203120Y-6101300I40000J0D01*
G01*
X10677000Y-5458000D02*
X10777000Y-5558000D01*
X10777000Y-5458000D02*
X10677000Y-5558000D01*
X10502000Y-5548000D02*
X10952000Y-5548000D01*
X10502000Y-5468000D02*
X10952000Y-5468000D01*
X10952000Y-5548000D02*
G75*
G03*
X10952000Y-5468000I0J40000D01*
G01*
X10502000Y-5468000D02*
G75*
G03*
X10502000Y-5548000I0J-40000D01*
G01*
X10677000Y-6194600D02*
X10777000Y-6294600D01*
X10777000Y-6194600D02*
X10677000Y-6294600D01*
X10952000Y-6204600D02*
X10502000Y-6204600D01*
X10952000Y-6284600D02*
X10502000Y-6284600D01*
X10502000Y-6204600D02*
G75*
G03*
X10502000Y-6284600I0J-40000D01*
G01*
X10952000Y-6284600D02*
G75*
G03*
X10952000Y-6204600I0J40000D01*
G01*
X11243420Y-5826300D02*
X11343420Y-5926300D01*
X11343420Y-5826300D02*
X11243420Y-5926300D01*
X11333420Y-6101300D02*
X11333420Y-5651300D01*
X11253420Y-6101300D02*
X11253420Y-5651300D01*
X11333420Y-5651300D02*
G75*
G03*
X11253420Y-5651300I-40000J0D01*
G01*
X11253420Y-6101300D02*
G75*
G03*
X11333420Y-6101300I40000J0D01*
G01*
X2412500Y-4056000D02*
G75*
G03*
X2412500Y-4056000I-50500J0D01*
G01*
X2532500Y-3326000D02*
G75*
G03*
X2532500Y-3326000I-50500J0D01*
G01*
X2532500Y-3546000D02*
G75*
G03*
X2532500Y-3546000I-50500J0D01*
G01*
X2867500Y-4056000D02*
G75*
G03*
X2867500Y-4056000I-50500J0D01*
G01*
X2987500Y-3326000D02*
G75*
G03*
X2987500Y-3326000I-50500J0D01*
G01*
X2987500Y-3546000D02*
G75*
G03*
X2987500Y-3546000I-50500J0D01*
G01*
X2850000Y-2520000D02*
X2850000Y-2640000D01*
X2790000Y-2580000D02*
X2910000Y-2580000D01*
X3290000Y-3700000D02*
X3290000Y-3820000D01*
X3230000Y-3760000D02*
X3350000Y-3760000D01*
X6040000Y-3700000D02*
X6040000Y-3820000D01*
X5980000Y-3760000D02*
X6100000Y-3760000D01*
X6360000Y-3700000D02*
X6360000Y-3820000D01*
X6300000Y-3760000D02*
X6420000Y-3760000D01*
X7422000Y-2520000D02*
X7422000Y-2640000D01*
X7362000Y-2580000D02*
X7482000Y-2580000D01*
X7980000Y-2210000D02*
X7980000Y-2330000D01*
X7920000Y-2270000D02*
X8040000Y-2270000D01*
X7990000Y-2220000D02*
X7970000Y-2220000D01*
X7990000Y-2320000D02*
X7970000Y-2320000D01*
X7970000Y-2220000D02*
G75*
G03*
X7970000Y-2320000I0J-50000D01*
G01*
X7990000Y-2320000D02*
G75*
G03*
X7990000Y-2220000I0J50000D01*
G01*
X7980000Y-2718000D02*
X7980000Y-2838000D01*
X7920000Y-2778000D02*
X8040000Y-2778000D01*
X7990000Y-2728000D02*
X7970000Y-2728000D01*
X7990000Y-2828000D02*
X7970000Y-2828000D01*
X7970000Y-2728000D02*
G75*
G03*
X7970000Y-2828000I0J-50000D01*
G01*
X7990000Y-2828000D02*
G75*
G03*
X7990000Y-2728000I0J50000D01*
G01*
X8150000Y-4600000D02*
X8150000Y-4720000D01*
X8090000Y-4660000D02*
X8210000Y-4660000D01*
X8150000Y-7000000D02*
X8150000Y-7120000D01*
X8090000Y-7060000D02*
X8210000Y-7060000D01*
X8488000Y-2210000D02*
X8488000Y-2330000D01*
X8428000Y-2270000D02*
X8548000Y-2270000D01*
X8498000Y-2220000D02*
X8478000Y-2220000D01*
X8498000Y-2320000D02*
X8478000Y-2320000D01*
X8478000Y-2220000D02*
G75*
G03*
X8478000Y-2320000I0J-50000D01*
G01*
X8498000Y-2320000D02*
G75*
G03*
X8498000Y-2220000I0J50000D01*
G01*
X8488000Y-2718000D02*
X8488000Y-2838000D01*
X8428000Y-2778000D02*
X8548000Y-2778000D01*
X8498000Y-2728000D02*
X8478000Y-2728000D01*
X8498000Y-2828000D02*
X8478000Y-2828000D01*
X8478000Y-2728000D02*
G75*
G03*
X8478000Y-2828000I0J-50000D01*
G01*
X8498000Y-2828000D02*
G75*
G03*
X8498000Y-2728000I0J50000D01*
G01*
X9110000Y-3700000D02*
X9110000Y-3820000D01*
X9050000Y-3760000D02*
X9170000Y-3760000D01*
X9597000Y-3699000D02*
X9597000Y-3819000D01*
X9537000Y-3759000D02*
X9657000Y-3759000D01*
X11847000Y-3699000D02*
X11847000Y-3819000D01*
X11787000Y-3759000D02*
X11907000Y-3759000D01*
D12*
X2283928Y-8268214D02*
X2283928Y-7968214D01*
X2355357Y-7968214D01*
X2398214Y-7982500D01*
X2426786Y-8011071D01*
X2441071Y-8039643D01*
X2455357Y-8096786D01*
X2455357Y-8139643D01*
X2441071Y-8196786D01*
X2426786Y-8225357D01*
X2398214Y-8253929D01*
X2355357Y-8268214D01*
X2283928Y-8268214D01*
X2583928Y-8268214D02*
X2583928Y-8068214D01*
X2583928Y-8125357D02*
X2598214Y-8096786D01*
X2612500Y-8082500D01*
X2641071Y-8068214D01*
X2669643Y-8068214D01*
X2769643Y-8268214D02*
X2769643Y-8068214D01*
X2769643Y-7968214D02*
X2755357Y-7982500D01*
X2769643Y-7996786D01*
X2783928Y-7982500D01*
X2769643Y-7968214D01*
X2769643Y-7996786D01*
X2955357Y-8268214D02*
X2926786Y-8253929D01*
X2912500Y-8225357D01*
X2912500Y-7968214D01*
X3112500Y-8268214D02*
X3083928Y-8253929D01*
X3069643Y-8225357D01*
X3069643Y-7968214D01*
X3455357Y-8268214D02*
X3455357Y-7968214D01*
X3555357Y-8182500D01*
X3655357Y-7968214D01*
X3655357Y-8268214D01*
X3926786Y-8268214D02*
X3926786Y-8111071D01*
X3912500Y-8082500D01*
X3883928Y-8068214D01*
X3826786Y-8068214D01*
X3798214Y-8082500D01*
X3926786Y-8253929D02*
X3898214Y-8268214D01*
X3826786Y-8268214D01*
X3798214Y-8253929D01*
X3783928Y-8225357D01*
X3783928Y-8196786D01*
X3798214Y-8168214D01*
X3826786Y-8153929D01*
X3898214Y-8153929D01*
X3926786Y-8139643D01*
X4069643Y-8068214D02*
X4069643Y-8368214D01*
X4069643Y-8082500D02*
X4098214Y-8068214D01*
X4155357Y-8068214D01*
X4183928Y-8082500D01*
X4198214Y-8096786D01*
X4212500Y-8125357D01*
X4212500Y-8211071D01*
X4198214Y-8239643D01*
X4183928Y-8253929D01*
X4155357Y-8268214D01*
X4098214Y-8268214D01*
X4069643Y-8253929D01*
X4341071Y-8239643D02*
X4355357Y-8253929D01*
X4341071Y-8268214D01*
X4326786Y-8253929D01*
X4341071Y-8239643D01*
X4341071Y-8268214D01*
X4341071Y-8082500D02*
X4355357Y-8096786D01*
X4341071Y-8111071D01*
X4326786Y-8096786D01*
X4341071Y-8082500D01*
X4341071Y-8111071D01*
X1897500Y-8712500D02*
X1997500Y-8812500D01*
X1997500Y-8712500D02*
X1897500Y-8812500D01*
X2441071Y-8898214D02*
X2269643Y-8898214D01*
X2355357Y-8898214D02*
X2355357Y-8598214D01*
X2326786Y-8641072D01*
X2298214Y-8669643D01*
X2269643Y-8683929D01*
X2569643Y-8869643D02*
X2583928Y-8883929D01*
X2569643Y-8898214D01*
X2555357Y-8883929D01*
X2569643Y-8869643D01*
X2569643Y-8898214D01*
X2769643Y-8598214D02*
X2798214Y-8598214D01*
X2826786Y-8612500D01*
X2841071Y-8626786D01*
X2855357Y-8655357D01*
X2869643Y-8712500D01*
X2869643Y-8783929D01*
X2855357Y-8841072D01*
X2841071Y-8869643D01*
X2826786Y-8883929D01*
X2798214Y-8898214D01*
X2769643Y-8898214D01*
X2741071Y-8883929D01*
X2726786Y-8869643D01*
X2712500Y-8841072D01*
X2698214Y-8783929D01*
X2698214Y-8712500D01*
X2712500Y-8655357D01*
X2726786Y-8626786D01*
X2741071Y-8612500D01*
X2769643Y-8598214D01*
X3055357Y-8598214D02*
X3083928Y-8598214D01*
X3112500Y-8612500D01*
X3126786Y-8626786D01*
X3141071Y-8655357D01*
X3155357Y-8712500D01*
X3155357Y-8783929D01*
X3141071Y-8841072D01*
X3126786Y-8869643D01*
X3112500Y-8883929D01*
X3083928Y-8898214D01*
X3055357Y-8898214D01*
X3026786Y-8883929D01*
X3012500Y-8869643D01*
X2998214Y-8841072D01*
X2983928Y-8783929D01*
X2983928Y-8712500D01*
X2998214Y-8655357D01*
X3012500Y-8626786D01*
X3026786Y-8612500D01*
X3055357Y-8598214D01*
X3283928Y-8898214D02*
X3283928Y-8698214D01*
X3283928Y-8726786D02*
X3298214Y-8712500D01*
X3326786Y-8698214D01*
X3369643Y-8698214D01*
X3398214Y-8712500D01*
X3412500Y-8741072D01*
X3412500Y-8898214D01*
X3412500Y-8741072D02*
X3426786Y-8712500D01*
X3455357Y-8698214D01*
X3498214Y-8698214D01*
X3526786Y-8712500D01*
X3541071Y-8741072D01*
X3541071Y-8898214D01*
X3683928Y-8898214D02*
X3683928Y-8698214D01*
X3683928Y-8726786D02*
X3698214Y-8712500D01*
X3726786Y-8698214D01*
X3769643Y-8698214D01*
X3798214Y-8712500D01*
X3812500Y-8741072D01*
X3812500Y-8898214D01*
X3812500Y-8741072D02*
X3826786Y-8712500D01*
X3855357Y-8698214D01*
X3898214Y-8698214D01*
X3926786Y-8712500D01*
X3941071Y-8741072D01*
X3941071Y-8898214D01*
X4526786Y-8583929D02*
X4269643Y-8969643D01*
X4912500Y-8598214D02*
X4941071Y-8598214D01*
X4969643Y-8612500D01*
X4983928Y-8626786D01*
X4998214Y-8655357D01*
X5012500Y-8712500D01*
X5012500Y-8783929D01*
X4998214Y-8841072D01*
X4983928Y-8869643D01*
X4969643Y-8883929D01*
X4941071Y-8898214D01*
X4912500Y-8898214D01*
X4883928Y-8883929D01*
X4869643Y-8869643D01*
X4855357Y-8841072D01*
X4841071Y-8783929D01*
X4841071Y-8712500D01*
X4855357Y-8655357D01*
X4869643Y-8626786D01*
X4883928Y-8612500D01*
X4912500Y-8598214D01*
X5141071Y-8869643D02*
X5155357Y-8883929D01*
X5141071Y-8898214D01*
X5126786Y-8883929D01*
X5141071Y-8869643D01*
X5141071Y-8898214D01*
X5341071Y-8598214D02*
X5369643Y-8598214D01*
X5398214Y-8612500D01*
X5412500Y-8626786D01*
X5426786Y-8655357D01*
X5441071Y-8712500D01*
X5441071Y-8783929D01*
X5426786Y-8841072D01*
X5412500Y-8869643D01*
X5398214Y-8883929D01*
X5369643Y-8898214D01*
X5341071Y-8898214D01*
X5312500Y-8883929D01*
X5298214Y-8869643D01*
X5283928Y-8841072D01*
X5269643Y-8783929D01*
X5269643Y-8712500D01*
X5283928Y-8655357D01*
X5298214Y-8626786D01*
X5312500Y-8612500D01*
X5341071Y-8598214D01*
X5541071Y-8598214D02*
X5726786Y-8598214D01*
X5626786Y-8712500D01*
X5669643Y-8712500D01*
X5698214Y-8726786D01*
X5712500Y-8741072D01*
X5726786Y-8769643D01*
X5726786Y-8841072D01*
X5712500Y-8869643D01*
X5698214Y-8883929D01*
X5669643Y-8898214D01*
X5583928Y-8898214D01*
X5555357Y-8883929D01*
X5541071Y-8869643D01*
X5869643Y-8898214D02*
X5926786Y-8898214D01*
X5955357Y-8883929D01*
X5969643Y-8869643D01*
X5998214Y-8826786D01*
X6012500Y-8769643D01*
X6012500Y-8655357D01*
X5998214Y-8626786D01*
X5983928Y-8612500D01*
X5955357Y-8598214D01*
X5898214Y-8598214D01*
X5869643Y-8612500D01*
X5855357Y-8626786D01*
X5841071Y-8655357D01*
X5841071Y-8726786D01*
X5855357Y-8755357D01*
X5869643Y-8769643D01*
X5898214Y-8783929D01*
X5955357Y-8783929D01*
X5983928Y-8769643D01*
X5998214Y-8755357D01*
X6012500Y-8726786D01*
X6126786Y-8598214D02*
X6126786Y-8655357D01*
X6241071Y-8598214D02*
X6241071Y-8655357D01*
X6683928Y-9012500D02*
X6669643Y-8998214D01*
X6641071Y-8955357D01*
X6626786Y-8926786D01*
X6612500Y-8883929D01*
X6598214Y-8812500D01*
X6598214Y-8755357D01*
X6612500Y-8683929D01*
X6626786Y-8641072D01*
X6641071Y-8612500D01*
X6669643Y-8569643D01*
X6683928Y-8555357D01*
X6855357Y-8598214D02*
X6883928Y-8598214D01*
X6912500Y-8612500D01*
X6926786Y-8626786D01*
X6941071Y-8655357D01*
X6955357Y-8712500D01*
X6955357Y-8783929D01*
X6941071Y-8841072D01*
X6926786Y-8869643D01*
X6912500Y-8883929D01*
X6883928Y-8898214D01*
X6855357Y-8898214D01*
X6826786Y-8883929D01*
X6812500Y-8869643D01*
X6798214Y-8841072D01*
X6783928Y-8783929D01*
X6783928Y-8712500D01*
X6798214Y-8655357D01*
X6812500Y-8626786D01*
X6826786Y-8612500D01*
X6855357Y-8598214D01*
X7312500Y-8898214D02*
X7312500Y-8598214D01*
X7441071Y-8898214D02*
X7441071Y-8741072D01*
X7426786Y-8712500D01*
X7398214Y-8698214D01*
X7355357Y-8698214D01*
X7326786Y-8712500D01*
X7312500Y-8726786D01*
X7626786Y-8898214D02*
X7598214Y-8883929D01*
X7583928Y-8869643D01*
X7569643Y-8841072D01*
X7569643Y-8755357D01*
X7583928Y-8726786D01*
X7598214Y-8712500D01*
X7626786Y-8698214D01*
X7669643Y-8698214D01*
X7698214Y-8712500D01*
X7712500Y-8726786D01*
X7726786Y-8755357D01*
X7726786Y-8841072D01*
X7712500Y-8869643D01*
X7698214Y-8883929D01*
X7669643Y-8898214D01*
X7626786Y-8898214D01*
X7898214Y-8898214D02*
X7869643Y-8883929D01*
X7855357Y-8855357D01*
X7855357Y-8598214D01*
X8126786Y-8883929D02*
X8098214Y-8898214D01*
X8041071Y-8898214D01*
X8012500Y-8883929D01*
X7998214Y-8855357D01*
X7998214Y-8741072D01*
X8012500Y-8712500D01*
X8041071Y-8698214D01*
X8098214Y-8698214D01*
X8126786Y-8712500D01*
X8141071Y-8741072D01*
X8141071Y-8769643D01*
X7998214Y-8798214D01*
X8255357Y-8883929D02*
X8283928Y-8898214D01*
X8341071Y-8898214D01*
X8369643Y-8883929D01*
X8383928Y-8855357D01*
X8383928Y-8841072D01*
X8369643Y-8812500D01*
X8341071Y-8798214D01*
X8298214Y-8798214D01*
X8269643Y-8783929D01*
X8255357Y-8755357D01*
X8255357Y-8741072D01*
X8269643Y-8712500D01*
X8298214Y-8698214D01*
X8341071Y-8698214D01*
X8369643Y-8712500D01*
X8741071Y-8783929D02*
X8969643Y-8783929D01*
X8855357Y-8898214D02*
X8855357Y-8669643D01*
X9383928Y-8726786D02*
X9355357Y-8712500D01*
X9341071Y-8698214D01*
X9326786Y-8669643D01*
X9326786Y-8655357D01*
X9341071Y-8626786D01*
X9355357Y-8612500D01*
X9383928Y-8598214D01*
X9441071Y-8598214D01*
X9469643Y-8612500D01*
X9483928Y-8626786D01*
X9498214Y-8655357D01*
X9498214Y-8669643D01*
X9483928Y-8698214D01*
X9469643Y-8712500D01*
X9441071Y-8726786D01*
X9383928Y-8726786D01*
X9355357Y-8741072D01*
X9341071Y-8755357D01*
X9326786Y-8783929D01*
X9326786Y-8841072D01*
X9341071Y-8869643D01*
X9355357Y-8883929D01*
X9383928Y-8898214D01*
X9441071Y-8898214D01*
X9469643Y-8883929D01*
X9483928Y-8869643D01*
X9498214Y-8841072D01*
X9498214Y-8783929D01*
X9483928Y-8755357D01*
X9469643Y-8741072D01*
X9441071Y-8726786D01*
X9841071Y-8883929D02*
X9869643Y-8898214D01*
X9926786Y-8898214D01*
X9955357Y-8883929D01*
X9969643Y-8855357D01*
X9969643Y-8841072D01*
X9955357Y-8812500D01*
X9926786Y-8798214D01*
X9883928Y-8798214D01*
X9855357Y-8783929D01*
X9841071Y-8755357D01*
X9841071Y-8741072D01*
X9855357Y-8712500D01*
X9883928Y-8698214D01*
X9926786Y-8698214D01*
X9955357Y-8712500D01*
X10141071Y-8898214D02*
X10112500Y-8883929D01*
X10098214Y-8855357D01*
X10098214Y-8598214D01*
X10298214Y-8898214D02*
X10269643Y-8883929D01*
X10255357Y-8869643D01*
X10241071Y-8841072D01*
X10241071Y-8755357D01*
X10255357Y-8726786D01*
X10269643Y-8712500D01*
X10298214Y-8698214D01*
X10341071Y-8698214D01*
X10369643Y-8712500D01*
X10383928Y-8726786D01*
X10398214Y-8755357D01*
X10398214Y-8841072D01*
X10383928Y-8869643D01*
X10369643Y-8883929D01*
X10341071Y-8898214D01*
X10298214Y-8898214D01*
X10483928Y-8698214D02*
X10598214Y-8698214D01*
X10526786Y-8598214D02*
X10526786Y-8855357D01*
X10541071Y-8883929D01*
X10569643Y-8898214D01*
X10598214Y-8898214D01*
X10683928Y-8883929D02*
X10712500Y-8898214D01*
X10769643Y-8898214D01*
X10798214Y-8883929D01*
X10812500Y-8855357D01*
X10812500Y-8841072D01*
X10798214Y-8812500D01*
X10769643Y-8798214D01*
X10726786Y-8798214D01*
X10698214Y-8783929D01*
X10683928Y-8755357D01*
X10683928Y-8741072D01*
X10698214Y-8712500D01*
X10726786Y-8698214D01*
X10769643Y-8698214D01*
X10798214Y-8712500D01*
X10912500Y-9012500D02*
X10926786Y-8998214D01*
X10955357Y-8955357D01*
X10969643Y-8926786D01*
X10983928Y-8883929D01*
X10998214Y-8812500D01*
X10998214Y-8755357D01*
X10983928Y-8683929D01*
X10969643Y-8641072D01*
X10955357Y-8612500D01*
X10926786Y-8569643D01*
X10912500Y-8555357D01*
X1997500Y-9158500D02*
G75*
G03*
X1997500Y-9158500I-50500J0D01*
G01*
X2441071Y-9294214D02*
X2269643Y-9294214D01*
X2355357Y-9294214D02*
X2355357Y-8994214D01*
X2326786Y-9037072D01*
X2298214Y-9065643D01*
X2269643Y-9079929D01*
X2569643Y-9265643D02*
X2583928Y-9279929D01*
X2569643Y-9294214D01*
X2555357Y-9279929D01*
X2569643Y-9265643D01*
X2569643Y-9294214D01*
X2769643Y-8994214D02*
X2798214Y-8994214D01*
X2826786Y-9008500D01*
X2841071Y-9022786D01*
X2855357Y-9051357D01*
X2869643Y-9108500D01*
X2869643Y-9179929D01*
X2855357Y-9237072D01*
X2841071Y-9265643D01*
X2826786Y-9279929D01*
X2798214Y-9294214D01*
X2769643Y-9294214D01*
X2741071Y-9279929D01*
X2726786Y-9265643D01*
X2712500Y-9237072D01*
X2698214Y-9179929D01*
X2698214Y-9108500D01*
X2712500Y-9051357D01*
X2726786Y-9022786D01*
X2741071Y-9008500D01*
X2769643Y-8994214D01*
X3155357Y-9294214D02*
X2983928Y-9294214D01*
X3069643Y-9294214D02*
X3069643Y-8994214D01*
X3041071Y-9037072D01*
X3012500Y-9065643D01*
X2983928Y-9079929D01*
X3283928Y-9294214D02*
X3283928Y-9094214D01*
X3283928Y-9122786D02*
X3298214Y-9108500D01*
X3326786Y-9094214D01*
X3369643Y-9094214D01*
X3398214Y-9108500D01*
X3412500Y-9137072D01*
X3412500Y-9294214D01*
X3412500Y-9137072D02*
X3426786Y-9108500D01*
X3455357Y-9094214D01*
X3498214Y-9094214D01*
X3526786Y-9108500D01*
X3541071Y-9137072D01*
X3541071Y-9294214D01*
X3683928Y-9294214D02*
X3683928Y-9094214D01*
X3683928Y-9122786D02*
X3698214Y-9108500D01*
X3726786Y-9094214D01*
X3769643Y-9094214D01*
X3798214Y-9108500D01*
X3812500Y-9137072D01*
X3812500Y-9294214D01*
X3812500Y-9137072D02*
X3826786Y-9108500D01*
X3855357Y-9094214D01*
X3898214Y-9094214D01*
X3926786Y-9108500D01*
X3941071Y-9137072D01*
X3941071Y-9294214D01*
X4526786Y-8979929D02*
X4269643Y-9365643D01*
X4912500Y-8994214D02*
X4941071Y-8994214D01*
X4969643Y-9008500D01*
X4983928Y-9022786D01*
X4998214Y-9051357D01*
X5012500Y-9108500D01*
X5012500Y-9179929D01*
X4998214Y-9237072D01*
X4983928Y-9265643D01*
X4969643Y-9279929D01*
X4941071Y-9294214D01*
X4912500Y-9294214D01*
X4883928Y-9279929D01*
X4869643Y-9265643D01*
X4855357Y-9237072D01*
X4841071Y-9179929D01*
X4841071Y-9108500D01*
X4855357Y-9051357D01*
X4869643Y-9022786D01*
X4883928Y-9008500D01*
X4912500Y-8994214D01*
X5141071Y-9265643D02*
X5155357Y-9279929D01*
X5141071Y-9294214D01*
X5126786Y-9279929D01*
X5141071Y-9265643D01*
X5141071Y-9294214D01*
X5341071Y-8994214D02*
X5369643Y-8994214D01*
X5398214Y-9008500D01*
X5412500Y-9022786D01*
X5426786Y-9051357D01*
X5441071Y-9108500D01*
X5441071Y-9179929D01*
X5426786Y-9237072D01*
X5412500Y-9265643D01*
X5398214Y-9279929D01*
X5369643Y-9294214D01*
X5341071Y-9294214D01*
X5312500Y-9279929D01*
X5298214Y-9265643D01*
X5283928Y-9237072D01*
X5269643Y-9179929D01*
X5269643Y-9108500D01*
X5283928Y-9051357D01*
X5298214Y-9022786D01*
X5312500Y-9008500D01*
X5341071Y-8994214D01*
X5698214Y-9094214D02*
X5698214Y-9294214D01*
X5626786Y-8979929D02*
X5555357Y-9194214D01*
X5741071Y-9194214D01*
X5912500Y-8994214D02*
X5941071Y-8994214D01*
X5969643Y-9008500D01*
X5983928Y-9022786D01*
X5998214Y-9051357D01*
X6012500Y-9108500D01*
X6012500Y-9179929D01*
X5998214Y-9237072D01*
X5983928Y-9265643D01*
X5969643Y-9279929D01*
X5941071Y-9294214D01*
X5912500Y-9294214D01*
X5883928Y-9279929D01*
X5869643Y-9265643D01*
X5855357Y-9237072D01*
X5841071Y-9179929D01*
X5841071Y-9108500D01*
X5855357Y-9051357D01*
X5869643Y-9022786D01*
X5883928Y-9008500D01*
X5912500Y-8994214D01*
X6126786Y-8994214D02*
X6126786Y-9051357D01*
X6241071Y-8994214D02*
X6241071Y-9051357D01*
X6683928Y-9408500D02*
X6669643Y-9394214D01*
X6641071Y-9351357D01*
X6626786Y-9322786D01*
X6612500Y-9279929D01*
X6598214Y-9208500D01*
X6598214Y-9151357D01*
X6612500Y-9079929D01*
X6626786Y-9037072D01*
X6641071Y-9008500D01*
X6669643Y-8965643D01*
X6683928Y-8951357D01*
X6926786Y-8994214D02*
X6869643Y-8994214D01*
X6841071Y-9008500D01*
X6826786Y-9022786D01*
X6798214Y-9065643D01*
X6783928Y-9122786D01*
X6783928Y-9237072D01*
X6798214Y-9265643D01*
X6812500Y-9279929D01*
X6841071Y-9294214D01*
X6898214Y-9294214D01*
X6926786Y-9279929D01*
X6941071Y-9265643D01*
X6955357Y-9237072D01*
X6955357Y-9165643D01*
X6941071Y-9137072D01*
X6926786Y-9122786D01*
X6898214Y-9108500D01*
X6841071Y-9108500D01*
X6812500Y-9122786D01*
X6798214Y-9137072D01*
X6783928Y-9165643D01*
X7312500Y-9294214D02*
X7312500Y-8994214D01*
X7441071Y-9294214D02*
X7441071Y-9137072D01*
X7426786Y-9108500D01*
X7398214Y-9094214D01*
X7355357Y-9094214D01*
X7326786Y-9108500D01*
X7312500Y-9122786D01*
X7626786Y-9294214D02*
X7598214Y-9279929D01*
X7583928Y-9265643D01*
X7569643Y-9237072D01*
X7569643Y-9151357D01*
X7583928Y-9122786D01*
X7598214Y-9108500D01*
X7626786Y-9094214D01*
X7669643Y-9094214D01*
X7698214Y-9108500D01*
X7712500Y-9122786D01*
X7726786Y-9151357D01*
X7726786Y-9237072D01*
X7712500Y-9265643D01*
X7698214Y-9279929D01*
X7669643Y-9294214D01*
X7626786Y-9294214D01*
X7898214Y-9294214D02*
X7869643Y-9279929D01*
X7855357Y-9251357D01*
X7855357Y-8994214D01*
X8126786Y-9279929D02*
X8098214Y-9294214D01*
X8041071Y-9294214D01*
X8012500Y-9279929D01*
X7998214Y-9251357D01*
X7998214Y-9137072D01*
X8012500Y-9108500D01*
X8041071Y-9094214D01*
X8098214Y-9094214D01*
X8126786Y-9108500D01*
X8141071Y-9137072D01*
X8141071Y-9165643D01*
X7998214Y-9194214D01*
X8255357Y-9279929D02*
X8283928Y-9294214D01*
X8341071Y-9294214D01*
X8369643Y-9279929D01*
X8383928Y-9251357D01*
X8383928Y-9237072D01*
X8369643Y-9208500D01*
X8341071Y-9194214D01*
X8298214Y-9194214D01*
X8269643Y-9179929D01*
X8255357Y-9151357D01*
X8255357Y-9137072D01*
X8269643Y-9108500D01*
X8298214Y-9094214D01*
X8341071Y-9094214D01*
X8369643Y-9108500D01*
X8483928Y-9408500D02*
X8498214Y-9394214D01*
X8526786Y-9351357D01*
X8541071Y-9322786D01*
X8555357Y-9279929D01*
X8569643Y-9208500D01*
X8569643Y-9151357D01*
X8555357Y-9079929D01*
X8541071Y-9037072D01*
X8526786Y-9008500D01*
X8498214Y-8965643D01*
X8483928Y-8951357D01*
X1937500Y-9494500D02*
X1937500Y-9614500D01*
X1877500Y-9554500D02*
X1997500Y-9554500D01*
X2441071Y-9690214D02*
X2269643Y-9690214D01*
X2355357Y-9690214D02*
X2355357Y-9390214D01*
X2326786Y-9433072D01*
X2298214Y-9461643D01*
X2269643Y-9475929D01*
X2569643Y-9661643D02*
X2583928Y-9675929D01*
X2569643Y-9690214D01*
X2555357Y-9675929D01*
X2569643Y-9661643D01*
X2569643Y-9690214D01*
X2698214Y-9418786D02*
X2712500Y-9404500D01*
X2741071Y-9390214D01*
X2812500Y-9390214D01*
X2841071Y-9404500D01*
X2855357Y-9418786D01*
X2869643Y-9447357D01*
X2869643Y-9475929D01*
X2855357Y-9518786D01*
X2683928Y-9690214D01*
X2869643Y-9690214D01*
X3055357Y-9390214D02*
X3083928Y-9390214D01*
X3112500Y-9404500D01*
X3126786Y-9418786D01*
X3141071Y-9447357D01*
X3155357Y-9504500D01*
X3155357Y-9575929D01*
X3141071Y-9633072D01*
X3126786Y-9661643D01*
X3112500Y-9675929D01*
X3083928Y-9690214D01*
X3055357Y-9690214D01*
X3026786Y-9675929D01*
X3012500Y-9661643D01*
X2998214Y-9633072D01*
X2983928Y-9575929D01*
X2983928Y-9504500D01*
X2998214Y-9447357D01*
X3012500Y-9418786D01*
X3026786Y-9404500D01*
X3055357Y-9390214D01*
X3283928Y-9690214D02*
X3283928Y-9490214D01*
X3283928Y-9518786D02*
X3298214Y-9504500D01*
X3326786Y-9490214D01*
X3369643Y-9490214D01*
X3398214Y-9504500D01*
X3412500Y-9533072D01*
X3412500Y-9690214D01*
X3412500Y-9533072D02*
X3426786Y-9504500D01*
X3455357Y-9490214D01*
X3498214Y-9490214D01*
X3526786Y-9504500D01*
X3541071Y-9533072D01*
X3541071Y-9690214D01*
X3683928Y-9690214D02*
X3683928Y-9490214D01*
X3683928Y-9518786D02*
X3698214Y-9504500D01*
X3726786Y-9490214D01*
X3769643Y-9490214D01*
X3798214Y-9504500D01*
X3812500Y-9533072D01*
X3812500Y-9690214D01*
X3812500Y-9533072D02*
X3826786Y-9504500D01*
X3855357Y-9490214D01*
X3898214Y-9490214D01*
X3926786Y-9504500D01*
X3941071Y-9533072D01*
X3941071Y-9690214D01*
X4526786Y-9375929D02*
X4269643Y-9761643D01*
X4912500Y-9390214D02*
X4941071Y-9390214D01*
X4969643Y-9404500D01*
X4983928Y-9418786D01*
X4998214Y-9447357D01*
X5012500Y-9504500D01*
X5012500Y-9575929D01*
X4998214Y-9633072D01*
X4983928Y-9661643D01*
X4969643Y-9675929D01*
X4941071Y-9690214D01*
X4912500Y-9690214D01*
X4883928Y-9675929D01*
X4869643Y-9661643D01*
X4855357Y-9633072D01*
X4841071Y-9575929D01*
X4841071Y-9504500D01*
X4855357Y-9447357D01*
X4869643Y-9418786D01*
X4883928Y-9404500D01*
X4912500Y-9390214D01*
X5141071Y-9661643D02*
X5155357Y-9675929D01*
X5141071Y-9690214D01*
X5126786Y-9675929D01*
X5141071Y-9661643D01*
X5141071Y-9690214D01*
X5341071Y-9390214D02*
X5369643Y-9390214D01*
X5398214Y-9404500D01*
X5412500Y-9418786D01*
X5426786Y-9447357D01*
X5441071Y-9504500D01*
X5441071Y-9575929D01*
X5426786Y-9633072D01*
X5412500Y-9661643D01*
X5398214Y-9675929D01*
X5369643Y-9690214D01*
X5341071Y-9690214D01*
X5312500Y-9675929D01*
X5298214Y-9661643D01*
X5283928Y-9633072D01*
X5269643Y-9575929D01*
X5269643Y-9504500D01*
X5283928Y-9447357D01*
X5298214Y-9418786D01*
X5312500Y-9404500D01*
X5341071Y-9390214D01*
X5698214Y-9490214D02*
X5698214Y-9690214D01*
X5626786Y-9375929D02*
X5555357Y-9590214D01*
X5741071Y-9590214D01*
X5826786Y-9390214D02*
X6026786Y-9390214D01*
X5898214Y-9690214D01*
X6126786Y-9390214D02*
X6126786Y-9447357D01*
X6241071Y-9390214D02*
X6241071Y-9447357D01*
X6683928Y-9804500D02*
X6669643Y-9790214D01*
X6641071Y-9747357D01*
X6626786Y-9718786D01*
X6612500Y-9675929D01*
X6598214Y-9604500D01*
X6598214Y-9547357D01*
X6612500Y-9475929D01*
X6626786Y-9433072D01*
X6641071Y-9404500D01*
X6669643Y-9361643D01*
X6683928Y-9347357D01*
X6955357Y-9690214D02*
X6783928Y-9690214D01*
X6869643Y-9690214D02*
X6869643Y-9390214D01*
X6841071Y-9433072D01*
X6812500Y-9461643D01*
X6783928Y-9475929D01*
X7141071Y-9390214D02*
X7169643Y-9390214D01*
X7198214Y-9404500D01*
X7212500Y-9418786D01*
X7226786Y-9447357D01*
X7241071Y-9504500D01*
X7241071Y-9575929D01*
X7226786Y-9633072D01*
X7212500Y-9661643D01*
X7198214Y-9675929D01*
X7169643Y-9690214D01*
X7141071Y-9690214D01*
X7112500Y-9675929D01*
X7098214Y-9661643D01*
X7083928Y-9633072D01*
X7069643Y-9575929D01*
X7069643Y-9504500D01*
X7083928Y-9447357D01*
X7098214Y-9418786D01*
X7112500Y-9404500D01*
X7141071Y-9390214D01*
X7598214Y-9690214D02*
X7598214Y-9390214D01*
X7726786Y-9690214D02*
X7726786Y-9533072D01*
X7712500Y-9504500D01*
X7683928Y-9490214D01*
X7641071Y-9490214D01*
X7612500Y-9504500D01*
X7598214Y-9518786D01*
X7912500Y-9690214D02*
X7883928Y-9675929D01*
X7869643Y-9661643D01*
X7855357Y-9633072D01*
X7855357Y-9547357D01*
X7869643Y-9518786D01*
X7883928Y-9504500D01*
X7912500Y-9490214D01*
X7955357Y-9490214D01*
X7983928Y-9504500D01*
X7998214Y-9518786D01*
X8012500Y-9547357D01*
X8012500Y-9633072D01*
X7998214Y-9661643D01*
X7983928Y-9675929D01*
X7955357Y-9690214D01*
X7912500Y-9690214D01*
X8183928Y-9690214D02*
X8155357Y-9675929D01*
X8141071Y-9647357D01*
X8141071Y-9390214D01*
X8412500Y-9675929D02*
X8383928Y-9690214D01*
X8326786Y-9690214D01*
X8298214Y-9675929D01*
X8283928Y-9647357D01*
X8283928Y-9533072D01*
X8298214Y-9504500D01*
X8326786Y-9490214D01*
X8383928Y-9490214D01*
X8412500Y-9504500D01*
X8426786Y-9533072D01*
X8426786Y-9561643D01*
X8283928Y-9590214D01*
X8541071Y-9675929D02*
X8569643Y-9690214D01*
X8626786Y-9690214D01*
X8655357Y-9675929D01*
X8669643Y-9647357D01*
X8669643Y-9633072D01*
X8655357Y-9604500D01*
X8626786Y-9590214D01*
X8583928Y-9590214D01*
X8555357Y-9575929D01*
X8541071Y-9547357D01*
X8541071Y-9533072D01*
X8555357Y-9504500D01*
X8583928Y-9490214D01*
X8626786Y-9490214D01*
X8655357Y-9504500D01*
X9026786Y-9575929D02*
X9255357Y-9575929D01*
X9141071Y-9690214D02*
X9141071Y-9461643D01*
X9755357Y-9490214D02*
X9755357Y-9690214D01*
X9683928Y-9375929D02*
X9612500Y-9590214D01*
X9798214Y-9590214D01*
X10126786Y-9675929D02*
X10155357Y-9690214D01*
X10212500Y-9690214D01*
X10241071Y-9675929D01*
X10255357Y-9647357D01*
X10255357Y-9633072D01*
X10241071Y-9604500D01*
X10212500Y-9590214D01*
X10169643Y-9590214D01*
X10141071Y-9575929D01*
X10126786Y-9547357D01*
X10126786Y-9533072D01*
X10141071Y-9504500D01*
X10169643Y-9490214D01*
X10212500Y-9490214D01*
X10241071Y-9504500D01*
X10426786Y-9690214D02*
X10398214Y-9675929D01*
X10383928Y-9647357D01*
X10383928Y-9390214D01*
X10583928Y-9690214D02*
X10555357Y-9675929D01*
X10541071Y-9661643D01*
X10526786Y-9633072D01*
X10526786Y-9547357D01*
X10541071Y-9518786D01*
X10555357Y-9504500D01*
X10583928Y-9490214D01*
X10626786Y-9490214D01*
X10655357Y-9504500D01*
X10669643Y-9518786D01*
X10683928Y-9547357D01*
X10683928Y-9633072D01*
X10669643Y-9661643D01*
X10655357Y-9675929D01*
X10626786Y-9690214D01*
X10583928Y-9690214D01*
X10769643Y-9490214D02*
X10883928Y-9490214D01*
X10812500Y-9390214D02*
X10812500Y-9647357D01*
X10826786Y-9675929D01*
X10855357Y-9690214D01*
X10883928Y-9690214D01*
X10969643Y-9675929D02*
X10998214Y-9690214D01*
X11055357Y-9690214D01*
X11083928Y-9675929D01*
X11098214Y-9647357D01*
X11098214Y-9633072D01*
X11083928Y-9604500D01*
X11055357Y-9590214D01*
X11012500Y-9590214D01*
X10983928Y-9575929D01*
X10969643Y-9547357D01*
X10969643Y-9533072D01*
X10983928Y-9504500D01*
X11012500Y-9490214D01*
X11055357Y-9490214D01*
X11083928Y-9504500D01*
X11198214Y-9804500D02*
X11212500Y-9790214D01*
X11241071Y-9747357D01*
X11255357Y-9718786D01*
X11269643Y-9675929D01*
X11283928Y-9604500D01*
X11283928Y-9547357D01*
X11269643Y-9475929D01*
X11255357Y-9433072D01*
X11241071Y-9404500D01*
X11212500Y-9361643D01*
X11198214Y-9347357D01*
M02*
