M48
; DRILL file {KiCad (5.1.9)-1} date 05/25/21 00:15:53
; FORMAT={-:-/ absolute / metric / decimal}
; #@! TF.CreationDate,2021-05-25T00:15:53+02:00
; #@! TF.GenerationSoftware,Kicad,Pcbnew,(5.1.9)-1
; #@! TF.FileFunction,Plated,1,2,PTH
FMAT,2
METRIC
T1C1.000
T2C1.010
T3C1.200
%
G90
G05
T2
X23.62Y-40.56
X24.82Y-33.26
X24.82Y-35.46
X28.17Y-40.56
X29.37Y-33.26
X29.37Y-35.46
T3
X28.5Y-25.8
X32.9Y-37.6
X60.4Y-37.6
X63.6Y-37.6
X74.22Y-25.8
X81.5Y-46.6
X81.5Y-70.6
X91.1Y-37.6
X95.97Y-37.59
X118.47Y-37.59
T1
X32.111Y-61.0G85X32.111Y-56.5
G05
X35.5Y-55.067G85X40.0Y-55.067
G05
X40.0Y-62.433G85X35.5Y-62.433
G05
X43.414Y-61.0G85X43.414Y-56.5
G05
X101.631Y-61.013G85X101.631Y-56.513
G05
X105.02Y-55.08G85X109.52Y-55.08
G05
X109.52Y-62.446G85X105.02Y-62.446
G05
X112.934Y-61.013G85X112.934Y-56.513
G05
T3
X79.9Y-22.7G85X79.7Y-22.7
G05
X79.9Y-27.78G85X79.7Y-27.78
G05
X84.98Y-22.7G85X84.78Y-22.7
G05
X84.98Y-27.78G85X84.78Y-27.78
G05
T0
M30
