G04 #@! TF.GenerationSoftware,KiCad,Pcbnew,(5.1.9)-1*
G04 #@! TF.CreationDate,2021-05-25T00:15:28+02:00*
G04 #@! TF.ProjectId,LF,4c462e6b-6963-4616-945f-706362585858,rev?*
G04 #@! TF.SameCoordinates,Original*
G04 #@! TF.FileFunction,Legend,Top*
G04 #@! TF.FilePolarity,Positive*
%FSLAX46Y46*%
G04 Gerber Fmt 4.6, Leading zero omitted, Abs format (unit mm)*
G04 Created by KiCad (PCBNEW (5.1.9)-1) date 2021-05-25 00:15:28*
%MOMM*%
%LPD*%
G01*
G04 APERTURE LIST*
%ADD10C,0.220000*%
%ADD11C,0.120000*%
%ADD12C,0.010000*%
%ADD13O,3.600000X2.100000*%
%ADD14C,2.010000*%
%ADD15C,2.400000*%
G04 APERTURE END LIST*
D10*
X30811428Y-65698571D02*
X30811428Y-66770000D01*
X30740000Y-66984285D01*
X30597142Y-67127142D01*
X30382857Y-67198571D01*
X30240000Y-67198571D01*
X32240000Y-67198571D02*
X31525714Y-67198571D01*
X31525714Y-65698571D01*
X33597142Y-67055714D02*
X33525714Y-67127142D01*
X33311428Y-67198571D01*
X33168571Y-67198571D01*
X32954285Y-67127142D01*
X32811428Y-66984285D01*
X32740000Y-66841428D01*
X32668571Y-66555714D01*
X32668571Y-66341428D01*
X32740000Y-66055714D01*
X32811428Y-65912857D01*
X32954285Y-65770000D01*
X33168571Y-65698571D01*
X33311428Y-65698571D01*
X33525714Y-65770000D01*
X33597142Y-65841428D01*
X34668571Y-65698571D02*
X34668571Y-66770000D01*
X34597142Y-66984285D01*
X34454285Y-67127142D01*
X34240000Y-67198571D01*
X34097142Y-67198571D01*
X36097142Y-67198571D02*
X35382857Y-67198571D01*
X35382857Y-65698571D01*
X37454285Y-67055714D02*
X37382857Y-67127142D01*
X37168571Y-67198571D01*
X37025714Y-67198571D01*
X36811428Y-67127142D01*
X36668571Y-66984285D01*
X36597142Y-66841428D01*
X36525714Y-66555714D01*
X36525714Y-66341428D01*
X36597142Y-66055714D01*
X36668571Y-65912857D01*
X36811428Y-65770000D01*
X37025714Y-65698571D01*
X37168571Y-65698571D01*
X37382857Y-65770000D01*
X37454285Y-65841428D01*
X38525714Y-65698571D02*
X38525714Y-66770000D01*
X38454285Y-66984285D01*
X38311428Y-67127142D01*
X38097142Y-67198571D01*
X37954285Y-67198571D01*
X39954285Y-67198571D02*
X39240000Y-67198571D01*
X39240000Y-65698571D01*
X41311428Y-67055714D02*
X41240000Y-67127142D01*
X41025714Y-67198571D01*
X40882857Y-67198571D01*
X40668571Y-67127142D01*
X40525714Y-66984285D01*
X40454285Y-66841428D01*
X40382857Y-66555714D01*
X40382857Y-66341428D01*
X40454285Y-66055714D01*
X40525714Y-65912857D01*
X40668571Y-65770000D01*
X40882857Y-65698571D01*
X41025714Y-65698571D01*
X41240000Y-65770000D01*
X41311428Y-65841428D01*
X42382857Y-65698571D02*
X42382857Y-66770000D01*
X42311428Y-66984285D01*
X42168571Y-67127142D01*
X41954285Y-67198571D01*
X41811428Y-67198571D01*
X43811428Y-67198571D02*
X43097142Y-67198571D01*
X43097142Y-65698571D01*
X45168571Y-67055714D02*
X45097142Y-67127142D01*
X44882857Y-67198571D01*
X44740000Y-67198571D01*
X44525714Y-67127142D01*
X44382857Y-66984285D01*
X44311428Y-66841428D01*
X44240000Y-66555714D01*
X44240000Y-66341428D01*
X44311428Y-66055714D01*
X44382857Y-65912857D01*
X44525714Y-65770000D01*
X44740000Y-65698571D01*
X44882857Y-65698571D01*
X45097142Y-65770000D01*
X45168571Y-65841428D01*
D11*
X92400000Y-55930000D02*
G75*
G03*
X92400000Y-55930000I-20000000J0D01*
G01*
D12*
G36*
X72607835Y-23504101D02*
G01*
X72759011Y-23505184D01*
X72881535Y-23507307D01*
X72982246Y-23510877D01*
X73067984Y-23516299D01*
X73145591Y-23523981D01*
X73221905Y-23534327D01*
X73303768Y-23547743D01*
X73373667Y-23560201D01*
X73763013Y-23644418D01*
X74143740Y-23755293D01*
X74527250Y-23895665D01*
X74728033Y-23978192D01*
X74891277Y-24050463D01*
X75019910Y-24114650D01*
X75116862Y-24172923D01*
X75185059Y-24227456D01*
X75227433Y-24280420D01*
X75246909Y-24333986D01*
X75246419Y-24390328D01*
X75238699Y-24423285D01*
X75195034Y-24508936D01*
X75127721Y-24567456D01*
X75045200Y-24591862D01*
X75034593Y-24592167D01*
X74987046Y-24583119D01*
X74911852Y-24558385D01*
X74819044Y-24521583D01*
X74735823Y-24484462D01*
X74617096Y-24430199D01*
X74484776Y-24371926D01*
X74358734Y-24318308D01*
X74294417Y-24291986D01*
X73877041Y-24147305D01*
X73445650Y-24040802D01*
X73004160Y-23972304D01*
X72556488Y-23941641D01*
X72106551Y-23948643D01*
X71658266Y-23993138D01*
X71215549Y-24074957D01*
X70782318Y-24193928D01*
X70362489Y-24349880D01*
X70090027Y-24475283D01*
X69959788Y-24536795D01*
X69858348Y-24575500D01*
X69779334Y-24592154D01*
X69716373Y-24587511D01*
X69663094Y-24562326D01*
X69625539Y-24530295D01*
X69573125Y-24450431D01*
X69558257Y-24359111D01*
X69581849Y-24266103D01*
X69598032Y-24237014D01*
X69637827Y-24199226D01*
X69712576Y-24151311D01*
X69816766Y-24095573D01*
X69944884Y-24034313D01*
X70091418Y-23969836D01*
X70250853Y-23904442D01*
X70417677Y-23840436D01*
X70586376Y-23780120D01*
X70751438Y-23725796D01*
X70907349Y-23679767D01*
X70975095Y-23661857D01*
X71153013Y-23618154D01*
X71310152Y-23583112D01*
X71454824Y-23555820D01*
X71595338Y-23535370D01*
X71740004Y-23520852D01*
X71897133Y-23511357D01*
X72075035Y-23505976D01*
X72282019Y-23503800D01*
X72421167Y-23503652D01*
X72607835Y-23504101D01*
G37*
X72607835Y-23504101D02*
X72759011Y-23505184D01*
X72881535Y-23507307D01*
X72982246Y-23510877D01*
X73067984Y-23516299D01*
X73145591Y-23523981D01*
X73221905Y-23534327D01*
X73303768Y-23547743D01*
X73373667Y-23560201D01*
X73763013Y-23644418D01*
X74143740Y-23755293D01*
X74527250Y-23895665D01*
X74728033Y-23978192D01*
X74891277Y-24050463D01*
X75019910Y-24114650D01*
X75116862Y-24172923D01*
X75185059Y-24227456D01*
X75227433Y-24280420D01*
X75246909Y-24333986D01*
X75246419Y-24390328D01*
X75238699Y-24423285D01*
X75195034Y-24508936D01*
X75127721Y-24567456D01*
X75045200Y-24591862D01*
X75034593Y-24592167D01*
X74987046Y-24583119D01*
X74911852Y-24558385D01*
X74819044Y-24521583D01*
X74735823Y-24484462D01*
X74617096Y-24430199D01*
X74484776Y-24371926D01*
X74358734Y-24318308D01*
X74294417Y-24291986D01*
X73877041Y-24147305D01*
X73445650Y-24040802D01*
X73004160Y-23972304D01*
X72556488Y-23941641D01*
X72106551Y-23948643D01*
X71658266Y-23993138D01*
X71215549Y-24074957D01*
X70782318Y-24193928D01*
X70362489Y-24349880D01*
X70090027Y-24475283D01*
X69959788Y-24536795D01*
X69858348Y-24575500D01*
X69779334Y-24592154D01*
X69716373Y-24587511D01*
X69663094Y-24562326D01*
X69625539Y-24530295D01*
X69573125Y-24450431D01*
X69558257Y-24359111D01*
X69581849Y-24266103D01*
X69598032Y-24237014D01*
X69637827Y-24199226D01*
X69712576Y-24151311D01*
X69816766Y-24095573D01*
X69944884Y-24034313D01*
X70091418Y-23969836D01*
X70250853Y-23904442D01*
X70417677Y-23840436D01*
X70586376Y-23780120D01*
X70751438Y-23725796D01*
X70907349Y-23679767D01*
X70975095Y-23661857D01*
X71153013Y-23618154D01*
X71310152Y-23583112D01*
X71454824Y-23555820D01*
X71595338Y-23535370D01*
X71740004Y-23520852D01*
X71897133Y-23511357D01*
X72075035Y-23505976D01*
X72282019Y-23503800D01*
X72421167Y-23503652D01*
X72607835Y-23504101D01*
G36*
X72755997Y-24600221D02*
G01*
X72940932Y-24612372D01*
X73035000Y-24622641D01*
X73504571Y-24703251D01*
X73951047Y-24819254D01*
X74374764Y-24970785D01*
X74776057Y-25157978D01*
X75155259Y-25380967D01*
X75451188Y-25591573D01*
X75587896Y-25702494D01*
X75726835Y-25825026D01*
X75864211Y-25954933D01*
X75996235Y-26087983D01*
X76119113Y-26219940D01*
X76229054Y-26346570D01*
X76322267Y-26463640D01*
X76394960Y-26566914D01*
X76443340Y-26652158D01*
X76463617Y-26715139D01*
X76464000Y-26722595D01*
X76445479Y-26806352D01*
X76397218Y-26882958D01*
X76337693Y-26930725D01*
X76269079Y-26957999D01*
X76206737Y-26961738D01*
X76145076Y-26939024D01*
X76078507Y-26886935D01*
X76001439Y-26802551D01*
X75937427Y-26721623D01*
X75808303Y-26563953D01*
X75655518Y-26396260D01*
X75491262Y-26231033D01*
X75327727Y-26080763D01*
X75239532Y-26006609D01*
X74907372Y-25765173D01*
X74552793Y-25557792D01*
X74179037Y-25384850D01*
X73789344Y-25246732D01*
X73386958Y-25143821D01*
X72975117Y-25076503D01*
X72557065Y-25045161D01*
X72136042Y-25050179D01*
X71715289Y-25091943D01*
X71298048Y-25170837D01*
X70887560Y-25287245D01*
X70487066Y-25441550D01*
X70484417Y-25442716D01*
X70152005Y-25609533D01*
X69827657Y-25811981D01*
X69518897Y-26044197D01*
X69233249Y-26300316D01*
X68978239Y-26574475D01*
X68886334Y-26688089D01*
X68806958Y-26789863D01*
X68747517Y-26862791D01*
X68702256Y-26911676D01*
X68665421Y-26941319D01*
X68631257Y-26956523D01*
X68594010Y-26962091D01*
X68557121Y-26962834D01*
X68488087Y-26957585D01*
X68439558Y-26936038D01*
X68397409Y-26897095D01*
X68358096Y-26845433D01*
X68337752Y-26791166D01*
X68338054Y-26730445D01*
X68360677Y-26659423D01*
X68407296Y-26574252D01*
X68479587Y-26471084D01*
X68579224Y-26346072D01*
X68697997Y-26206719D01*
X69001232Y-25889861D01*
X69330881Y-25605983D01*
X69686558Y-25355296D01*
X70067874Y-25138013D01*
X70474444Y-24954344D01*
X70905881Y-24804500D01*
X71361799Y-24688692D01*
X71542750Y-24653409D01*
X71703102Y-24630650D01*
X71894648Y-24613151D01*
X72106550Y-24601135D01*
X72327967Y-24594826D01*
X72548063Y-24594447D01*
X72755997Y-24600221D01*
G37*
X72755997Y-24600221D02*
X72940932Y-24612372D01*
X73035000Y-24622641D01*
X73504571Y-24703251D01*
X73951047Y-24819254D01*
X74374764Y-24970785D01*
X74776057Y-25157978D01*
X75155259Y-25380967D01*
X75451188Y-25591573D01*
X75587896Y-25702494D01*
X75726835Y-25825026D01*
X75864211Y-25954933D01*
X75996235Y-26087983D01*
X76119113Y-26219940D01*
X76229054Y-26346570D01*
X76322267Y-26463640D01*
X76394960Y-26566914D01*
X76443340Y-26652158D01*
X76463617Y-26715139D01*
X76464000Y-26722595D01*
X76445479Y-26806352D01*
X76397218Y-26882958D01*
X76337693Y-26930725D01*
X76269079Y-26957999D01*
X76206737Y-26961738D01*
X76145076Y-26939024D01*
X76078507Y-26886935D01*
X76001439Y-26802551D01*
X75937427Y-26721623D01*
X75808303Y-26563953D01*
X75655518Y-26396260D01*
X75491262Y-26231033D01*
X75327727Y-26080763D01*
X75239532Y-26006609D01*
X74907372Y-25765173D01*
X74552793Y-25557792D01*
X74179037Y-25384850D01*
X73789344Y-25246732D01*
X73386958Y-25143821D01*
X72975117Y-25076503D01*
X72557065Y-25045161D01*
X72136042Y-25050179D01*
X71715289Y-25091943D01*
X71298048Y-25170837D01*
X70887560Y-25287245D01*
X70487066Y-25441550D01*
X70484417Y-25442716D01*
X70152005Y-25609533D01*
X69827657Y-25811981D01*
X69518897Y-26044197D01*
X69233249Y-26300316D01*
X68978239Y-26574475D01*
X68886334Y-26688089D01*
X68806958Y-26789863D01*
X68747517Y-26862791D01*
X68702256Y-26911676D01*
X68665421Y-26941319D01*
X68631257Y-26956523D01*
X68594010Y-26962091D01*
X68557121Y-26962834D01*
X68488087Y-26957585D01*
X68439558Y-26936038D01*
X68397409Y-26897095D01*
X68358096Y-26845433D01*
X68337752Y-26791166D01*
X68338054Y-26730445D01*
X68360677Y-26659423D01*
X68407296Y-26574252D01*
X68479587Y-26471084D01*
X68579224Y-26346072D01*
X68697997Y-26206719D01*
X69001232Y-25889861D01*
X69330881Y-25605983D01*
X69686558Y-25355296D01*
X70067874Y-25138013D01*
X70474444Y-24954344D01*
X70905881Y-24804500D01*
X71361799Y-24688692D01*
X71542750Y-24653409D01*
X71703102Y-24630650D01*
X71894648Y-24613151D01*
X72106550Y-24601135D01*
X72327967Y-24594826D01*
X72548063Y-24594447D01*
X72755997Y-24600221D01*
G36*
X72469520Y-28998613D02*
G01*
X72499243Y-29014978D01*
X72555173Y-29067324D01*
X72591168Y-29146551D01*
X72608930Y-29257529D01*
X72611549Y-29336078D01*
X72621605Y-29454506D01*
X72649235Y-29596799D01*
X72690934Y-29750110D01*
X72743200Y-29901591D01*
X72802529Y-30038394D01*
X72803739Y-30040842D01*
X72940581Y-30272344D01*
X73109864Y-30484199D01*
X73306264Y-30671952D01*
X73524456Y-30831152D01*
X73759115Y-30957344D01*
X74004915Y-31046074D01*
X74006065Y-31046389D01*
X74287727Y-31102792D01*
X74583062Y-31122747D01*
X74847783Y-31109557D01*
X74974957Y-31096675D01*
X75067663Y-31088933D01*
X75133458Y-31086388D01*
X75179902Y-31089094D01*
X75214552Y-31097106D01*
X75244967Y-31110482D01*
X75248787Y-31112501D01*
X75295297Y-31154846D01*
X75336106Y-31220178D01*
X75360490Y-31289449D01*
X75363254Y-31315782D01*
X75347396Y-31375453D01*
X75308159Y-31440661D01*
X75257734Y-31493996D01*
X75224265Y-31514231D01*
X75130734Y-31539810D01*
X75004220Y-31559846D01*
X74853786Y-31573711D01*
X74688495Y-31580780D01*
X74517412Y-31580424D01*
X74368500Y-31573419D01*
X74063562Y-31531434D01*
X73771272Y-31451255D01*
X73494379Y-31335655D01*
X73235634Y-31187404D01*
X72997785Y-31009274D01*
X72783583Y-30804035D01*
X72595778Y-30574460D01*
X72437118Y-30323320D01*
X72310353Y-30053385D01*
X72218234Y-29767428D01*
X72163510Y-29468220D01*
X72152369Y-29339807D01*
X72139737Y-29123864D01*
X72214835Y-29048765D01*
X72295477Y-28990129D01*
X72379555Y-28973508D01*
X72469520Y-28998613D01*
G37*
X72469520Y-28998613D02*
X72499243Y-29014978D01*
X72555173Y-29067324D01*
X72591168Y-29146551D01*
X72608930Y-29257529D01*
X72611549Y-29336078D01*
X72621605Y-29454506D01*
X72649235Y-29596799D01*
X72690934Y-29750110D01*
X72743200Y-29901591D01*
X72802529Y-30038394D01*
X72803739Y-30040842D01*
X72940581Y-30272344D01*
X73109864Y-30484199D01*
X73306264Y-30671952D01*
X73524456Y-30831152D01*
X73759115Y-30957344D01*
X74004915Y-31046074D01*
X74006065Y-31046389D01*
X74287727Y-31102792D01*
X74583062Y-31122747D01*
X74847783Y-31109557D01*
X74974957Y-31096675D01*
X75067663Y-31088933D01*
X75133458Y-31086388D01*
X75179902Y-31089094D01*
X75214552Y-31097106D01*
X75244967Y-31110482D01*
X75248787Y-31112501D01*
X75295297Y-31154846D01*
X75336106Y-31220178D01*
X75360490Y-31289449D01*
X75363254Y-31315782D01*
X75347396Y-31375453D01*
X75308159Y-31440661D01*
X75257734Y-31493996D01*
X75224265Y-31514231D01*
X75130734Y-31539810D01*
X75004220Y-31559846D01*
X74853786Y-31573711D01*
X74688495Y-31580780D01*
X74517412Y-31580424D01*
X74368500Y-31573419D01*
X74063562Y-31531434D01*
X73771272Y-31451255D01*
X73494379Y-31335655D01*
X73235634Y-31187404D01*
X72997785Y-31009274D01*
X72783583Y-30804035D01*
X72595778Y-30574460D01*
X72437118Y-30323320D01*
X72310353Y-30053385D01*
X72218234Y-29767428D01*
X72163510Y-29468220D01*
X72152369Y-29339807D01*
X72139737Y-29123864D01*
X72214835Y-29048765D01*
X72295477Y-28990129D01*
X72379555Y-28973508D01*
X72469520Y-28998613D01*
G36*
X72630674Y-26780255D02*
G01*
X72790340Y-26794851D01*
X72850637Y-26803900D01*
X73167212Y-26879414D01*
X73470288Y-26992073D01*
X73755461Y-27139431D01*
X74018328Y-27319042D01*
X74254482Y-27528460D01*
X74359621Y-27641801D01*
X74556490Y-27897917D01*
X74713420Y-28167345D01*
X74831242Y-28451995D01*
X74910785Y-28753779D01*
X74945608Y-28990398D01*
X74955685Y-29096324D01*
X74960179Y-29169858D01*
X74958662Y-29220626D01*
X74950704Y-29258253D01*
X74935876Y-29292366D01*
X74931793Y-29300087D01*
X74870737Y-29375573D01*
X74792523Y-29417705D01*
X74706503Y-29424960D01*
X74622029Y-29395817D01*
X74574045Y-29358315D01*
X74544268Y-29325649D01*
X74524417Y-29292217D01*
X74511429Y-29247583D01*
X74502240Y-29181312D01*
X74493991Y-29085617D01*
X74482789Y-28975972D01*
X74466876Y-28863783D01*
X74449064Y-28767924D01*
X74442465Y-28740025D01*
X74353585Y-28478104D01*
X74228997Y-28234433D01*
X74072224Y-28011354D01*
X73886789Y-27811210D01*
X73676215Y-27636343D01*
X73444027Y-27489098D01*
X73193746Y-27371815D01*
X72928896Y-27286838D01*
X72653000Y-27236510D01*
X72369581Y-27223172D01*
X72180233Y-27235758D01*
X71876337Y-27288004D01*
X71596568Y-27374283D01*
X71338238Y-27495872D01*
X71098658Y-27654050D01*
X70875139Y-27850091D01*
X70864730Y-27860514D01*
X70677598Y-28074493D01*
X70529658Y-28301081D01*
X70419834Y-28542955D01*
X70347049Y-28802796D01*
X70310225Y-29083284D01*
X70304913Y-29253233D01*
X70324480Y-29640938D01*
X70382307Y-30014831D01*
X70478965Y-30376251D01*
X70615029Y-30726539D01*
X70791069Y-31067036D01*
X71007658Y-31399083D01*
X71265369Y-31724020D01*
X71442960Y-31919262D01*
X71529283Y-32015903D01*
X71584350Y-32094745D01*
X71611181Y-32162836D01*
X71612796Y-32227224D01*
X71597905Y-32280949D01*
X71557133Y-32339241D01*
X71491420Y-32389082D01*
X71418050Y-32419001D01*
X71384000Y-32422907D01*
X71325722Y-32412030D01*
X71273895Y-32391094D01*
X71232913Y-32359865D01*
X71171155Y-32301482D01*
X71094061Y-32222031D01*
X71007072Y-32127597D01*
X70915626Y-32024265D01*
X70825163Y-31918123D01*
X70741123Y-31815254D01*
X70668946Y-31721746D01*
X70640400Y-31682380D01*
X70425068Y-31350080D01*
X70241921Y-31010221D01*
X70094098Y-30669139D01*
X70000957Y-30391302D01*
X69948249Y-30180102D01*
X69905047Y-29948793D01*
X69872408Y-29708104D01*
X69851390Y-29468764D01*
X69843051Y-29241503D01*
X69848450Y-29037048D01*
X69857667Y-28938132D01*
X69916349Y-28630448D01*
X70013136Y-28337318D01*
X70145537Y-28061280D01*
X70311064Y-27804875D01*
X70507229Y-27570641D01*
X70731541Y-27361119D01*
X70981513Y-27178848D01*
X71254654Y-27026368D01*
X71548477Y-26906218D01*
X71860493Y-26820938D01*
X71949363Y-26803900D01*
X72095557Y-26785685D01*
X72268017Y-26775672D01*
X72451477Y-26773862D01*
X72630674Y-26780255D01*
G37*
X72630674Y-26780255D02*
X72790340Y-26794851D01*
X72850637Y-26803900D01*
X73167212Y-26879414D01*
X73470288Y-26992073D01*
X73755461Y-27139431D01*
X74018328Y-27319042D01*
X74254482Y-27528460D01*
X74359621Y-27641801D01*
X74556490Y-27897917D01*
X74713420Y-28167345D01*
X74831242Y-28451995D01*
X74910785Y-28753779D01*
X74945608Y-28990398D01*
X74955685Y-29096324D01*
X74960179Y-29169858D01*
X74958662Y-29220626D01*
X74950704Y-29258253D01*
X74935876Y-29292366D01*
X74931793Y-29300087D01*
X74870737Y-29375573D01*
X74792523Y-29417705D01*
X74706503Y-29424960D01*
X74622029Y-29395817D01*
X74574045Y-29358315D01*
X74544268Y-29325649D01*
X74524417Y-29292217D01*
X74511429Y-29247583D01*
X74502240Y-29181312D01*
X74493991Y-29085617D01*
X74482789Y-28975972D01*
X74466876Y-28863783D01*
X74449064Y-28767924D01*
X74442465Y-28740025D01*
X74353585Y-28478104D01*
X74228997Y-28234433D01*
X74072224Y-28011354D01*
X73886789Y-27811210D01*
X73676215Y-27636343D01*
X73444027Y-27489098D01*
X73193746Y-27371815D01*
X72928896Y-27286838D01*
X72653000Y-27236510D01*
X72369581Y-27223172D01*
X72180233Y-27235758D01*
X71876337Y-27288004D01*
X71596568Y-27374283D01*
X71338238Y-27495872D01*
X71098658Y-27654050D01*
X70875139Y-27850091D01*
X70864730Y-27860514D01*
X70677598Y-28074493D01*
X70529658Y-28301081D01*
X70419834Y-28542955D01*
X70347049Y-28802796D01*
X70310225Y-29083284D01*
X70304913Y-29253233D01*
X70324480Y-29640938D01*
X70382307Y-30014831D01*
X70478965Y-30376251D01*
X70615029Y-30726539D01*
X70791069Y-31067036D01*
X71007658Y-31399083D01*
X71265369Y-31724020D01*
X71442960Y-31919262D01*
X71529283Y-32015903D01*
X71584350Y-32094745D01*
X71611181Y-32162836D01*
X71612796Y-32227224D01*
X71597905Y-32280949D01*
X71557133Y-32339241D01*
X71491420Y-32389082D01*
X71418050Y-32419001D01*
X71384000Y-32422907D01*
X71325722Y-32412030D01*
X71273895Y-32391094D01*
X71232913Y-32359865D01*
X71171155Y-32301482D01*
X71094061Y-32222031D01*
X71007072Y-32127597D01*
X70915626Y-32024265D01*
X70825163Y-31918123D01*
X70741123Y-31815254D01*
X70668946Y-31721746D01*
X70640400Y-31682380D01*
X70425068Y-31350080D01*
X70241921Y-31010221D01*
X70094098Y-30669139D01*
X70000957Y-30391302D01*
X69948249Y-30180102D01*
X69905047Y-29948793D01*
X69872408Y-29708104D01*
X69851390Y-29468764D01*
X69843051Y-29241503D01*
X69848450Y-29037048D01*
X69857667Y-28938132D01*
X69916349Y-28630448D01*
X70013136Y-28337318D01*
X70145537Y-28061280D01*
X70311064Y-27804875D01*
X70507229Y-27570641D01*
X70731541Y-27361119D01*
X70981513Y-27178848D01*
X71254654Y-27026368D01*
X71548477Y-26906218D01*
X71860493Y-26820938D01*
X71949363Y-26803900D01*
X72095557Y-26785685D01*
X72268017Y-26775672D01*
X72451477Y-26773862D01*
X72630674Y-26780255D01*
G36*
X72844986Y-25687821D02*
G01*
X73242458Y-25755518D01*
X73458334Y-25809634D01*
X73823148Y-25932712D01*
X74169648Y-26091627D01*
X74495496Y-26283923D01*
X74798355Y-26507144D01*
X75075886Y-26758832D01*
X75325751Y-27036531D01*
X75545612Y-27337784D01*
X75733131Y-27660135D01*
X75885970Y-28001126D01*
X76001791Y-28358302D01*
X76041207Y-28523636D01*
X76066804Y-28671808D01*
X76085431Y-28836284D01*
X76096726Y-29006479D01*
X76100323Y-29171807D01*
X76095862Y-29321683D01*
X76082977Y-29445522D01*
X76074354Y-29489852D01*
X76009604Y-29680142D01*
X75909238Y-29866305D01*
X75779771Y-30040082D01*
X75627717Y-30193212D01*
X75459591Y-30317437D01*
X75390860Y-30356377D01*
X75164319Y-30451327D01*
X74932305Y-30506409D01*
X74699118Y-30522704D01*
X74469057Y-30501291D01*
X74246424Y-30443248D01*
X74035517Y-30349654D01*
X73840638Y-30221590D01*
X73666085Y-30060134D01*
X73531673Y-29889762D01*
X73440325Y-29726615D01*
X73376272Y-29544833D01*
X73336955Y-29336580D01*
X73330055Y-29272740D01*
X73311957Y-29114622D01*
X73288617Y-28988941D01*
X73257005Y-28885859D01*
X73214088Y-28795535D01*
X73156833Y-28708130D01*
X73155496Y-28706311D01*
X73025924Y-28564808D01*
X72871121Y-28453967D01*
X72697312Y-28376117D01*
X72510719Y-28333583D01*
X72317563Y-28328695D01*
X72193309Y-28346411D01*
X71998611Y-28406871D01*
X71828797Y-28499475D01*
X71686568Y-28621596D01*
X71574627Y-28770605D01*
X71495675Y-28943875D01*
X71466272Y-29053442D01*
X71454651Y-29125154D01*
X71449993Y-29201557D01*
X71452229Y-29294234D01*
X71461290Y-29414769D01*
X71463957Y-29443685D01*
X71516475Y-29796116D01*
X71605926Y-30128154D01*
X71732841Y-30440885D01*
X71897753Y-30735400D01*
X72101192Y-31012785D01*
X72343691Y-31274128D01*
X72371608Y-31300842D01*
X72603787Y-31501917D01*
X72844746Y-31671864D01*
X73103299Y-31815847D01*
X73388261Y-31939028D01*
X73571978Y-32003917D01*
X73671756Y-32037833D01*
X73758387Y-32069421D01*
X73823030Y-32095310D01*
X73856844Y-32112129D01*
X73857956Y-32112984D01*
X73886508Y-32149079D01*
X73915434Y-32203311D01*
X73917738Y-32208690D01*
X73933316Y-32296973D01*
X73911317Y-32384033D01*
X73855107Y-32457884D01*
X73845530Y-32465836D01*
X73793816Y-32494082D01*
X73728296Y-32504910D01*
X73643123Y-32497799D01*
X73532455Y-32472225D01*
X73390446Y-32427664D01*
X73380323Y-32424212D01*
X73065251Y-32303158D01*
X72779647Y-32164190D01*
X72512271Y-32001000D01*
X72251882Y-31807284D01*
X72191000Y-31757079D01*
X71918349Y-31501489D01*
X71677474Y-31219893D01*
X71470435Y-30915304D01*
X71299294Y-30590735D01*
X71172029Y-30267210D01*
X71115266Y-30087384D01*
X71073680Y-29931345D01*
X71044613Y-29784486D01*
X71025406Y-29632203D01*
X71013401Y-29459888D01*
X71009785Y-29375834D01*
X71005647Y-29209202D01*
X71008187Y-29074803D01*
X71019047Y-28962834D01*
X71039868Y-28863494D01*
X71072291Y-28766983D01*
X71117959Y-28663500D01*
X71134913Y-28628773D01*
X71251046Y-28440885D01*
X71400881Y-28272421D01*
X71578511Y-28127864D01*
X71778030Y-28011698D01*
X71993531Y-27928405D01*
X72090398Y-27903647D01*
X72323735Y-27873927D01*
X72556206Y-27883711D01*
X72782788Y-27930763D01*
X72998461Y-28012846D01*
X73198205Y-28127726D01*
X73376997Y-28273165D01*
X73529819Y-28446928D01*
X73618656Y-28584226D01*
X73672977Y-28699904D01*
X73719995Y-28835354D01*
X73755163Y-28974339D01*
X73773933Y-29100626D01*
X73775834Y-29145344D01*
X73795432Y-29337233D01*
X73851392Y-29513934D01*
X73939460Y-29672198D01*
X74055382Y-29808777D01*
X74194906Y-29920422D01*
X74353777Y-30003885D01*
X74527743Y-30055916D01*
X74712550Y-30073266D01*
X74903944Y-30052689D01*
X74949704Y-30041923D01*
X75144230Y-29971815D01*
X75309874Y-29871692D01*
X75444905Y-29744016D01*
X75547592Y-29591254D01*
X75616205Y-29415869D01*
X75649012Y-29220326D01*
X75648065Y-29047750D01*
X75601363Y-28682902D01*
X75518789Y-28340017D01*
X75399560Y-28017374D01*
X75242892Y-27713252D01*
X75048002Y-27425931D01*
X74814105Y-27153688D01*
X74760804Y-27099120D01*
X74663136Y-27004905D01*
X74558429Y-26910062D01*
X74457741Y-26824241D01*
X74372130Y-26757092D01*
X74353706Y-26743883D01*
X74030339Y-26543384D01*
X73691396Y-26381224D01*
X73339915Y-26257849D01*
X72978934Y-26173701D01*
X72611492Y-26129226D01*
X72240627Y-26124869D01*
X71869376Y-26161072D01*
X71500779Y-26238281D01*
X71302473Y-26297656D01*
X70960417Y-26431620D01*
X70641351Y-26597579D01*
X70347289Y-26793254D01*
X70080244Y-27016367D01*
X69842232Y-27264638D01*
X69635266Y-27535788D01*
X69461361Y-27827537D01*
X69322531Y-28137608D01*
X69220789Y-28463721D01*
X69171332Y-28709084D01*
X69156032Y-28846296D01*
X69146979Y-29014008D01*
X69143978Y-29200879D01*
X69146830Y-29395569D01*
X69155341Y-29586737D01*
X69169313Y-29763044D01*
X69188551Y-29913147D01*
X69192601Y-29936750D01*
X69225376Y-30097938D01*
X69268359Y-30279092D01*
X69317254Y-30463793D01*
X69367767Y-30635620D01*
X69404978Y-30748587D01*
X69432793Y-30833074D01*
X69445846Y-30891315D01*
X69445878Y-30936049D01*
X69436046Y-30975798D01*
X69390275Y-31057474D01*
X69322073Y-31110912D01*
X69241147Y-31133426D01*
X69157204Y-31122329D01*
X69079949Y-31074937D01*
X69079441Y-31074459D01*
X69031702Y-31010274D01*
X68982330Y-30909165D01*
X68932635Y-30776438D01*
X68883930Y-30617401D01*
X68837527Y-30437359D01*
X68794737Y-30241620D01*
X68756871Y-30035489D01*
X68725241Y-29824275D01*
X68701159Y-29613282D01*
X68692236Y-29507869D01*
X68681657Y-29107014D01*
X68710275Y-28721847D01*
X68778004Y-28352613D01*
X68884757Y-27999560D01*
X69030447Y-27662937D01*
X69214987Y-27342989D01*
X69438291Y-27039964D01*
X69636519Y-26818401D01*
X69928659Y-26546462D01*
X70243027Y-26309481D01*
X70576993Y-26108155D01*
X70927926Y-25943176D01*
X71293193Y-25815241D01*
X71670164Y-25725043D01*
X72056208Y-25673278D01*
X72448692Y-25660639D01*
X72844986Y-25687821D01*
G37*
X72844986Y-25687821D02*
X73242458Y-25755518D01*
X73458334Y-25809634D01*
X73823148Y-25932712D01*
X74169648Y-26091627D01*
X74495496Y-26283923D01*
X74798355Y-26507144D01*
X75075886Y-26758832D01*
X75325751Y-27036531D01*
X75545612Y-27337784D01*
X75733131Y-27660135D01*
X75885970Y-28001126D01*
X76001791Y-28358302D01*
X76041207Y-28523636D01*
X76066804Y-28671808D01*
X76085431Y-28836284D01*
X76096726Y-29006479D01*
X76100323Y-29171807D01*
X76095862Y-29321683D01*
X76082977Y-29445522D01*
X76074354Y-29489852D01*
X76009604Y-29680142D01*
X75909238Y-29866305D01*
X75779771Y-30040082D01*
X75627717Y-30193212D01*
X75459591Y-30317437D01*
X75390860Y-30356377D01*
X75164319Y-30451327D01*
X74932305Y-30506409D01*
X74699118Y-30522704D01*
X74469057Y-30501291D01*
X74246424Y-30443248D01*
X74035517Y-30349654D01*
X73840638Y-30221590D01*
X73666085Y-30060134D01*
X73531673Y-29889762D01*
X73440325Y-29726615D01*
X73376272Y-29544833D01*
X73336955Y-29336580D01*
X73330055Y-29272740D01*
X73311957Y-29114622D01*
X73288617Y-28988941D01*
X73257005Y-28885859D01*
X73214088Y-28795535D01*
X73156833Y-28708130D01*
X73155496Y-28706311D01*
X73025924Y-28564808D01*
X72871121Y-28453967D01*
X72697312Y-28376117D01*
X72510719Y-28333583D01*
X72317563Y-28328695D01*
X72193309Y-28346411D01*
X71998611Y-28406871D01*
X71828797Y-28499475D01*
X71686568Y-28621596D01*
X71574627Y-28770605D01*
X71495675Y-28943875D01*
X71466272Y-29053442D01*
X71454651Y-29125154D01*
X71449993Y-29201557D01*
X71452229Y-29294234D01*
X71461290Y-29414769D01*
X71463957Y-29443685D01*
X71516475Y-29796116D01*
X71605926Y-30128154D01*
X71732841Y-30440885D01*
X71897753Y-30735400D01*
X72101192Y-31012785D01*
X72343691Y-31274128D01*
X72371608Y-31300842D01*
X72603787Y-31501917D01*
X72844746Y-31671864D01*
X73103299Y-31815847D01*
X73388261Y-31939028D01*
X73571978Y-32003917D01*
X73671756Y-32037833D01*
X73758387Y-32069421D01*
X73823030Y-32095310D01*
X73856844Y-32112129D01*
X73857956Y-32112984D01*
X73886508Y-32149079D01*
X73915434Y-32203311D01*
X73917738Y-32208690D01*
X73933316Y-32296973D01*
X73911317Y-32384033D01*
X73855107Y-32457884D01*
X73845530Y-32465836D01*
X73793816Y-32494082D01*
X73728296Y-32504910D01*
X73643123Y-32497799D01*
X73532455Y-32472225D01*
X73390446Y-32427664D01*
X73380323Y-32424212D01*
X73065251Y-32303158D01*
X72779647Y-32164190D01*
X72512271Y-32001000D01*
X72251882Y-31807284D01*
X72191000Y-31757079D01*
X71918349Y-31501489D01*
X71677474Y-31219893D01*
X71470435Y-30915304D01*
X71299294Y-30590735D01*
X71172029Y-30267210D01*
X71115266Y-30087384D01*
X71073680Y-29931345D01*
X71044613Y-29784486D01*
X71025406Y-29632203D01*
X71013401Y-29459888D01*
X71009785Y-29375834D01*
X71005647Y-29209202D01*
X71008187Y-29074803D01*
X71019047Y-28962834D01*
X71039868Y-28863494D01*
X71072291Y-28766983D01*
X71117959Y-28663500D01*
X71134913Y-28628773D01*
X71251046Y-28440885D01*
X71400881Y-28272421D01*
X71578511Y-28127864D01*
X71778030Y-28011698D01*
X71993531Y-27928405D01*
X72090398Y-27903647D01*
X72323735Y-27873927D01*
X72556206Y-27883711D01*
X72782788Y-27930763D01*
X72998461Y-28012846D01*
X73198205Y-28127726D01*
X73376997Y-28273165D01*
X73529819Y-28446928D01*
X73618656Y-28584226D01*
X73672977Y-28699904D01*
X73719995Y-28835354D01*
X73755163Y-28974339D01*
X73773933Y-29100626D01*
X73775834Y-29145344D01*
X73795432Y-29337233D01*
X73851392Y-29513934D01*
X73939460Y-29672198D01*
X74055382Y-29808777D01*
X74194906Y-29920422D01*
X74353777Y-30003885D01*
X74527743Y-30055916D01*
X74712550Y-30073266D01*
X74903944Y-30052689D01*
X74949704Y-30041923D01*
X75144230Y-29971815D01*
X75309874Y-29871692D01*
X75444905Y-29744016D01*
X75547592Y-29591254D01*
X75616205Y-29415869D01*
X75649012Y-29220326D01*
X75648065Y-29047750D01*
X75601363Y-28682902D01*
X75518789Y-28340017D01*
X75399560Y-28017374D01*
X75242892Y-27713252D01*
X75048002Y-27425931D01*
X74814105Y-27153688D01*
X74760804Y-27099120D01*
X74663136Y-27004905D01*
X74558429Y-26910062D01*
X74457741Y-26824241D01*
X74372130Y-26757092D01*
X74353706Y-26743883D01*
X74030339Y-26543384D01*
X73691396Y-26381224D01*
X73339915Y-26257849D01*
X72978934Y-26173701D01*
X72611492Y-26129226D01*
X72240627Y-26124869D01*
X71869376Y-26161072D01*
X71500779Y-26238281D01*
X71302473Y-26297656D01*
X70960417Y-26431620D01*
X70641351Y-26597579D01*
X70347289Y-26793254D01*
X70080244Y-27016367D01*
X69842232Y-27264638D01*
X69635266Y-27535788D01*
X69461361Y-27827537D01*
X69322531Y-28137608D01*
X69220789Y-28463721D01*
X69171332Y-28709084D01*
X69156032Y-28846296D01*
X69146979Y-29014008D01*
X69143978Y-29200879D01*
X69146830Y-29395569D01*
X69155341Y-29586737D01*
X69169313Y-29763044D01*
X69188551Y-29913147D01*
X69192601Y-29936750D01*
X69225376Y-30097938D01*
X69268359Y-30279092D01*
X69317254Y-30463793D01*
X69367767Y-30635620D01*
X69404978Y-30748587D01*
X69432793Y-30833074D01*
X69445846Y-30891315D01*
X69445878Y-30936049D01*
X69436046Y-30975798D01*
X69390275Y-31057474D01*
X69322073Y-31110912D01*
X69241147Y-31133426D01*
X69157204Y-31122329D01*
X69079949Y-31074937D01*
X69079441Y-31074459D01*
X69031702Y-31010274D01*
X68982330Y-30909165D01*
X68932635Y-30776438D01*
X68883930Y-30617401D01*
X68837527Y-30437359D01*
X68794737Y-30241620D01*
X68756871Y-30035489D01*
X68725241Y-29824275D01*
X68701159Y-29613282D01*
X68692236Y-29507869D01*
X68681657Y-29107014D01*
X68710275Y-28721847D01*
X68778004Y-28352613D01*
X68884757Y-27999560D01*
X69030447Y-27662937D01*
X69214987Y-27342989D01*
X69438291Y-27039964D01*
X69636519Y-26818401D01*
X69928659Y-26546462D01*
X70243027Y-26309481D01*
X70576993Y-26108155D01*
X70927926Y-25943176D01*
X71293193Y-25815241D01*
X71670164Y-25725043D01*
X72056208Y-25673278D01*
X72448692Y-25660639D01*
X72844986Y-25687821D01*
D11*
X28320000Y-32869000D02*
X28320000Y-33090000D01*
X28320000Y-37049000D02*
X28320000Y-42370000D01*
X25120000Y-42149000D02*
X25120000Y-42370000D01*
X28320000Y-32870000D02*
X28070000Y-32870000D01*
X28320000Y-42370000D02*
X26869000Y-42370000D01*
X26570000Y-32870000D02*
X25120000Y-32870000D01*
X25370000Y-42370000D02*
X25120000Y-42370000D01*
X25120000Y-32870000D02*
X25120000Y-40392000D01*
X24420000Y-32869000D02*
X24420000Y-33090000D01*
X24420000Y-37049000D02*
X24420000Y-42370000D01*
X21220000Y-42149000D02*
X21220000Y-42370000D01*
X24420000Y-32870000D02*
X24170000Y-32870000D01*
X24420000Y-42370000D02*
X22969000Y-42370000D01*
X22670000Y-32870000D02*
X21220000Y-32870000D01*
X21470000Y-42370000D02*
X21220000Y-42370000D01*
X21220000Y-32870000D02*
X21220000Y-40392000D01*
X90380000Y-27070000D02*
X122120000Y-27070000D01*
X90380000Y-27070000D02*
X90380000Y-42310000D01*
X122120000Y-27070000D02*
X122120000Y-42310000D01*
X90380000Y-42310000D02*
X122120000Y-42310000D01*
X48900000Y-70667000D02*
G75*
G03*
X48900000Y-70667000I-1750000J0D01*
G01*
X24530000Y-70787000D02*
X24530000Y-46547000D01*
X28030000Y-43047000D02*
X47270000Y-43047000D01*
X50770000Y-70787000D02*
X50770000Y-46547000D01*
X28030000Y-74287000D02*
X47270000Y-74287000D01*
X49500800Y-58794000D02*
G75*
G03*
X49500800Y-58794000I-11800000J0D01*
G01*
X29900000Y-46667000D02*
G75*
G03*
X29900000Y-46667000I-1750000J0D01*
G01*
X47030000Y-74287000D02*
G75*
G03*
X50770000Y-70787000I120000J3620000D01*
G01*
X28270000Y-43047000D02*
G75*
G03*
X24530000Y-46547000I-120000J-3620000D01*
G01*
X24530000Y-70547000D02*
G75*
G03*
X28030000Y-74287000I3620000J-120000D01*
G01*
X50770000Y-46787000D02*
G75*
G03*
X47270000Y-43047000I-3620000J120000D01*
G01*
X99400000Y-46670000D02*
G75*
G03*
X99400000Y-46670000I-1750000J0D01*
G01*
X119000800Y-58797000D02*
G75*
G03*
X119000800Y-58797000I-11800000J0D01*
G01*
X97530000Y-74290000D02*
X116770000Y-74290000D01*
X120270000Y-70790000D02*
X120270000Y-46550000D01*
X97530000Y-43050000D02*
X116770000Y-43050000D01*
X94030000Y-70790000D02*
X94030000Y-46550000D01*
X118400000Y-70670000D02*
G75*
G03*
X118400000Y-70670000I-1750000J0D01*
G01*
X120270000Y-46790000D02*
G75*
G03*
X116770000Y-43050000I-3620000J120000D01*
G01*
X94030000Y-70550000D02*
G75*
G03*
X97530000Y-74290000I3620000J-120000D01*
G01*
X97770000Y-43050000D02*
G75*
G03*
X94030000Y-46550000I-120000J-3620000D01*
G01*
X116530000Y-74290000D02*
G75*
G03*
X120270000Y-70790000I120000J3620000D01*
G01*
%LPC*%
G36*
G01*
X49450100Y-29270000D02*
X46349900Y-29270000D01*
G75*
G02*
X46100000Y-29020100I0J249900D01*
G01*
X46100000Y-27419900D01*
G75*
G02*
X46349900Y-27170000I249900J0D01*
G01*
X49450100Y-27170000D01*
G75*
G02*
X49700000Y-27419900I0J-249900D01*
G01*
X49700000Y-29020100D01*
G75*
G02*
X49450100Y-29270000I-249900J0D01*
G01*
G37*
D13*
X42820000Y-23140000D03*
X42820000Y-28220000D03*
X47900000Y-23140000D03*
D14*
X26120000Y-41270000D03*
X27320000Y-36170000D03*
X27320000Y-33970000D03*
X22220000Y-41270000D03*
X23420000Y-36170000D03*
X23420000Y-33970000D03*
D15*
X86120000Y-28220000D03*
X53120000Y-28220000D03*
X115000000Y-34690000D03*
X92500000Y-34690000D03*
X120000000Y-34690000D03*
X48040000Y-36020000D03*
X86140000Y-34720000D03*
G36*
G01*
X35500000Y-60933000D02*
X40000000Y-60933000D01*
G75*
G02*
X40750000Y-61683000I0J-750000D01*
G01*
X40750000Y-63183000D01*
G75*
G02*
X40000000Y-63933000I-750000J0D01*
G01*
X35500000Y-63933000D01*
G75*
G02*
X34750000Y-63183000I0J750000D01*
G01*
X34750000Y-61683000D01*
G75*
G02*
X35500000Y-60933000I750000J0D01*
G01*
G37*
G36*
G01*
X44914200Y-56500000D02*
X44914200Y-61000000D01*
G75*
G02*
X44164200Y-61750000I-750000J0D01*
G01*
X42664200Y-61750000D01*
G75*
G02*
X41914200Y-61000000I0J750000D01*
G01*
X41914200Y-56500000D01*
G75*
G02*
X42664200Y-55750000I750000J0D01*
G01*
X44164200Y-55750000D01*
G75*
G02*
X44914200Y-56500000I0J-750000D01*
G01*
G37*
G36*
G01*
X40000000Y-56567000D02*
X35500000Y-56567000D01*
G75*
G02*
X34750000Y-55817000I0J750000D01*
G01*
X34750000Y-54317000D01*
G75*
G02*
X35500000Y-53567000I750000J0D01*
G01*
X40000000Y-53567000D01*
G75*
G02*
X40750000Y-54317000I0J-750000D01*
G01*
X40750000Y-55817000D01*
G75*
G02*
X40000000Y-56567000I-750000J0D01*
G01*
G37*
G36*
G01*
X33611200Y-56500000D02*
X33611200Y-61000000D01*
G75*
G02*
X32861200Y-61750000I-750000J0D01*
G01*
X31361200Y-61750000D01*
G75*
G02*
X30611200Y-61000000I0J750000D01*
G01*
X30611200Y-56500000D01*
G75*
G02*
X31361200Y-55750000I750000J0D01*
G01*
X32861200Y-55750000D01*
G75*
G02*
X33611200Y-56500000I0J-750000D01*
G01*
G37*
G36*
G01*
X103111200Y-56503000D02*
X103111200Y-61003000D01*
G75*
G02*
X102361200Y-61753000I-750000J0D01*
G01*
X100861200Y-61753000D01*
G75*
G02*
X100111200Y-61003000I0J750000D01*
G01*
X100111200Y-56503000D01*
G75*
G02*
X100861200Y-55753000I750000J0D01*
G01*
X102361200Y-55753000D01*
G75*
G02*
X103111200Y-56503000I0J-750000D01*
G01*
G37*
G36*
G01*
X109500000Y-56570000D02*
X105000000Y-56570000D01*
G75*
G02*
X104250000Y-55820000I0J750000D01*
G01*
X104250000Y-54320000D01*
G75*
G02*
X105000000Y-53570000I750000J0D01*
G01*
X109500000Y-53570000D01*
G75*
G02*
X110250000Y-54320000I0J-750000D01*
G01*
X110250000Y-55820000D01*
G75*
G02*
X109500000Y-56570000I-750000J0D01*
G01*
G37*
G36*
G01*
X114414200Y-56503000D02*
X114414200Y-61003000D01*
G75*
G02*
X113664200Y-61753000I-750000J0D01*
G01*
X112164200Y-61753000D01*
G75*
G02*
X111414200Y-61003000I0J750000D01*
G01*
X111414200Y-56503000D01*
G75*
G02*
X112164200Y-55753000I750000J0D01*
G01*
X113664200Y-55753000D01*
G75*
G02*
X114414200Y-56503000I0J-750000D01*
G01*
G37*
G36*
G01*
X105000000Y-60936000D02*
X109500000Y-60936000D01*
G75*
G02*
X110250000Y-61686000I0J-750000D01*
G01*
X110250000Y-63186000D01*
G75*
G02*
X109500000Y-63936000I-750000J0D01*
G01*
X105000000Y-63936000D01*
G75*
G02*
X104250000Y-63186000I0J750000D01*
G01*
X104250000Y-61686000D01*
G75*
G02*
X105000000Y-60936000I750000J0D01*
G01*
G37*
M02*
