G04 #@! TF.GenerationSoftware,KiCad,Pcbnew,(5.1.9)-1*
G04 #@! TF.CreationDate,2021-05-25T00:15:28+02:00*
G04 #@! TF.ProjectId,LF,4c462e6b-6963-4616-945f-706362585858,rev?*
G04 #@! TF.SameCoordinates,Original*
G04 #@! TF.FileFunction,Copper,L1,Top*
G04 #@! TF.FilePolarity,Positive*
%FSLAX46Y46*%
G04 Gerber Fmt 4.6, Leading zero omitted, Abs format (unit mm)*
G04 Created by KiCad (PCBNEW (5.1.9)-1) date 2021-05-25 00:15:28*
%MOMM*%
%LPD*%
G01*
G04 APERTURE LIST*
G04 #@! TA.AperFunction,ComponentPad*
%ADD10O,3.600000X2.100000*%
G04 #@! TD*
G04 #@! TA.AperFunction,ComponentPad*
%ADD11C,2.010000*%
G04 #@! TD*
G04 #@! TA.AperFunction,ComponentPad*
%ADD12C,2.400000*%
G04 #@! TD*
G04 #@! TA.AperFunction,Conductor*
%ADD13C,0.254000*%
G04 #@! TD*
G04 #@! TA.AperFunction,Conductor*
%ADD14C,0.100000*%
G04 #@! TD*
G04 APERTURE END LIST*
G04 #@! TA.AperFunction,ComponentPad*
G36*
G01*
X49450100Y-29270000D02*
X46349900Y-29270000D01*
G75*
G02*
X46100000Y-29020100I0J249900D01*
G01*
X46100000Y-27419900D01*
G75*
G02*
X46349900Y-27170000I249900J0D01*
G01*
X49450100Y-27170000D01*
G75*
G02*
X49700000Y-27419900I0J-249900D01*
G01*
X49700000Y-29020100D01*
G75*
G02*
X49450100Y-29270000I-249900J0D01*
G01*
G37*
G04 #@! TD.AperFunction*
D10*
X42820000Y-23140000D03*
X42820000Y-28220000D03*
X47900000Y-23140000D03*
D11*
X26120000Y-41270000D03*
X27320000Y-36170000D03*
X27320000Y-33970000D03*
X22220000Y-41270000D03*
X23420000Y-36170000D03*
X23420000Y-33970000D03*
D12*
X86120000Y-28220000D03*
X53120000Y-28220000D03*
X115000000Y-34690000D03*
X92500000Y-34690000D03*
X120000000Y-34690000D03*
X48040000Y-36020000D03*
X86140000Y-34720000D03*
G04 #@! TA.AperFunction,ComponentPad*
G36*
G01*
X35500000Y-60933000D02*
X40000000Y-60933000D01*
G75*
G02*
X40750000Y-61683000I0J-750000D01*
G01*
X40750000Y-63183000D01*
G75*
G02*
X40000000Y-63933000I-750000J0D01*
G01*
X35500000Y-63933000D01*
G75*
G02*
X34750000Y-63183000I0J750000D01*
G01*
X34750000Y-61683000D01*
G75*
G02*
X35500000Y-60933000I750000J0D01*
G01*
G37*
G04 #@! TD.AperFunction*
G04 #@! TA.AperFunction,ComponentPad*
G36*
G01*
X44914200Y-56500000D02*
X44914200Y-61000000D01*
G75*
G02*
X44164200Y-61750000I-750000J0D01*
G01*
X42664200Y-61750000D01*
G75*
G02*
X41914200Y-61000000I0J750000D01*
G01*
X41914200Y-56500000D01*
G75*
G02*
X42664200Y-55750000I750000J0D01*
G01*
X44164200Y-55750000D01*
G75*
G02*
X44914200Y-56500000I0J-750000D01*
G01*
G37*
G04 #@! TD.AperFunction*
G04 #@! TA.AperFunction,ComponentPad*
G36*
G01*
X40000000Y-56567000D02*
X35500000Y-56567000D01*
G75*
G02*
X34750000Y-55817000I0J750000D01*
G01*
X34750000Y-54317000D01*
G75*
G02*
X35500000Y-53567000I750000J0D01*
G01*
X40000000Y-53567000D01*
G75*
G02*
X40750000Y-54317000I0J-750000D01*
G01*
X40750000Y-55817000D01*
G75*
G02*
X40000000Y-56567000I-750000J0D01*
G01*
G37*
G04 #@! TD.AperFunction*
G04 #@! TA.AperFunction,ComponentPad*
G36*
G01*
X33611200Y-56500000D02*
X33611200Y-61000000D01*
G75*
G02*
X32861200Y-61750000I-750000J0D01*
G01*
X31361200Y-61750000D01*
G75*
G02*
X30611200Y-61000000I0J750000D01*
G01*
X30611200Y-56500000D01*
G75*
G02*
X31361200Y-55750000I750000J0D01*
G01*
X32861200Y-55750000D01*
G75*
G02*
X33611200Y-56500000I0J-750000D01*
G01*
G37*
G04 #@! TD.AperFunction*
G04 #@! TA.AperFunction,ComponentPad*
G36*
G01*
X103111200Y-56503000D02*
X103111200Y-61003000D01*
G75*
G02*
X102361200Y-61753000I-750000J0D01*
G01*
X100861200Y-61753000D01*
G75*
G02*
X100111200Y-61003000I0J750000D01*
G01*
X100111200Y-56503000D01*
G75*
G02*
X100861200Y-55753000I750000J0D01*
G01*
X102361200Y-55753000D01*
G75*
G02*
X103111200Y-56503000I0J-750000D01*
G01*
G37*
G04 #@! TD.AperFunction*
G04 #@! TA.AperFunction,ComponentPad*
G36*
G01*
X109500000Y-56570000D02*
X105000000Y-56570000D01*
G75*
G02*
X104250000Y-55820000I0J750000D01*
G01*
X104250000Y-54320000D01*
G75*
G02*
X105000000Y-53570000I750000J0D01*
G01*
X109500000Y-53570000D01*
G75*
G02*
X110250000Y-54320000I0J-750000D01*
G01*
X110250000Y-55820000D01*
G75*
G02*
X109500000Y-56570000I-750000J0D01*
G01*
G37*
G04 #@! TD.AperFunction*
G04 #@! TA.AperFunction,ComponentPad*
G36*
G01*
X114414200Y-56503000D02*
X114414200Y-61003000D01*
G75*
G02*
X113664200Y-61753000I-750000J0D01*
G01*
X112164200Y-61753000D01*
G75*
G02*
X111414200Y-61003000I0J750000D01*
G01*
X111414200Y-56503000D01*
G75*
G02*
X112164200Y-55753000I750000J0D01*
G01*
X113664200Y-55753000D01*
G75*
G02*
X114414200Y-56503000I0J-750000D01*
G01*
G37*
G04 #@! TD.AperFunction*
G04 #@! TA.AperFunction,ComponentPad*
G36*
G01*
X105000000Y-60936000D02*
X109500000Y-60936000D01*
G75*
G02*
X110250000Y-61686000I0J-750000D01*
G01*
X110250000Y-63186000D01*
G75*
G02*
X109500000Y-63936000I-750000J0D01*
G01*
X105000000Y-63936000D01*
G75*
G02*
X104250000Y-63186000I0J750000D01*
G01*
X104250000Y-61686000D01*
G75*
G02*
X105000000Y-60936000I750000J0D01*
G01*
G37*
G04 #@! TD.AperFunction*
D13*
X27040189Y-39294376D02*
X27203850Y-39344022D01*
X27354672Y-39424638D01*
X27486870Y-39533130D01*
X27595362Y-39665328D01*
X27675978Y-39816150D01*
X27725624Y-39979811D01*
X27743000Y-40156234D01*
X27743000Y-60197402D01*
X27742990Y-60201711D01*
X27737609Y-61374830D01*
X27738167Y-61387318D01*
X27756596Y-61583057D01*
X27761369Y-61607565D01*
X27817739Y-61795916D01*
X27827215Y-61819017D01*
X27919347Y-61992698D01*
X27933159Y-62013498D01*
X28057491Y-62165797D01*
X28075106Y-62183493D01*
X28226833Y-62308523D01*
X28247570Y-62322431D01*
X28420827Y-62415358D01*
X28443884Y-62424940D01*
X28631974Y-62482173D01*
X28656460Y-62487058D01*
X28852113Y-62506385D01*
X28864598Y-62507000D01*
X33157688Y-62507000D01*
X33170136Y-62506388D01*
X33357874Y-62487897D01*
X33382292Y-62483040D01*
X33562815Y-62428279D01*
X33585816Y-62418752D01*
X33752187Y-62329825D01*
X33772888Y-62315993D01*
X33918713Y-62196317D01*
X33936317Y-62178713D01*
X34055993Y-62032888D01*
X34069825Y-62012187D01*
X34158752Y-61845816D01*
X34168279Y-61822815D01*
X34223040Y-61642292D01*
X34227897Y-61617874D01*
X34246388Y-61430136D01*
X34263652Y-61254862D01*
X34311154Y-61098282D01*
X34388286Y-60953990D01*
X34492096Y-60827513D01*
X34618580Y-60723724D01*
X34762886Y-60646607D01*
X34919462Y-60599126D01*
X35088538Y-60582493D01*
X41276128Y-60583239D01*
X41276128Y-61000000D01*
X41302799Y-61270799D01*
X41381789Y-61531192D01*
X41510060Y-61771171D01*
X41682685Y-61981515D01*
X41893029Y-62154140D01*
X42133008Y-62282411D01*
X42393401Y-62361401D01*
X42664200Y-62388072D01*
X44164200Y-62388072D01*
X44434999Y-62361401D01*
X44695392Y-62282411D01*
X44935371Y-62154140D01*
X45145715Y-61981515D01*
X45318340Y-61771171D01*
X45446611Y-61531192D01*
X45525601Y-61270799D01*
X45552272Y-61000000D01*
X45552272Y-60583755D01*
X99473128Y-60590257D01*
X99473128Y-61003000D01*
X99499799Y-61273799D01*
X99578789Y-61534192D01*
X99707060Y-61774171D01*
X99879685Y-61984515D01*
X100090029Y-62157140D01*
X100330008Y-62285411D01*
X100590401Y-62364401D01*
X100861200Y-62391072D01*
X102361200Y-62391072D01*
X102631999Y-62364401D01*
X102892392Y-62285411D01*
X103132371Y-62157140D01*
X103342715Y-61984515D01*
X103515340Y-61774171D01*
X103643611Y-61534192D01*
X103722601Y-61273799D01*
X103749272Y-61003000D01*
X103749272Y-60590773D01*
X109793867Y-60591502D01*
X109970285Y-60608899D01*
X110133922Y-60658554D01*
X110284726Y-60739178D01*
X110416910Y-60847673D01*
X110525386Y-60979865D01*
X110605991Y-61130680D01*
X110655625Y-61294319D01*
X110673001Y-61470747D01*
X110673000Y-68736420D01*
X110655571Y-68913116D01*
X110605784Y-69076987D01*
X110524939Y-69227973D01*
X110416151Y-69360256D01*
X110283613Y-69468737D01*
X110132443Y-69549229D01*
X109968450Y-69598637D01*
X109791727Y-69615653D01*
X21544195Y-69410335D01*
X21368061Y-69392600D01*
X21204746Y-69342721D01*
X21054274Y-69261983D01*
X20922414Y-69153480D01*
X20814211Y-69021359D01*
X20733827Y-68870707D01*
X20684325Y-68707266D01*
X20667000Y-68531097D01*
X20667000Y-40156234D01*
X20684376Y-39979811D01*
X20734022Y-39816150D01*
X20814638Y-39665328D01*
X20923130Y-39533130D01*
X21055328Y-39424638D01*
X21206150Y-39344022D01*
X21369811Y-39294376D01*
X21546234Y-39277000D01*
X26863766Y-39277000D01*
X27040189Y-39294376D01*
G04 #@! TA.AperFunction,Conductor*
D14*
G36*
X27040189Y-39294376D02*
G01*
X27203850Y-39344022D01*
X27354672Y-39424638D01*
X27486870Y-39533130D01*
X27595362Y-39665328D01*
X27675978Y-39816150D01*
X27725624Y-39979811D01*
X27743000Y-40156234D01*
X27743000Y-60197402D01*
X27742990Y-60201711D01*
X27737609Y-61374830D01*
X27738167Y-61387318D01*
X27756596Y-61583057D01*
X27761369Y-61607565D01*
X27817739Y-61795916D01*
X27827215Y-61819017D01*
X27919347Y-61992698D01*
X27933159Y-62013498D01*
X28057491Y-62165797D01*
X28075106Y-62183493D01*
X28226833Y-62308523D01*
X28247570Y-62322431D01*
X28420827Y-62415358D01*
X28443884Y-62424940D01*
X28631974Y-62482173D01*
X28656460Y-62487058D01*
X28852113Y-62506385D01*
X28864598Y-62507000D01*
X33157688Y-62507000D01*
X33170136Y-62506388D01*
X33357874Y-62487897D01*
X33382292Y-62483040D01*
X33562815Y-62428279D01*
X33585816Y-62418752D01*
X33752187Y-62329825D01*
X33772888Y-62315993D01*
X33918713Y-62196317D01*
X33936317Y-62178713D01*
X34055993Y-62032888D01*
X34069825Y-62012187D01*
X34158752Y-61845816D01*
X34168279Y-61822815D01*
X34223040Y-61642292D01*
X34227897Y-61617874D01*
X34246388Y-61430136D01*
X34263652Y-61254862D01*
X34311154Y-61098282D01*
X34388286Y-60953990D01*
X34492096Y-60827513D01*
X34618580Y-60723724D01*
X34762886Y-60646607D01*
X34919462Y-60599126D01*
X35088538Y-60582493D01*
X41276128Y-60583239D01*
X41276128Y-61000000D01*
X41302799Y-61270799D01*
X41381789Y-61531192D01*
X41510060Y-61771171D01*
X41682685Y-61981515D01*
X41893029Y-62154140D01*
X42133008Y-62282411D01*
X42393401Y-62361401D01*
X42664200Y-62388072D01*
X44164200Y-62388072D01*
X44434999Y-62361401D01*
X44695392Y-62282411D01*
X44935371Y-62154140D01*
X45145715Y-61981515D01*
X45318340Y-61771171D01*
X45446611Y-61531192D01*
X45525601Y-61270799D01*
X45552272Y-61000000D01*
X45552272Y-60583755D01*
X99473128Y-60590257D01*
X99473128Y-61003000D01*
X99499799Y-61273799D01*
X99578789Y-61534192D01*
X99707060Y-61774171D01*
X99879685Y-61984515D01*
X100090029Y-62157140D01*
X100330008Y-62285411D01*
X100590401Y-62364401D01*
X100861200Y-62391072D01*
X102361200Y-62391072D01*
X102631999Y-62364401D01*
X102892392Y-62285411D01*
X103132371Y-62157140D01*
X103342715Y-61984515D01*
X103515340Y-61774171D01*
X103643611Y-61534192D01*
X103722601Y-61273799D01*
X103749272Y-61003000D01*
X103749272Y-60590773D01*
X109793867Y-60591502D01*
X109970285Y-60608899D01*
X110133922Y-60658554D01*
X110284726Y-60739178D01*
X110416910Y-60847673D01*
X110525386Y-60979865D01*
X110605991Y-61130680D01*
X110655625Y-61294319D01*
X110673001Y-61470747D01*
X110673000Y-68736420D01*
X110655571Y-68913116D01*
X110605784Y-69076987D01*
X110524939Y-69227973D01*
X110416151Y-69360256D01*
X110283613Y-69468737D01*
X110132443Y-69549229D01*
X109968450Y-69598637D01*
X109791727Y-69615653D01*
X21544195Y-69410335D01*
X21368061Y-69392600D01*
X21204746Y-69342721D01*
X21054274Y-69261983D01*
X20922414Y-69153480D01*
X20814211Y-69021359D01*
X20733827Y-68870707D01*
X20684325Y-68707266D01*
X20667000Y-68531097D01*
X20667000Y-40156234D01*
X20684376Y-39979811D01*
X20734022Y-39816150D01*
X20814638Y-39665328D01*
X20923130Y-39533130D01*
X21055328Y-39424638D01*
X21206150Y-39344022D01*
X21369811Y-39294376D01*
X21546234Y-39277000D01*
X26863766Y-39277000D01*
X27040189Y-39294376D01*
G37*
G04 #@! TD.AperFunction*
D13*
X109970189Y-50944376D02*
X110133850Y-50994022D01*
X110284672Y-51074638D01*
X110416870Y-51183130D01*
X110525362Y-51315328D01*
X110605978Y-51466150D01*
X110655624Y-51629811D01*
X110673000Y-51806234D01*
X110673000Y-55993766D01*
X110655624Y-56170189D01*
X110605978Y-56333850D01*
X110525362Y-56484672D01*
X110416870Y-56616870D01*
X110284672Y-56725362D01*
X110133850Y-56805978D01*
X109970189Y-56855624D01*
X109793766Y-56873000D01*
X103749272Y-56873000D01*
X103749272Y-56503000D01*
X103722601Y-56232201D01*
X103643611Y-55971808D01*
X103515340Y-55731829D01*
X103342715Y-55521485D01*
X103132371Y-55348860D01*
X102892392Y-55220589D01*
X102631999Y-55141599D01*
X102361200Y-55114928D01*
X100861200Y-55114928D01*
X100590401Y-55141599D01*
X100330008Y-55220589D01*
X100090029Y-55348860D01*
X99879685Y-55521485D01*
X99707060Y-55731829D01*
X99578789Y-55971808D01*
X99499799Y-56232201D01*
X99473128Y-56503000D01*
X99473128Y-56873000D01*
X45552272Y-56873000D01*
X45552272Y-56500000D01*
X45525601Y-56229201D01*
X45446611Y-55968808D01*
X45318340Y-55728829D01*
X45145715Y-55518485D01*
X44935371Y-55345860D01*
X44695392Y-55217589D01*
X44434999Y-55138599D01*
X44164200Y-55111928D01*
X42664200Y-55111928D01*
X42393401Y-55138599D01*
X42133008Y-55217589D01*
X41893029Y-55345860D01*
X41682685Y-55518485D01*
X41510060Y-55728829D01*
X41381789Y-55968808D01*
X41302799Y-56229201D01*
X41276128Y-56500000D01*
X41276128Y-56873000D01*
X35206234Y-56873000D01*
X35029811Y-56855624D01*
X34866150Y-56805978D01*
X34715328Y-56725362D01*
X34583130Y-56616870D01*
X34474638Y-56484672D01*
X34394022Y-56333850D01*
X34344376Y-56170189D01*
X34327000Y-55993766D01*
X34327000Y-51806234D01*
X34344376Y-51629811D01*
X34394022Y-51466150D01*
X34474638Y-51315328D01*
X34583130Y-51183130D01*
X34715328Y-51074638D01*
X34866150Y-50994022D01*
X35029811Y-50944376D01*
X35206234Y-50927000D01*
X109793766Y-50927000D01*
X109970189Y-50944376D01*
G04 #@! TA.AperFunction,Conductor*
D14*
G36*
X109970189Y-50944376D02*
G01*
X110133850Y-50994022D01*
X110284672Y-51074638D01*
X110416870Y-51183130D01*
X110525362Y-51315328D01*
X110605978Y-51466150D01*
X110655624Y-51629811D01*
X110673000Y-51806234D01*
X110673000Y-55993766D01*
X110655624Y-56170189D01*
X110605978Y-56333850D01*
X110525362Y-56484672D01*
X110416870Y-56616870D01*
X110284672Y-56725362D01*
X110133850Y-56805978D01*
X109970189Y-56855624D01*
X109793766Y-56873000D01*
X103749272Y-56873000D01*
X103749272Y-56503000D01*
X103722601Y-56232201D01*
X103643611Y-55971808D01*
X103515340Y-55731829D01*
X103342715Y-55521485D01*
X103132371Y-55348860D01*
X102892392Y-55220589D01*
X102631999Y-55141599D01*
X102361200Y-55114928D01*
X100861200Y-55114928D01*
X100590401Y-55141599D01*
X100330008Y-55220589D01*
X100090029Y-55348860D01*
X99879685Y-55521485D01*
X99707060Y-55731829D01*
X99578789Y-55971808D01*
X99499799Y-56232201D01*
X99473128Y-56503000D01*
X99473128Y-56873000D01*
X45552272Y-56873000D01*
X45552272Y-56500000D01*
X45525601Y-56229201D01*
X45446611Y-55968808D01*
X45318340Y-55728829D01*
X45145715Y-55518485D01*
X44935371Y-55345860D01*
X44695392Y-55217589D01*
X44434999Y-55138599D01*
X44164200Y-55111928D01*
X42664200Y-55111928D01*
X42393401Y-55138599D01*
X42133008Y-55217589D01*
X41893029Y-55345860D01*
X41682685Y-55518485D01*
X41510060Y-55728829D01*
X41381789Y-55968808D01*
X41302799Y-56229201D01*
X41276128Y-56500000D01*
X41276128Y-56873000D01*
X35206234Y-56873000D01*
X35029811Y-56855624D01*
X34866150Y-56805978D01*
X34715328Y-56725362D01*
X34583130Y-56616870D01*
X34474638Y-56484672D01*
X34394022Y-56333850D01*
X34344376Y-56170189D01*
X34327000Y-55993766D01*
X34327000Y-51806234D01*
X34344376Y-51629811D01*
X34394022Y-51466150D01*
X34474638Y-51315328D01*
X34583130Y-51183130D01*
X34715328Y-51074638D01*
X34866150Y-50994022D01*
X35029811Y-50944376D01*
X35206234Y-50927000D01*
X109793766Y-50927000D01*
X109970189Y-50944376D01*
G37*
G04 #@! TD.AperFunction*
D13*
X95889284Y-25724930D02*
X96053118Y-25774452D01*
X96204124Y-25855006D01*
X96336494Y-25963489D01*
X96445143Y-26095735D01*
X96525877Y-26246640D01*
X96575596Y-26410406D01*
X96593000Y-26586981D01*
X96593000Y-39793710D01*
X96575632Y-39970100D01*
X96526015Y-40133712D01*
X96445441Y-40284505D01*
X96337003Y-40416687D01*
X96204862Y-40525186D01*
X96054111Y-40605820D01*
X95890508Y-40655511D01*
X95714142Y-40672953D01*
X84916609Y-40677569D01*
X84740128Y-40660260D01*
X84576411Y-40610659D01*
X84425524Y-40530064D01*
X84293260Y-40421572D01*
X84184716Y-40289361D01*
X84104058Y-40138510D01*
X84054386Y-39974808D01*
X84037000Y-39798333D01*
X84037000Y-26600022D01*
X84054349Y-26423731D01*
X84103920Y-26260188D01*
X84184419Y-26109448D01*
X84292757Y-25977294D01*
X84424782Y-25868795D01*
X84575422Y-25788115D01*
X84738902Y-25738349D01*
X84915176Y-25720785D01*
X95712707Y-25707741D01*
X95889284Y-25724930D01*
G04 #@! TA.AperFunction,Conductor*
D14*
G36*
X95889284Y-25724930D02*
G01*
X96053118Y-25774452D01*
X96204124Y-25855006D01*
X96336494Y-25963489D01*
X96445143Y-26095735D01*
X96525877Y-26246640D01*
X96575596Y-26410406D01*
X96593000Y-26586981D01*
X96593000Y-39793710D01*
X96575632Y-39970100D01*
X96526015Y-40133712D01*
X96445441Y-40284505D01*
X96337003Y-40416687D01*
X96204862Y-40525186D01*
X96054111Y-40605820D01*
X95890508Y-40655511D01*
X95714142Y-40672953D01*
X84916609Y-40677569D01*
X84740128Y-40660260D01*
X84576411Y-40610659D01*
X84425524Y-40530064D01*
X84293260Y-40421572D01*
X84184716Y-40289361D01*
X84104058Y-40138510D01*
X84054386Y-39974808D01*
X84037000Y-39798333D01*
X84037000Y-26600022D01*
X84054349Y-26423731D01*
X84103920Y-26260188D01*
X84184419Y-26109448D01*
X84292757Y-25977294D01*
X84424782Y-25868795D01*
X84575422Y-25788115D01*
X84738902Y-25738349D01*
X84915176Y-25720785D01*
X95712707Y-25707741D01*
X95889284Y-25724930D01*
G37*
G04 #@! TD.AperFunction*
D13*
X54670189Y-25744376D02*
X54833850Y-25794022D01*
X54984672Y-25874638D01*
X55116870Y-25983130D01*
X55225362Y-26115328D01*
X55305978Y-26266150D01*
X55355624Y-26429811D01*
X55373000Y-26606234D01*
X55373000Y-29763766D01*
X55355624Y-29940189D01*
X55305978Y-30103850D01*
X55225362Y-30254672D01*
X55116870Y-30386870D01*
X54984672Y-30495362D01*
X54833850Y-30575978D01*
X54670189Y-30625624D01*
X54493766Y-30643000D01*
X39926234Y-30643000D01*
X39749811Y-30625624D01*
X39586150Y-30575978D01*
X39435328Y-30495362D01*
X39303130Y-30386870D01*
X39194638Y-30254672D01*
X39114022Y-30103850D01*
X39064376Y-29940189D01*
X39047000Y-29763766D01*
X39047000Y-26606234D01*
X39064376Y-26429811D01*
X39114022Y-26266150D01*
X39194638Y-26115328D01*
X39303130Y-25983130D01*
X39435328Y-25874638D01*
X39586150Y-25794022D01*
X39749811Y-25744376D01*
X39926234Y-25727000D01*
X54493766Y-25727000D01*
X54670189Y-25744376D01*
G04 #@! TA.AperFunction,Conductor*
D14*
G36*
X54670189Y-25744376D02*
G01*
X54833850Y-25794022D01*
X54984672Y-25874638D01*
X55116870Y-25983130D01*
X55225362Y-26115328D01*
X55305978Y-26266150D01*
X55355624Y-26429811D01*
X55373000Y-26606234D01*
X55373000Y-29763766D01*
X55355624Y-29940189D01*
X55305978Y-30103850D01*
X55225362Y-30254672D01*
X55116870Y-30386870D01*
X54984672Y-30495362D01*
X54833850Y-30575978D01*
X54670189Y-30625624D01*
X54493766Y-30643000D01*
X39926234Y-30643000D01*
X39749811Y-30625624D01*
X39586150Y-30575978D01*
X39435328Y-30495362D01*
X39303130Y-30386870D01*
X39194638Y-30254672D01*
X39114022Y-30103850D01*
X39064376Y-29940189D01*
X39047000Y-29763766D01*
X39047000Y-26606234D01*
X39064376Y-26429811D01*
X39114022Y-26266150D01*
X39194638Y-26115328D01*
X39303130Y-25983130D01*
X39435328Y-25874638D01*
X39586150Y-25794022D01*
X39749811Y-25744376D01*
X39926234Y-25727000D01*
X54493766Y-25727000D01*
X54670189Y-25744376D01*
G37*
G04 #@! TD.AperFunction*
M02*
