%FSLAX45Y45*%
G04 Gerber Fmt 4.5, Leading zero omitted, Abs format (unit mm)*
G04 Created by KiCad (PCBNEW (5.1.9)-1) date 2021-05-25 00:15:30*
%MOMM*%
%LPD*%
G01*
G04 APERTURE LIST*
%TA.AperFunction,Profile*%
%ADD10C,0.050000*%
%TD*%
%ADD11C,0.200000*%
%ADD12C,0.300000*%
G04 APERTURE END LIST*
D10*
X8321000Y-3275000D02*
X8321000Y-3575000D01*
X8171000Y-3275000D02*
G75*
G02*
X8321000Y-3275000I75000J0D01*
G01*
X8321000Y-3575000D02*
G75*
G02*
X8171000Y-3575000I-75000J0D01*
G01*
X8171000Y-3575000D02*
X8171000Y-3275000D01*
X5750000Y-3575000D02*
G75*
G02*
X5600000Y-3575000I-75000J0D01*
G01*
X5600000Y-3275000D02*
G75*
G02*
X5750000Y-3275000I75000J0D01*
G01*
X5600000Y-3575000D02*
X5600000Y-3275000D01*
X5750000Y-3275000D02*
X5750000Y-3575000D01*
X11800000Y-7800000D02*
X12500000Y-7100000D01*
X2700000Y-7800000D02*
X2000000Y-7100000D01*
X2000000Y-2700000D02*
X2700000Y-2000000D01*
X2000000Y-2700000D02*
X2000000Y-7100000D01*
X11800000Y-7800000D02*
X2700000Y-7800000D01*
X12500000Y-2700000D02*
X12500000Y-7100000D01*
X11800000Y-2000000D02*
X12500000Y-2700000D01*
X2700000Y-2000000D02*
X11800000Y-2000000D01*
D11*
D12*
X2283928Y-8268214D02*
X2283928Y-7968214D01*
X2355357Y-7968214D01*
X2398214Y-7982500D01*
X2426786Y-8011071D01*
X2441071Y-8039643D01*
X2455357Y-8096786D01*
X2455357Y-8139643D01*
X2441071Y-8196786D01*
X2426786Y-8225357D01*
X2398214Y-8253929D01*
X2355357Y-8268214D01*
X2283928Y-8268214D01*
X2583928Y-8268214D02*
X2583928Y-8068214D01*
X2583928Y-8125357D02*
X2598214Y-8096786D01*
X2612500Y-8082500D01*
X2641071Y-8068214D01*
X2669643Y-8068214D01*
X2769643Y-8268214D02*
X2769643Y-8068214D01*
X2769643Y-7968214D02*
X2755357Y-7982500D01*
X2769643Y-7996786D01*
X2783928Y-7982500D01*
X2769643Y-7968214D01*
X2769643Y-7996786D01*
X2955357Y-8268214D02*
X2926786Y-8253929D01*
X2912500Y-8225357D01*
X2912500Y-7968214D01*
X3112500Y-8268214D02*
X3083928Y-8253929D01*
X3069643Y-8225357D01*
X3069643Y-7968214D01*
X3455357Y-8268214D02*
X3455357Y-7968214D01*
X3555357Y-8182500D01*
X3655357Y-7968214D01*
X3655357Y-8268214D01*
X3926786Y-8268214D02*
X3926786Y-8111071D01*
X3912500Y-8082500D01*
X3883928Y-8068214D01*
X3826786Y-8068214D01*
X3798214Y-8082500D01*
X3926786Y-8253929D02*
X3898214Y-8268214D01*
X3826786Y-8268214D01*
X3798214Y-8253929D01*
X3783928Y-8225357D01*
X3783928Y-8196786D01*
X3798214Y-8168214D01*
X3826786Y-8153929D01*
X3898214Y-8153929D01*
X3926786Y-8139643D01*
X4069643Y-8068214D02*
X4069643Y-8368214D01*
X4069643Y-8082500D02*
X4098214Y-8068214D01*
X4155357Y-8068214D01*
X4183928Y-8082500D01*
X4198214Y-8096786D01*
X4212500Y-8125357D01*
X4212500Y-8211071D01*
X4198214Y-8239643D01*
X4183928Y-8253929D01*
X4155357Y-8268214D01*
X4098214Y-8268214D01*
X4069643Y-8253929D01*
X4341071Y-8239643D02*
X4355357Y-8253929D01*
X4341071Y-8268214D01*
X4326786Y-8253929D01*
X4341071Y-8239643D01*
X4341071Y-8268214D01*
X4341071Y-8082500D02*
X4355357Y-8096786D01*
X4341071Y-8111071D01*
X4326786Y-8096786D01*
X4341071Y-8082500D01*
X4341071Y-8111071D01*
M02*
