%FSLAX45Y45*%
G04 Gerber Fmt 4.5, Leading zero omitted, Abs format (unit mm)*
G04 Created by KiCad (PCBNEW (5.1.9)-1) date 2021-05-25 00:15:30*
%MOMM*%
%LPD*%
G01*
G04 APERTURE LIST*
%TA.AperFunction,Profile*%
%ADD10C,0.050000*%
%TD*%
%ADD11C,0.200000*%
%ADD12C,0.300000*%
G04 APERTURE END LIST*
D10*
X8321000Y-3275000D02*
X8321000Y-3575000D01*
X8171000Y-3275000D02*
G75*
G02*
X8321000Y-3275000I75000J0D01*
G01*
X8321000Y-3575000D02*
G75*
G02*
X8171000Y-3575000I-75000J0D01*
G01*
X8171000Y-3575000D02*
X8171000Y-3275000D01*
X5750000Y-3575000D02*
G75*
G02*
X5600000Y-3575000I-75000J0D01*
G01*
X5600000Y-3275000D02*
G75*
G02*
X5750000Y-3275000I75000J0D01*
G01*
X5600000Y-3575000D02*
X5600000Y-3275000D01*
X5750000Y-3275000D02*
X5750000Y-3575000D01*
X11800000Y-7800000D02*
X12500000Y-7100000D01*
X2700000Y-7800000D02*
X2000000Y-7100000D01*
X2000000Y-2700000D02*
X2700000Y-2000000D01*
X2000000Y-2700000D02*
X2000000Y-7100000D01*
X11800000Y-7800000D02*
X2700000Y-7800000D01*
X12500000Y-2700000D02*
X12500000Y-7100000D01*
X11800000Y-2000000D02*
X12500000Y-2700000D01*
X2700000Y-2000000D02*
X11800000Y-2000000D01*
D11*
X3161120Y-5825000D02*
X3261120Y-5925000D01*
X3261120Y-5825000D02*
X3161120Y-5925000D01*
X3251120Y-6100000D02*
X3251120Y-5650000D01*
X3171120Y-6100000D02*
X3171120Y-5650000D01*
X3251120Y-5650000D02*
G75*
G03*
X3171120Y-5650000I-40000J0D01*
G01*
X3171120Y-6100000D02*
G75*
G03*
X3251120Y-6100000I40000J0D01*
G01*
X3725000Y-5456700D02*
X3825000Y-5556700D01*
X3825000Y-5456700D02*
X3725000Y-5556700D01*
X3550000Y-5546700D02*
X4000000Y-5546700D01*
X3550000Y-5466700D02*
X4000000Y-5466700D01*
X4000000Y-5546700D02*
G75*
G03*
X4000000Y-5466700I0J40000D01*
G01*
X3550000Y-5466700D02*
G75*
G03*
X3550000Y-5546700I0J-40000D01*
G01*
X3725000Y-6193300D02*
X3825000Y-6293300D01*
X3825000Y-6193300D02*
X3725000Y-6293300D01*
X4000000Y-6203300D02*
X3550000Y-6203300D01*
X4000000Y-6283300D02*
X3550000Y-6283300D01*
X3550000Y-6203300D02*
G75*
G03*
X3550000Y-6283300I0J-40000D01*
G01*
X4000000Y-6283300D02*
G75*
G03*
X4000000Y-6203300I0J40000D01*
G01*
X4291420Y-5825000D02*
X4391420Y-5925000D01*
X4391420Y-5825000D02*
X4291420Y-5925000D01*
X4381420Y-6100000D02*
X4381420Y-5650000D01*
X4301420Y-6100000D02*
X4301420Y-5650000D01*
X4381420Y-5650000D02*
G75*
G03*
X4301420Y-5650000I-40000J0D01*
G01*
X4301420Y-6100000D02*
G75*
G03*
X4381420Y-6100000I40000J0D01*
G01*
X10111120Y-5825300D02*
X10211120Y-5925300D01*
X10211120Y-5825300D02*
X10111120Y-5925300D01*
X10201120Y-6100300D02*
X10201120Y-5650300D01*
X10121120Y-6100300D02*
X10121120Y-5650300D01*
X10201120Y-5650300D02*
G75*
G03*
X10121120Y-5650300I-40000J0D01*
G01*
X10121120Y-6100300D02*
G75*
G03*
X10201120Y-6100300I40000J0D01*
G01*
X10675000Y-5457000D02*
X10775000Y-5557000D01*
X10775000Y-5457000D02*
X10675000Y-5557000D01*
X10500000Y-5547000D02*
X10950000Y-5547000D01*
X10500000Y-5467000D02*
X10950000Y-5467000D01*
X10950000Y-5547000D02*
G75*
G03*
X10950000Y-5467000I0J40000D01*
G01*
X10500000Y-5467000D02*
G75*
G03*
X10500000Y-5547000I0J-40000D01*
G01*
X10675000Y-6193600D02*
X10775000Y-6293600D01*
X10775000Y-6193600D02*
X10675000Y-6293600D01*
X10950000Y-6203600D02*
X10500000Y-6203600D01*
X10950000Y-6283600D02*
X10500000Y-6283600D01*
X10500000Y-6203600D02*
G75*
G03*
X10500000Y-6283600I0J-40000D01*
G01*
X10950000Y-6283600D02*
G75*
G03*
X10950000Y-6203600I0J40000D01*
G01*
X11241420Y-5825300D02*
X11341420Y-5925300D01*
X11341420Y-5825300D02*
X11241420Y-5925300D01*
X11331420Y-6100300D02*
X11331420Y-5650300D01*
X11251420Y-6100300D02*
X11251420Y-5650300D01*
X11331420Y-5650300D02*
G75*
G03*
X11251420Y-5650300I-40000J0D01*
G01*
X11251420Y-6100300D02*
G75*
G03*
X11331420Y-6100300I40000J0D01*
G01*
X2272500Y-4127000D02*
G75*
G03*
X2272500Y-4127000I-50500J0D01*
G01*
X2392500Y-3397000D02*
G75*
G03*
X2392500Y-3397000I-50500J0D01*
G01*
X2392500Y-3617000D02*
G75*
G03*
X2392500Y-3617000I-50500J0D01*
G01*
X2662500Y-4127000D02*
G75*
G03*
X2662500Y-4127000I-50500J0D01*
G01*
X2782500Y-3397000D02*
G75*
G03*
X2782500Y-3397000I-50500J0D01*
G01*
X2782500Y-3617000D02*
G75*
G03*
X2782500Y-3617000I-50500J0D01*
G01*
X4282000Y-2254000D02*
X4282000Y-2374000D01*
X4222000Y-2314000D02*
X4342000Y-2314000D01*
X4272000Y-2364000D02*
X4292000Y-2364000D01*
X4272000Y-2264000D02*
X4292000Y-2264000D01*
X4292000Y-2364000D02*
G75*
G03*
X4292000Y-2264000I0J50000D01*
G01*
X4272000Y-2264000D02*
G75*
G03*
X4272000Y-2364000I0J-50000D01*
G01*
X4282000Y-2762000D02*
X4282000Y-2882000D01*
X4222000Y-2822000D02*
X4342000Y-2822000D01*
X4272000Y-2872000D02*
X4292000Y-2872000D01*
X4272000Y-2772000D02*
X4292000Y-2772000D01*
X4292000Y-2872000D02*
G75*
G03*
X4292000Y-2772000I0J50000D01*
G01*
X4272000Y-2772000D02*
G75*
G03*
X4272000Y-2872000I0J-50000D01*
G01*
X4790000Y-2254000D02*
X4790000Y-2374000D01*
X4730000Y-2314000D02*
X4850000Y-2314000D01*
X4780000Y-2364000D02*
X4800000Y-2364000D01*
X4780000Y-2264000D02*
X4800000Y-2264000D01*
X4800000Y-2364000D02*
G75*
G03*
X4800000Y-2264000I0J50000D01*
G01*
X4780000Y-2264000D02*
G75*
G03*
X4780000Y-2364000I0J-50000D01*
G01*
X4790000Y-2762000D02*
X4790000Y-2882000D01*
X4730000Y-2822000D02*
X4850000Y-2822000D01*
X4780000Y-2872000D02*
X4800000Y-2872000D01*
X4780000Y-2772000D02*
X4800000Y-2772000D01*
X4800000Y-2872000D02*
G75*
G03*
X4800000Y-2772000I0J50000D01*
G01*
X4780000Y-2772000D02*
G75*
G03*
X4780000Y-2872000I0J-50000D01*
G01*
X4804000Y-3542000D02*
X4804000Y-3662000D01*
X4744000Y-3602000D02*
X4864000Y-3602000D01*
X5312000Y-2762000D02*
X5312000Y-2882000D01*
X5252000Y-2822000D02*
X5372000Y-2822000D01*
X8612000Y-2762000D02*
X8612000Y-2882000D01*
X8552000Y-2822000D02*
X8672000Y-2822000D01*
X8614000Y-3412000D02*
X8614000Y-3532000D01*
X8554000Y-3472000D02*
X8674000Y-3472000D01*
X9250000Y-3409000D02*
X9250000Y-3529000D01*
X9190000Y-3469000D02*
X9310000Y-3469000D01*
X11500000Y-3409000D02*
X11500000Y-3529000D01*
X11440000Y-3469000D02*
X11560000Y-3469000D01*
X12000000Y-3409000D02*
X12000000Y-3529000D01*
X11940000Y-3469000D02*
X12060000Y-3469000D01*
D12*
X2283928Y-8268214D02*
X2283928Y-7968214D01*
X2355357Y-7968214D01*
X2398214Y-7982500D01*
X2426786Y-8011071D01*
X2441071Y-8039643D01*
X2455357Y-8096786D01*
X2455357Y-8139643D01*
X2441071Y-8196786D01*
X2426786Y-8225357D01*
X2398214Y-8253929D01*
X2355357Y-8268214D01*
X2283928Y-8268214D01*
X2583928Y-8268214D02*
X2583928Y-8068214D01*
X2583928Y-8125357D02*
X2598214Y-8096786D01*
X2612500Y-8082500D01*
X2641071Y-8068214D01*
X2669643Y-8068214D01*
X2769643Y-8268214D02*
X2769643Y-8068214D01*
X2769643Y-7968214D02*
X2755357Y-7982500D01*
X2769643Y-7996786D01*
X2783928Y-7982500D01*
X2769643Y-7968214D01*
X2769643Y-7996786D01*
X2955357Y-8268214D02*
X2926786Y-8253929D01*
X2912500Y-8225357D01*
X2912500Y-7968214D01*
X3112500Y-8268214D02*
X3083928Y-8253929D01*
X3069643Y-8225357D01*
X3069643Y-7968214D01*
X3455357Y-8268214D02*
X3455357Y-7968214D01*
X3555357Y-8182500D01*
X3655357Y-7968214D01*
X3655357Y-8268214D01*
X3926786Y-8268214D02*
X3926786Y-8111071D01*
X3912500Y-8082500D01*
X3883928Y-8068214D01*
X3826786Y-8068214D01*
X3798214Y-8082500D01*
X3926786Y-8253929D02*
X3898214Y-8268214D01*
X3826786Y-8268214D01*
X3798214Y-8253929D01*
X3783928Y-8225357D01*
X3783928Y-8196786D01*
X3798214Y-8168214D01*
X3826786Y-8153929D01*
X3898214Y-8153929D01*
X3926786Y-8139643D01*
X4069643Y-8068214D02*
X4069643Y-8368214D01*
X4069643Y-8082500D02*
X4098214Y-8068214D01*
X4155357Y-8068214D01*
X4183928Y-8082500D01*
X4198214Y-8096786D01*
X4212500Y-8125357D01*
X4212500Y-8211071D01*
X4198214Y-8239643D01*
X4183928Y-8253929D01*
X4155357Y-8268214D01*
X4098214Y-8268214D01*
X4069643Y-8253929D01*
X4341071Y-8239643D02*
X4355357Y-8253929D01*
X4341071Y-8268214D01*
X4326786Y-8253929D01*
X4341071Y-8239643D01*
X4341071Y-8268214D01*
X4341071Y-8082500D02*
X4355357Y-8096786D01*
X4341071Y-8111071D01*
X4326786Y-8096786D01*
X4341071Y-8082500D01*
X4341071Y-8111071D01*
X1897500Y-8712500D02*
X1997500Y-8812500D01*
X1997500Y-8712500D02*
X1897500Y-8812500D01*
X2441071Y-8898214D02*
X2269643Y-8898214D01*
X2355357Y-8898214D02*
X2355357Y-8598214D01*
X2326786Y-8641072D01*
X2298214Y-8669643D01*
X2269643Y-8683929D01*
X2569643Y-8869643D02*
X2583928Y-8883929D01*
X2569643Y-8898214D01*
X2555357Y-8883929D01*
X2569643Y-8869643D01*
X2569643Y-8898214D01*
X2769643Y-8598214D02*
X2798214Y-8598214D01*
X2826786Y-8612500D01*
X2841071Y-8626786D01*
X2855357Y-8655357D01*
X2869643Y-8712500D01*
X2869643Y-8783929D01*
X2855357Y-8841072D01*
X2841071Y-8869643D01*
X2826786Y-8883929D01*
X2798214Y-8898214D01*
X2769643Y-8898214D01*
X2741071Y-8883929D01*
X2726786Y-8869643D01*
X2712500Y-8841072D01*
X2698214Y-8783929D01*
X2698214Y-8712500D01*
X2712500Y-8655357D01*
X2726786Y-8626786D01*
X2741071Y-8612500D01*
X2769643Y-8598214D01*
X3055357Y-8598214D02*
X3083928Y-8598214D01*
X3112500Y-8612500D01*
X3126786Y-8626786D01*
X3141071Y-8655357D01*
X3155357Y-8712500D01*
X3155357Y-8783929D01*
X3141071Y-8841072D01*
X3126786Y-8869643D01*
X3112500Y-8883929D01*
X3083928Y-8898214D01*
X3055357Y-8898214D01*
X3026786Y-8883929D01*
X3012500Y-8869643D01*
X2998214Y-8841072D01*
X2983928Y-8783929D01*
X2983928Y-8712500D01*
X2998214Y-8655357D01*
X3012500Y-8626786D01*
X3026786Y-8612500D01*
X3055357Y-8598214D01*
X3283928Y-8898214D02*
X3283928Y-8698214D01*
X3283928Y-8726786D02*
X3298214Y-8712500D01*
X3326786Y-8698214D01*
X3369643Y-8698214D01*
X3398214Y-8712500D01*
X3412500Y-8741072D01*
X3412500Y-8898214D01*
X3412500Y-8741072D02*
X3426786Y-8712500D01*
X3455357Y-8698214D01*
X3498214Y-8698214D01*
X3526786Y-8712500D01*
X3541071Y-8741072D01*
X3541071Y-8898214D01*
X3683928Y-8898214D02*
X3683928Y-8698214D01*
X3683928Y-8726786D02*
X3698214Y-8712500D01*
X3726786Y-8698214D01*
X3769643Y-8698214D01*
X3798214Y-8712500D01*
X3812500Y-8741072D01*
X3812500Y-8898214D01*
X3812500Y-8741072D02*
X3826786Y-8712500D01*
X3855357Y-8698214D01*
X3898214Y-8698214D01*
X3926786Y-8712500D01*
X3941071Y-8741072D01*
X3941071Y-8898214D01*
X4526786Y-8583929D02*
X4269643Y-8969643D01*
X4912500Y-8598214D02*
X4941071Y-8598214D01*
X4969643Y-8612500D01*
X4983928Y-8626786D01*
X4998214Y-8655357D01*
X5012500Y-8712500D01*
X5012500Y-8783929D01*
X4998214Y-8841072D01*
X4983928Y-8869643D01*
X4969643Y-8883929D01*
X4941071Y-8898214D01*
X4912500Y-8898214D01*
X4883928Y-8883929D01*
X4869643Y-8869643D01*
X4855357Y-8841072D01*
X4841071Y-8783929D01*
X4841071Y-8712500D01*
X4855357Y-8655357D01*
X4869643Y-8626786D01*
X4883928Y-8612500D01*
X4912500Y-8598214D01*
X5141071Y-8869643D02*
X5155357Y-8883929D01*
X5141071Y-8898214D01*
X5126786Y-8883929D01*
X5141071Y-8869643D01*
X5141071Y-8898214D01*
X5341071Y-8598214D02*
X5369643Y-8598214D01*
X5398214Y-8612500D01*
X5412500Y-8626786D01*
X5426786Y-8655357D01*
X5441071Y-8712500D01*
X5441071Y-8783929D01*
X5426786Y-8841072D01*
X5412500Y-8869643D01*
X5398214Y-8883929D01*
X5369643Y-8898214D01*
X5341071Y-8898214D01*
X5312500Y-8883929D01*
X5298214Y-8869643D01*
X5283928Y-8841072D01*
X5269643Y-8783929D01*
X5269643Y-8712500D01*
X5283928Y-8655357D01*
X5298214Y-8626786D01*
X5312500Y-8612500D01*
X5341071Y-8598214D01*
X5541071Y-8598214D02*
X5726786Y-8598214D01*
X5626786Y-8712500D01*
X5669643Y-8712500D01*
X5698214Y-8726786D01*
X5712500Y-8741072D01*
X5726786Y-8769643D01*
X5726786Y-8841072D01*
X5712500Y-8869643D01*
X5698214Y-8883929D01*
X5669643Y-8898214D01*
X5583928Y-8898214D01*
X5555357Y-8883929D01*
X5541071Y-8869643D01*
X5869643Y-8898214D02*
X5926786Y-8898214D01*
X5955357Y-8883929D01*
X5969643Y-8869643D01*
X5998214Y-8826786D01*
X6012500Y-8769643D01*
X6012500Y-8655357D01*
X5998214Y-8626786D01*
X5983928Y-8612500D01*
X5955357Y-8598214D01*
X5898214Y-8598214D01*
X5869643Y-8612500D01*
X5855357Y-8626786D01*
X5841071Y-8655357D01*
X5841071Y-8726786D01*
X5855357Y-8755357D01*
X5869643Y-8769643D01*
X5898214Y-8783929D01*
X5955357Y-8783929D01*
X5983928Y-8769643D01*
X5998214Y-8755357D01*
X6012500Y-8726786D01*
X6126786Y-8598214D02*
X6126786Y-8655357D01*
X6241071Y-8598214D02*
X6241071Y-8655357D01*
X6683928Y-9012500D02*
X6669643Y-8998214D01*
X6641071Y-8955357D01*
X6626786Y-8926786D01*
X6612500Y-8883929D01*
X6598214Y-8812500D01*
X6598214Y-8755357D01*
X6612500Y-8683929D01*
X6626786Y-8641072D01*
X6641071Y-8612500D01*
X6669643Y-8569643D01*
X6683928Y-8555357D01*
X6855357Y-8598214D02*
X6883928Y-8598214D01*
X6912500Y-8612500D01*
X6926786Y-8626786D01*
X6941071Y-8655357D01*
X6955357Y-8712500D01*
X6955357Y-8783929D01*
X6941071Y-8841072D01*
X6926786Y-8869643D01*
X6912500Y-8883929D01*
X6883928Y-8898214D01*
X6855357Y-8898214D01*
X6826786Y-8883929D01*
X6812500Y-8869643D01*
X6798214Y-8841072D01*
X6783928Y-8783929D01*
X6783928Y-8712500D01*
X6798214Y-8655357D01*
X6812500Y-8626786D01*
X6826786Y-8612500D01*
X6855357Y-8598214D01*
X7312500Y-8898214D02*
X7312500Y-8598214D01*
X7441071Y-8898214D02*
X7441071Y-8741072D01*
X7426786Y-8712500D01*
X7398214Y-8698214D01*
X7355357Y-8698214D01*
X7326786Y-8712500D01*
X7312500Y-8726786D01*
X7626786Y-8898214D02*
X7598214Y-8883929D01*
X7583928Y-8869643D01*
X7569643Y-8841072D01*
X7569643Y-8755357D01*
X7583928Y-8726786D01*
X7598214Y-8712500D01*
X7626786Y-8698214D01*
X7669643Y-8698214D01*
X7698214Y-8712500D01*
X7712500Y-8726786D01*
X7726786Y-8755357D01*
X7726786Y-8841072D01*
X7712500Y-8869643D01*
X7698214Y-8883929D01*
X7669643Y-8898214D01*
X7626786Y-8898214D01*
X7898214Y-8898214D02*
X7869643Y-8883929D01*
X7855357Y-8855357D01*
X7855357Y-8598214D01*
X8126786Y-8883929D02*
X8098214Y-8898214D01*
X8041071Y-8898214D01*
X8012500Y-8883929D01*
X7998214Y-8855357D01*
X7998214Y-8741072D01*
X8012500Y-8712500D01*
X8041071Y-8698214D01*
X8098214Y-8698214D01*
X8126786Y-8712500D01*
X8141071Y-8741072D01*
X8141071Y-8769643D01*
X7998214Y-8798214D01*
X8255357Y-8883929D02*
X8283928Y-8898214D01*
X8341071Y-8898214D01*
X8369643Y-8883929D01*
X8383928Y-8855357D01*
X8383928Y-8841072D01*
X8369643Y-8812500D01*
X8341071Y-8798214D01*
X8298214Y-8798214D01*
X8269643Y-8783929D01*
X8255357Y-8755357D01*
X8255357Y-8741072D01*
X8269643Y-8712500D01*
X8298214Y-8698214D01*
X8341071Y-8698214D01*
X8369643Y-8712500D01*
X8741071Y-8783929D02*
X8969643Y-8783929D01*
X8855357Y-8898214D02*
X8855357Y-8669643D01*
X9383928Y-8726786D02*
X9355357Y-8712500D01*
X9341071Y-8698214D01*
X9326786Y-8669643D01*
X9326786Y-8655357D01*
X9341071Y-8626786D01*
X9355357Y-8612500D01*
X9383928Y-8598214D01*
X9441071Y-8598214D01*
X9469643Y-8612500D01*
X9483928Y-8626786D01*
X9498214Y-8655357D01*
X9498214Y-8669643D01*
X9483928Y-8698214D01*
X9469643Y-8712500D01*
X9441071Y-8726786D01*
X9383928Y-8726786D01*
X9355357Y-8741072D01*
X9341071Y-8755357D01*
X9326786Y-8783929D01*
X9326786Y-8841072D01*
X9341071Y-8869643D01*
X9355357Y-8883929D01*
X9383928Y-8898214D01*
X9441071Y-8898214D01*
X9469643Y-8883929D01*
X9483928Y-8869643D01*
X9498214Y-8841072D01*
X9498214Y-8783929D01*
X9483928Y-8755357D01*
X9469643Y-8741072D01*
X9441071Y-8726786D01*
X9841071Y-8883929D02*
X9869643Y-8898214D01*
X9926786Y-8898214D01*
X9955357Y-8883929D01*
X9969643Y-8855357D01*
X9969643Y-8841072D01*
X9955357Y-8812500D01*
X9926786Y-8798214D01*
X9883928Y-8798214D01*
X9855357Y-8783929D01*
X9841071Y-8755357D01*
X9841071Y-8741072D01*
X9855357Y-8712500D01*
X9883928Y-8698214D01*
X9926786Y-8698214D01*
X9955357Y-8712500D01*
X10141071Y-8898214D02*
X10112500Y-8883929D01*
X10098214Y-8855357D01*
X10098214Y-8598214D01*
X10298214Y-8898214D02*
X10269643Y-8883929D01*
X10255357Y-8869643D01*
X10241071Y-8841072D01*
X10241071Y-8755357D01*
X10255357Y-8726786D01*
X10269643Y-8712500D01*
X10298214Y-8698214D01*
X10341071Y-8698214D01*
X10369643Y-8712500D01*
X10383928Y-8726786D01*
X10398214Y-8755357D01*
X10398214Y-8841072D01*
X10383928Y-8869643D01*
X10369643Y-8883929D01*
X10341071Y-8898214D01*
X10298214Y-8898214D01*
X10483928Y-8698214D02*
X10598214Y-8698214D01*
X10526786Y-8598214D02*
X10526786Y-8855357D01*
X10541071Y-8883929D01*
X10569643Y-8898214D01*
X10598214Y-8898214D01*
X10683928Y-8883929D02*
X10712500Y-8898214D01*
X10769643Y-8898214D01*
X10798214Y-8883929D01*
X10812500Y-8855357D01*
X10812500Y-8841072D01*
X10798214Y-8812500D01*
X10769643Y-8798214D01*
X10726786Y-8798214D01*
X10698214Y-8783929D01*
X10683928Y-8755357D01*
X10683928Y-8741072D01*
X10698214Y-8712500D01*
X10726786Y-8698214D01*
X10769643Y-8698214D01*
X10798214Y-8712500D01*
X10912500Y-9012500D02*
X10926786Y-8998214D01*
X10955357Y-8955357D01*
X10969643Y-8926786D01*
X10983928Y-8883929D01*
X10998214Y-8812500D01*
X10998214Y-8755357D01*
X10983928Y-8683929D01*
X10969643Y-8641072D01*
X10955357Y-8612500D01*
X10926786Y-8569643D01*
X10912500Y-8555357D01*
X1997500Y-9158500D02*
G75*
G03*
X1997500Y-9158500I-50500J0D01*
G01*
X2441071Y-9294214D02*
X2269643Y-9294214D01*
X2355357Y-9294214D02*
X2355357Y-8994214D01*
X2326786Y-9037072D01*
X2298214Y-9065643D01*
X2269643Y-9079929D01*
X2569643Y-9265643D02*
X2583928Y-9279929D01*
X2569643Y-9294214D01*
X2555357Y-9279929D01*
X2569643Y-9265643D01*
X2569643Y-9294214D01*
X2769643Y-8994214D02*
X2798214Y-8994214D01*
X2826786Y-9008500D01*
X2841071Y-9022786D01*
X2855357Y-9051357D01*
X2869643Y-9108500D01*
X2869643Y-9179929D01*
X2855357Y-9237072D01*
X2841071Y-9265643D01*
X2826786Y-9279929D01*
X2798214Y-9294214D01*
X2769643Y-9294214D01*
X2741071Y-9279929D01*
X2726786Y-9265643D01*
X2712500Y-9237072D01*
X2698214Y-9179929D01*
X2698214Y-9108500D01*
X2712500Y-9051357D01*
X2726786Y-9022786D01*
X2741071Y-9008500D01*
X2769643Y-8994214D01*
X3155357Y-9294214D02*
X2983928Y-9294214D01*
X3069643Y-9294214D02*
X3069643Y-8994214D01*
X3041071Y-9037072D01*
X3012500Y-9065643D01*
X2983928Y-9079929D01*
X3283928Y-9294214D02*
X3283928Y-9094214D01*
X3283928Y-9122786D02*
X3298214Y-9108500D01*
X3326786Y-9094214D01*
X3369643Y-9094214D01*
X3398214Y-9108500D01*
X3412500Y-9137072D01*
X3412500Y-9294214D01*
X3412500Y-9137072D02*
X3426786Y-9108500D01*
X3455357Y-9094214D01*
X3498214Y-9094214D01*
X3526786Y-9108500D01*
X3541071Y-9137072D01*
X3541071Y-9294214D01*
X3683928Y-9294214D02*
X3683928Y-9094214D01*
X3683928Y-9122786D02*
X3698214Y-9108500D01*
X3726786Y-9094214D01*
X3769643Y-9094214D01*
X3798214Y-9108500D01*
X3812500Y-9137072D01*
X3812500Y-9294214D01*
X3812500Y-9137072D02*
X3826786Y-9108500D01*
X3855357Y-9094214D01*
X3898214Y-9094214D01*
X3926786Y-9108500D01*
X3941071Y-9137072D01*
X3941071Y-9294214D01*
X4526786Y-8979929D02*
X4269643Y-9365643D01*
X4912500Y-8994214D02*
X4941071Y-8994214D01*
X4969643Y-9008500D01*
X4983928Y-9022786D01*
X4998214Y-9051357D01*
X5012500Y-9108500D01*
X5012500Y-9179929D01*
X4998214Y-9237072D01*
X4983928Y-9265643D01*
X4969643Y-9279929D01*
X4941071Y-9294214D01*
X4912500Y-9294214D01*
X4883928Y-9279929D01*
X4869643Y-9265643D01*
X4855357Y-9237072D01*
X4841071Y-9179929D01*
X4841071Y-9108500D01*
X4855357Y-9051357D01*
X4869643Y-9022786D01*
X4883928Y-9008500D01*
X4912500Y-8994214D01*
X5141071Y-9265643D02*
X5155357Y-9279929D01*
X5141071Y-9294214D01*
X5126786Y-9279929D01*
X5141071Y-9265643D01*
X5141071Y-9294214D01*
X5341071Y-8994214D02*
X5369643Y-8994214D01*
X5398214Y-9008500D01*
X5412500Y-9022786D01*
X5426786Y-9051357D01*
X5441071Y-9108500D01*
X5441071Y-9179929D01*
X5426786Y-9237072D01*
X5412500Y-9265643D01*
X5398214Y-9279929D01*
X5369643Y-9294214D01*
X5341071Y-9294214D01*
X5312500Y-9279929D01*
X5298214Y-9265643D01*
X5283928Y-9237072D01*
X5269643Y-9179929D01*
X5269643Y-9108500D01*
X5283928Y-9051357D01*
X5298214Y-9022786D01*
X5312500Y-9008500D01*
X5341071Y-8994214D01*
X5698214Y-9094214D02*
X5698214Y-9294214D01*
X5626786Y-8979929D02*
X5555357Y-9194214D01*
X5741071Y-9194214D01*
X5912500Y-8994214D02*
X5941071Y-8994214D01*
X5969643Y-9008500D01*
X5983928Y-9022786D01*
X5998214Y-9051357D01*
X6012500Y-9108500D01*
X6012500Y-9179929D01*
X5998214Y-9237072D01*
X5983928Y-9265643D01*
X5969643Y-9279929D01*
X5941071Y-9294214D01*
X5912500Y-9294214D01*
X5883928Y-9279929D01*
X5869643Y-9265643D01*
X5855357Y-9237072D01*
X5841071Y-9179929D01*
X5841071Y-9108500D01*
X5855357Y-9051357D01*
X5869643Y-9022786D01*
X5883928Y-9008500D01*
X5912500Y-8994214D01*
X6126786Y-8994214D02*
X6126786Y-9051357D01*
X6241071Y-8994214D02*
X6241071Y-9051357D01*
X6683928Y-9408500D02*
X6669643Y-9394214D01*
X6641071Y-9351357D01*
X6626786Y-9322786D01*
X6612500Y-9279929D01*
X6598214Y-9208500D01*
X6598214Y-9151357D01*
X6612500Y-9079929D01*
X6626786Y-9037072D01*
X6641071Y-9008500D01*
X6669643Y-8965643D01*
X6683928Y-8951357D01*
X6926786Y-8994214D02*
X6869643Y-8994214D01*
X6841071Y-9008500D01*
X6826786Y-9022786D01*
X6798214Y-9065643D01*
X6783928Y-9122786D01*
X6783928Y-9237072D01*
X6798214Y-9265643D01*
X6812500Y-9279929D01*
X6841071Y-9294214D01*
X6898214Y-9294214D01*
X6926786Y-9279929D01*
X6941071Y-9265643D01*
X6955357Y-9237072D01*
X6955357Y-9165643D01*
X6941071Y-9137072D01*
X6926786Y-9122786D01*
X6898214Y-9108500D01*
X6841071Y-9108500D01*
X6812500Y-9122786D01*
X6798214Y-9137072D01*
X6783928Y-9165643D01*
X7312500Y-9294214D02*
X7312500Y-8994214D01*
X7441071Y-9294214D02*
X7441071Y-9137072D01*
X7426786Y-9108500D01*
X7398214Y-9094214D01*
X7355357Y-9094214D01*
X7326786Y-9108500D01*
X7312500Y-9122786D01*
X7626786Y-9294214D02*
X7598214Y-9279929D01*
X7583928Y-9265643D01*
X7569643Y-9237072D01*
X7569643Y-9151357D01*
X7583928Y-9122786D01*
X7598214Y-9108500D01*
X7626786Y-9094214D01*
X7669643Y-9094214D01*
X7698214Y-9108500D01*
X7712500Y-9122786D01*
X7726786Y-9151357D01*
X7726786Y-9237072D01*
X7712500Y-9265643D01*
X7698214Y-9279929D01*
X7669643Y-9294214D01*
X7626786Y-9294214D01*
X7898214Y-9294214D02*
X7869643Y-9279929D01*
X7855357Y-9251357D01*
X7855357Y-8994214D01*
X8126786Y-9279929D02*
X8098214Y-9294214D01*
X8041071Y-9294214D01*
X8012500Y-9279929D01*
X7998214Y-9251357D01*
X7998214Y-9137072D01*
X8012500Y-9108500D01*
X8041071Y-9094214D01*
X8098214Y-9094214D01*
X8126786Y-9108500D01*
X8141071Y-9137072D01*
X8141071Y-9165643D01*
X7998214Y-9194214D01*
X8255357Y-9279929D02*
X8283928Y-9294214D01*
X8341071Y-9294214D01*
X8369643Y-9279929D01*
X8383928Y-9251357D01*
X8383928Y-9237072D01*
X8369643Y-9208500D01*
X8341071Y-9194214D01*
X8298214Y-9194214D01*
X8269643Y-9179929D01*
X8255357Y-9151357D01*
X8255357Y-9137072D01*
X8269643Y-9108500D01*
X8298214Y-9094214D01*
X8341071Y-9094214D01*
X8369643Y-9108500D01*
X8483928Y-9408500D02*
X8498214Y-9394214D01*
X8526786Y-9351357D01*
X8541071Y-9322786D01*
X8555357Y-9279929D01*
X8569643Y-9208500D01*
X8569643Y-9151357D01*
X8555357Y-9079929D01*
X8541071Y-9037072D01*
X8526786Y-9008500D01*
X8498214Y-8965643D01*
X8483928Y-8951357D01*
X1937500Y-9494500D02*
X1937500Y-9614500D01*
X1877500Y-9554500D02*
X1997500Y-9554500D01*
X2441071Y-9690214D02*
X2269643Y-9690214D01*
X2355357Y-9690214D02*
X2355357Y-9390214D01*
X2326786Y-9433072D01*
X2298214Y-9461643D01*
X2269643Y-9475929D01*
X2569643Y-9661643D02*
X2583928Y-9675929D01*
X2569643Y-9690214D01*
X2555357Y-9675929D01*
X2569643Y-9661643D01*
X2569643Y-9690214D01*
X2698214Y-9418786D02*
X2712500Y-9404500D01*
X2741071Y-9390214D01*
X2812500Y-9390214D01*
X2841071Y-9404500D01*
X2855357Y-9418786D01*
X2869643Y-9447357D01*
X2869643Y-9475929D01*
X2855357Y-9518786D01*
X2683928Y-9690214D01*
X2869643Y-9690214D01*
X3055357Y-9390214D02*
X3083928Y-9390214D01*
X3112500Y-9404500D01*
X3126786Y-9418786D01*
X3141071Y-9447357D01*
X3155357Y-9504500D01*
X3155357Y-9575929D01*
X3141071Y-9633072D01*
X3126786Y-9661643D01*
X3112500Y-9675929D01*
X3083928Y-9690214D01*
X3055357Y-9690214D01*
X3026786Y-9675929D01*
X3012500Y-9661643D01*
X2998214Y-9633072D01*
X2983928Y-9575929D01*
X2983928Y-9504500D01*
X2998214Y-9447357D01*
X3012500Y-9418786D01*
X3026786Y-9404500D01*
X3055357Y-9390214D01*
X3283928Y-9690214D02*
X3283928Y-9490214D01*
X3283928Y-9518786D02*
X3298214Y-9504500D01*
X3326786Y-9490214D01*
X3369643Y-9490214D01*
X3398214Y-9504500D01*
X3412500Y-9533072D01*
X3412500Y-9690214D01*
X3412500Y-9533072D02*
X3426786Y-9504500D01*
X3455357Y-9490214D01*
X3498214Y-9490214D01*
X3526786Y-9504500D01*
X3541071Y-9533072D01*
X3541071Y-9690214D01*
X3683928Y-9690214D02*
X3683928Y-9490214D01*
X3683928Y-9518786D02*
X3698214Y-9504500D01*
X3726786Y-9490214D01*
X3769643Y-9490214D01*
X3798214Y-9504500D01*
X3812500Y-9533072D01*
X3812500Y-9690214D01*
X3812500Y-9533072D02*
X3826786Y-9504500D01*
X3855357Y-9490214D01*
X3898214Y-9490214D01*
X3926786Y-9504500D01*
X3941071Y-9533072D01*
X3941071Y-9690214D01*
X4526786Y-9375929D02*
X4269643Y-9761643D01*
X4912500Y-9390214D02*
X4941071Y-9390214D01*
X4969643Y-9404500D01*
X4983928Y-9418786D01*
X4998214Y-9447357D01*
X5012500Y-9504500D01*
X5012500Y-9575929D01*
X4998214Y-9633072D01*
X4983928Y-9661643D01*
X4969643Y-9675929D01*
X4941071Y-9690214D01*
X4912500Y-9690214D01*
X4883928Y-9675929D01*
X4869643Y-9661643D01*
X4855357Y-9633072D01*
X4841071Y-9575929D01*
X4841071Y-9504500D01*
X4855357Y-9447357D01*
X4869643Y-9418786D01*
X4883928Y-9404500D01*
X4912500Y-9390214D01*
X5141071Y-9661643D02*
X5155357Y-9675929D01*
X5141071Y-9690214D01*
X5126786Y-9675929D01*
X5141071Y-9661643D01*
X5141071Y-9690214D01*
X5341071Y-9390214D02*
X5369643Y-9390214D01*
X5398214Y-9404500D01*
X5412500Y-9418786D01*
X5426786Y-9447357D01*
X5441071Y-9504500D01*
X5441071Y-9575929D01*
X5426786Y-9633072D01*
X5412500Y-9661643D01*
X5398214Y-9675929D01*
X5369643Y-9690214D01*
X5341071Y-9690214D01*
X5312500Y-9675929D01*
X5298214Y-9661643D01*
X5283928Y-9633072D01*
X5269643Y-9575929D01*
X5269643Y-9504500D01*
X5283928Y-9447357D01*
X5298214Y-9418786D01*
X5312500Y-9404500D01*
X5341071Y-9390214D01*
X5698214Y-9490214D02*
X5698214Y-9690214D01*
X5626786Y-9375929D02*
X5555357Y-9590214D01*
X5741071Y-9590214D01*
X5826786Y-9390214D02*
X6026786Y-9390214D01*
X5898214Y-9690214D01*
X6126786Y-9390214D02*
X6126786Y-9447357D01*
X6241071Y-9390214D02*
X6241071Y-9447357D01*
X6683928Y-9804500D02*
X6669643Y-9790214D01*
X6641071Y-9747357D01*
X6626786Y-9718786D01*
X6612500Y-9675929D01*
X6598214Y-9604500D01*
X6598214Y-9547357D01*
X6612500Y-9475929D01*
X6626786Y-9433072D01*
X6641071Y-9404500D01*
X6669643Y-9361643D01*
X6683928Y-9347357D01*
X6769643Y-9390214D02*
X6969643Y-9390214D01*
X6841071Y-9690214D01*
X7312500Y-9690214D02*
X7312500Y-9390214D01*
X7441071Y-9690214D02*
X7441071Y-9533072D01*
X7426786Y-9504500D01*
X7398214Y-9490214D01*
X7355357Y-9490214D01*
X7326786Y-9504500D01*
X7312500Y-9518786D01*
X7626786Y-9690214D02*
X7598214Y-9675929D01*
X7583928Y-9661643D01*
X7569643Y-9633072D01*
X7569643Y-9547357D01*
X7583928Y-9518786D01*
X7598214Y-9504500D01*
X7626786Y-9490214D01*
X7669643Y-9490214D01*
X7698214Y-9504500D01*
X7712500Y-9518786D01*
X7726786Y-9547357D01*
X7726786Y-9633072D01*
X7712500Y-9661643D01*
X7698214Y-9675929D01*
X7669643Y-9690214D01*
X7626786Y-9690214D01*
X7898214Y-9690214D02*
X7869643Y-9675929D01*
X7855357Y-9647357D01*
X7855357Y-9390214D01*
X8126786Y-9675929D02*
X8098214Y-9690214D01*
X8041071Y-9690214D01*
X8012500Y-9675929D01*
X7998214Y-9647357D01*
X7998214Y-9533072D01*
X8012500Y-9504500D01*
X8041071Y-9490214D01*
X8098214Y-9490214D01*
X8126786Y-9504500D01*
X8141071Y-9533072D01*
X8141071Y-9561643D01*
X7998214Y-9590214D01*
X8255357Y-9675929D02*
X8283928Y-9690214D01*
X8341071Y-9690214D01*
X8369643Y-9675929D01*
X8383928Y-9647357D01*
X8383928Y-9633072D01*
X8369643Y-9604500D01*
X8341071Y-9590214D01*
X8298214Y-9590214D01*
X8269643Y-9575929D01*
X8255357Y-9547357D01*
X8255357Y-9533072D01*
X8269643Y-9504500D01*
X8298214Y-9490214D01*
X8341071Y-9490214D01*
X8369643Y-9504500D01*
X8741071Y-9575929D02*
X8969643Y-9575929D01*
X8855357Y-9690214D02*
X8855357Y-9461643D01*
X9469643Y-9490214D02*
X9469643Y-9690214D01*
X9398214Y-9375929D02*
X9326786Y-9590214D01*
X9512500Y-9590214D01*
X9841071Y-9675929D02*
X9869643Y-9690214D01*
X9926786Y-9690214D01*
X9955357Y-9675929D01*
X9969643Y-9647357D01*
X9969643Y-9633072D01*
X9955357Y-9604500D01*
X9926786Y-9590214D01*
X9883928Y-9590214D01*
X9855357Y-9575929D01*
X9841071Y-9547357D01*
X9841071Y-9533072D01*
X9855357Y-9504500D01*
X9883928Y-9490214D01*
X9926786Y-9490214D01*
X9955357Y-9504500D01*
X10141071Y-9690214D02*
X10112500Y-9675929D01*
X10098214Y-9647357D01*
X10098214Y-9390214D01*
X10298214Y-9690214D02*
X10269643Y-9675929D01*
X10255357Y-9661643D01*
X10241071Y-9633072D01*
X10241071Y-9547357D01*
X10255357Y-9518786D01*
X10269643Y-9504500D01*
X10298214Y-9490214D01*
X10341071Y-9490214D01*
X10369643Y-9504500D01*
X10383928Y-9518786D01*
X10398214Y-9547357D01*
X10398214Y-9633072D01*
X10383928Y-9661643D01*
X10369643Y-9675929D01*
X10341071Y-9690214D01*
X10298214Y-9690214D01*
X10483928Y-9490214D02*
X10598214Y-9490214D01*
X10526786Y-9390214D02*
X10526786Y-9647357D01*
X10541071Y-9675929D01*
X10569643Y-9690214D01*
X10598214Y-9690214D01*
X10683928Y-9675929D02*
X10712500Y-9690214D01*
X10769643Y-9690214D01*
X10798214Y-9675929D01*
X10812500Y-9647357D01*
X10812500Y-9633072D01*
X10798214Y-9604500D01*
X10769643Y-9590214D01*
X10726786Y-9590214D01*
X10698214Y-9575929D01*
X10683928Y-9547357D01*
X10683928Y-9533072D01*
X10698214Y-9504500D01*
X10726786Y-9490214D01*
X10769643Y-9490214D01*
X10798214Y-9504500D01*
X10912500Y-9804500D02*
X10926786Y-9790214D01*
X10955357Y-9747357D01*
X10969643Y-9718786D01*
X10983928Y-9675929D01*
X10998214Y-9604500D01*
X10998214Y-9547357D01*
X10983928Y-9475929D01*
X10969643Y-9433072D01*
X10955357Y-9404500D01*
X10926786Y-9361643D01*
X10912500Y-9347357D01*
M02*
