M48
; DRILL file {KiCad (5.1.9)-1} date 05/25/21 00:15:30
; FORMAT={-:-/ absolute / metric / decimal}
; #@! TF.CreationDate,2021-05-25T00:15:30+02:00
; #@! TF.GenerationSoftware,Kicad,Pcbnew,(5.1.9)-1
; #@! TF.FileFunction,Plated,1,2,PTH
FMAT,2
METRIC
T1C1.000
T2C1.010
T3C1.200
%
G90
G05
T2
X22.22Y-41.27
X23.42Y-33.97
X23.42Y-36.17
X26.12Y-41.27
X27.32Y-33.97
X27.32Y-36.17
T3
X48.04Y-36.02
X53.12Y-28.22
X86.12Y-28.22
X86.14Y-34.72
X92.5Y-34.69
X115.0Y-34.69
X120.0Y-34.69
T1
X32.111Y-61.0G85X32.111Y-56.5
G05
X35.5Y-55.067G85X40.0Y-55.067
G05
X40.0Y-62.433G85X35.5Y-62.433
G05
X43.414Y-61.0G85X43.414Y-56.5
G05
X101.611Y-61.003G85X101.611Y-56.503
G05
X105.0Y-55.07G85X109.5Y-55.07
G05
X109.5Y-62.436G85X105.0Y-62.436
G05
X112.914Y-61.003G85X112.914Y-56.503
G05
T3
X42.72Y-23.14G85X42.92Y-23.14
G05
X42.72Y-28.22G85X42.92Y-28.22
G05
X47.8Y-23.14G85X48.0Y-23.14
G05
X47.8Y-28.22G85X48.0Y-28.22
G05
T0
M30
